M48
; DRILL file {KiCad 9.0.7} date 2026-03-13T05:46:16-0600
; FORMAT={-:-/ absolute / metric / decimal}
; #@! TF.CreationDate,2026-03-13T05:46:16-06:00
; #@! TF.GenerationSoftware,Kicad,Pcbnew,9.0.7
; #@! TF.FileFunction,Plated,1,2,PTH
FMAT,2
METRIC
; #@! TA.AperFunction,Plated,PTH,ComponentDrill
T1C0.700
; #@! TA.AperFunction,Plated,PTH,ComponentDrill
T2C0.720
; #@! TA.AperFunction,Plated,PTH,ComponentDrill
T3C0.750
; #@! TA.AperFunction,Plated,PTH,ComponentDrill
T4C0.800
; #@! TA.AperFunction,Plated,PTH,ComponentDrill
T5C0.900
; #@! TA.AperFunction,Plated,PTH,ComponentDrill
T6C1.000
; #@! TA.AperFunction,Plated,PTH,ComponentDrill
T7C1.016
%
G90
G05
T1
X145.0Y-78.5
X163.0Y-79.0
X164.5Y-77.0
X167.0Y-69.0
X167.0Y-71.5
X167.0Y-74.0
X167.0Y-76.5
X167.0Y-79.0
T2
X159.19Y-81.35
X159.19Y-94.65
X161.73Y-81.35
X161.73Y-94.65
X164.27Y-81.35
X164.27Y-94.65
X166.81Y-81.35
X166.81Y-94.65
T3
X153.23Y-84.14
X154.5Y-84.14
X155.77Y-84.14
X175.5Y-78.96
X175.5Y-80.23
X175.5Y-81.5
T4
X148.0Y-52.19
X148.0Y-59.81
X151.0Y-52.38
X151.0Y-60.0
X154.0Y-52.19
X154.0Y-59.81
X157.0Y-52.19
X157.0Y-59.81
X160.0Y-52.19
X160.0Y-59.81
X163.0Y-52.19
X163.0Y-59.81
T5
X145.5Y-63.0
X145.5Y-65.54
X152.0Y-63.0
X152.0Y-65.54
X156.46Y-77.0
X158.5Y-63.0
X158.5Y-65.54
X159.0Y-77.0
X165.0Y-63.0
X165.0Y-65.54
X173.5Y-65.735
X173.5Y-68.275
X173.5Y-72.225
X173.5Y-74.765
T6
X118.796Y-49.2
X121.336Y-49.2
X123.876Y-49.2
X126.416Y-49.2
X127.94Y-97.46
X128.956Y-49.2
X130.48Y-97.46
X131.496Y-49.2
X133.02Y-97.46
X134.036Y-49.2
X135.56Y-97.46
X136.576Y-49.2
X138.1Y-97.46
X139.116Y-49.2
X140.64Y-97.46
X141.656Y-49.2
X143.18Y-97.46
X145.0Y-81.96
X145.0Y-84.5
X145.0Y-87.04
X145.0Y-89.58
X145.0Y-92.12
X145.72Y-49.2
X145.72Y-97.46
X148.26Y-49.2
X150.8Y-49.2
X150.8Y-97.46
X153.34Y-49.2
X153.34Y-97.46
X155.88Y-49.2
X155.88Y-97.46
X158.42Y-49.2
X158.42Y-97.46
X160.96Y-49.2
X160.96Y-97.46
X163.5Y-49.2
X163.5Y-97.46
T7
X121.65Y-73.255
X124.19Y-73.255
X126.73Y-73.255
X129.27Y-73.255
X131.81Y-73.255
X134.35Y-73.255
M30
