%TF.GenerationSoftware,KiCad,Pcbnew,9.0.7*%
%TF.CreationDate,2026-03-13T05:46:19-06:00*%
%TF.ProjectId,Uno_Shield_For_NASA,556e6f5f-5368-4696-956c-645f466f725f,rev?*%
%TF.SameCoordinates,Original*%
%TF.FileFunction,Copper,L1,Top*%
%TF.FilePolarity,Positive*%
%FSLAX46Y46*%
G04 Gerber Fmt 4.6, Leading zero omitted, Abs format (unit mm)*
G04 Created by KiCad (PCBNEW 9.0.7) date 2026-03-13 05:46:19*
%MOMM*%
%LPD*%
G01*
G04 APERTURE LIST*
%TA.AperFunction,ComponentPad*%
%ADD10O,1.050000X1.500000*%
%TD*%
%TA.AperFunction,ComponentPad*%
%ADD11R,1.050000X1.500000*%
%TD*%
%TA.AperFunction,ComponentPad*%
%ADD12C,1.800000*%
%TD*%
%TA.AperFunction,ComponentPad*%
%ADD13R,1.800000X1.800000*%
%TD*%
%TA.AperFunction,ComponentPad*%
%ADD14C,1.500000*%
%TD*%
%TA.AperFunction,ComponentPad*%
%ADD15R,1.700000X1.700000*%
%TD*%
%TA.AperFunction,ComponentPad*%
%ADD16O,1.700000X1.700000*%
%TD*%
%TA.AperFunction,ComponentPad*%
%ADD17C,1.600000*%
%TD*%
%TA.AperFunction,ComponentPad*%
%ADD18R,1.500000X1.050000*%
%TD*%
%TA.AperFunction,ComponentPad*%
%ADD19O,1.500000X1.050000*%
%TD*%
%TA.AperFunction,ComponentPad*%
%ADD20C,1.700000*%
%TD*%
%TA.AperFunction,ComponentPad*%
%ADD21R,1.879600X1.879600*%
%TD*%
%TA.AperFunction,ComponentPad*%
%ADD22C,1.879600*%
%TD*%
%TA.AperFunction,ComponentPad*%
%ADD23R,1.070000X1.070000*%
%TD*%
%TA.AperFunction,ComponentPad*%
%ADD24C,1.070000*%
%TD*%
%TA.AperFunction,Conductor*%
%ADD25C,0.250000*%
%TD*%
G04 APERTURE END LIST*
D10*
%TO.P,U1,3,GND*%
%TO.N,GND*%
X153230000Y-84140000D03*
%TO.P,U1,2,Vout*%
%TO.N,/A0*%
X154500000Y-84140000D03*
D11*
%TO.P,U1,1,Vs*%
%TO.N,+5V*%
X155770000Y-84140000D03*
%TD*%
D12*
%TO.P,D6,2,A*%
%TO.N,Net-(D6-A)*%
X173500000Y-74765000D03*
D13*
%TO.P,D6,1,K*%
%TO.N,GND*%
X173500000Y-72225000D03*
%TD*%
D14*
%TO.P,TP4,1,Pin_1*%
%TO.N,GND*%
X167000000Y-74000000D03*
%TD*%
%TO.P,TP8,1,Pin_1*%
%TO.N,GND*%
X163000000Y-79000000D03*
%TD*%
%TO.P,TP7,1,Pin_1*%
%TO.N,/A1*%
X167000000Y-79000000D03*
%TD*%
%TO.P,TP6,1,Pin_1*%
%TO.N,+5V*%
X164500000Y-77000000D03*
%TD*%
D13*
%TO.P,U2,1,VCC*%
%TO.N,GND*%
X159000000Y-77000000D03*
D12*
%TO.P,U2,2,OUT*%
%TO.N,/A2*%
X156460000Y-77000000D03*
%TD*%
D15*
%TO.P,J1,1,Pin_1*%
%TO.N,unconnected-(J1-Pin_1-Pad1)*%
X127940000Y-97460000D03*
D16*
%TO.P,J1,2,Pin_2*%
%TO.N,/IOREF*%
X130480000Y-97460000D03*
%TO.P,J1,3,Pin_3*%
%TO.N,/~{RESET}*%
X133020000Y-97460000D03*
%TO.P,J1,4,Pin_4*%
%TO.N,+3V3*%
X135560000Y-97460000D03*
%TO.P,J1,5,Pin_5*%
%TO.N,+5V*%
X138100000Y-97460000D03*
%TO.P,J1,6,Pin_6*%
%TO.N,GND*%
X140640000Y-97460000D03*
%TO.P,J1,7,Pin_7*%
X143180000Y-97460000D03*
%TO.P,J1,8,Pin_8*%
%TO.N,VCC*%
X145720000Y-97460000D03*
%TD*%
D15*
%TO.P,J3,1,Pin_1*%
%TO.N,/A0*%
X150800000Y-97460000D03*
D16*
%TO.P,J3,2,Pin_2*%
%TO.N,/A1*%
X153340000Y-97460000D03*
%TO.P,J3,3,Pin_3*%
%TO.N,/A2*%
X155880000Y-97460000D03*
%TO.P,J3,4,Pin_4*%
%TO.N,/A3*%
X158420000Y-97460000D03*
%TO.P,J3,5,Pin_5*%
%TO.N,/A4*%
X160960000Y-97460000D03*
%TO.P,J3,6,Pin_6*%
%TO.N,/A5*%
X163500000Y-97460000D03*
%TD*%
D15*
%TO.P,J2,1,Pin_1*%
%TO.N,/SCL*%
X118796000Y-49200000D03*
D16*
%TO.P,J2,2,Pin_2*%
%TO.N,/SDA*%
X121336000Y-49200000D03*
%TO.P,J2,3,Pin_3*%
%TO.N,/AREF*%
X123876000Y-49200000D03*
%TO.P,J2,4,Pin_4*%
%TO.N,GND*%
X126416000Y-49200000D03*
%TO.P,J2,5,Pin_5*%
%TO.N,/D13*%
X128956000Y-49200000D03*
%TO.P,J2,6,Pin_6*%
%TO.N,/D12*%
X131496000Y-49200000D03*
%TO.P,J2,7,Pin_7*%
%TO.N,/D11*%
X134036000Y-49200000D03*
%TO.P,J2,8,Pin_8*%
%TO.N,/D10*%
X136576000Y-49200000D03*
%TO.P,J2,9,Pin_9*%
%TO.N,/D9*%
X139116000Y-49200000D03*
%TO.P,J2,10,Pin_10*%
%TO.N,/D8*%
X141656000Y-49200000D03*
%TD*%
D15*
%TO.P,J4,1,Pin_1*%
%TO.N,/D7*%
X145720000Y-49200000D03*
D16*
%TO.P,J4,2,Pin_2*%
%TO.N,/D6*%
X148260000Y-49200000D03*
%TO.P,J4,3,Pin_3*%
%TO.N,/D5*%
X150800000Y-49200000D03*
%TO.P,J4,4,Pin_4*%
%TO.N,/D4*%
X153340000Y-49200000D03*
%TO.P,J4,5,Pin_5*%
%TO.N,/D3*%
X155880000Y-49200000D03*
%TO.P,J4,6,Pin_6*%
%TO.N,/D2*%
X158420000Y-49200000D03*
%TO.P,J4,7,Pin_7*%
%TO.N,/TX{slash}1*%
X160960000Y-49200000D03*
%TO.P,J4,8,Pin_8*%
%TO.N,/RX{slash}0*%
X163500000Y-49200000D03*
%TD*%
D13*
%TO.P,D3,1,K*%
%TO.N,GND*%
X152000000Y-65540000D03*
D12*
%TO.P,D3,2,A*%
%TO.N,Net-(D3-A)*%
X152000000Y-63000000D03*
%TD*%
D13*
%TO.P,D1,1,K*%
%TO.N,GND*%
X165000000Y-65540000D03*
D12*
%TO.P,D1,2,A*%
%TO.N,Net-(D1-A)*%
X165000000Y-63000000D03*
%TD*%
D14*
%TO.P,TP2,1,Pin_1*%
%TO.N,Net-(D6-A)*%
X167000000Y-76500000D03*
%TD*%
D17*
%TO.P,R2,1,1*%
%TO.N,Net-(D2-A)*%
X160000000Y-59810000D03*
%TO.P,R2,2,2*%
%TO.N,/D3*%
X160000000Y-52190000D03*
%TD*%
%TO.P,R5,1,1*%
%TO.N,Net-(D5-A)*%
X151000000Y-60000000D03*
%TO.P,R5,2,2*%
%TO.N,/D6*%
X151000000Y-52380000D03*
%TD*%
D14*
%TO.P,TP1,1,Pin_1*%
%TO.N,/ACC_Z_SPARE*%
X145000000Y-78500000D03*
%TD*%
D18*
%TO.P,U5,1,Vs*%
%TO.N,+5V*%
X175500000Y-78960000D03*
D19*
%TO.P,U5,2,Vout*%
%TO.N,/A1*%
X175500000Y-80230000D03*
%TO.P,U5,3,GND*%
%TO.N,GND*%
X175500000Y-81500000D03*
%TD*%
D13*
%TO.P,D2,1,K*%
%TO.N,GND*%
X158500000Y-65540000D03*
D12*
%TO.P,D2,2,A*%
%TO.N,Net-(D2-A)*%
X158500000Y-63000000D03*
%TD*%
D15*
%TO.P,U4,1,VCC*%
%TO.N,+3V3*%
X145000000Y-92120000D03*
D20*
%TO.P,U4,2,GND*%
%TO.N,/A5*%
X145000000Y-89580000D03*
%TO.P,U4,3,X*%
%TO.N,/A4*%
X145000000Y-87040000D03*
%TO.P,U4,4,Y*%
%TO.N,GND*%
X145000000Y-84500000D03*
%TO.P,U4,5,Z*%
%TO.N,/ACC_Z_SPARE*%
X145000000Y-81960000D03*
%TD*%
D17*
%TO.P,R4,1,1*%
%TO.N,Net-(D4-A)*%
X154000000Y-59810000D03*
%TO.P,R4,2,2*%
%TO.N,/D5*%
X154000000Y-52190000D03*
%TD*%
D14*
%TO.P,TP5,1,Pin_1*%
%TO.N,GND*%
X167000000Y-71500000D03*
%TD*%
D21*
%TO.P,J5,1,Pin_1*%
%TO.N,/D10*%
X134350000Y-73255000D03*
D22*
%TO.P,J5,2,Pin_2*%
%TO.N,/D11*%
X131810000Y-73255000D03*
%TO.P,J5,3,Pin_3*%
%TO.N,GND*%
X129270000Y-73255000D03*
%TO.P,J5,4,Pin_4*%
%TO.N,+5V*%
X126730000Y-73255000D03*
%TO.P,J5,5*%
%TO.N,N/C*%
X124190000Y-73255000D03*
%TO.P,J5,6*%
X121650000Y-73255000D03*
%TD*%
D17*
%TO.P,R6,1,1*%
%TO.N,Net-(D6-A)*%
X148000000Y-59810000D03*
%TO.P,R6,2,2*%
%TO.N,/D7*%
X148000000Y-52190000D03*
%TD*%
%TO.P,R1,1,1*%
%TO.N,Net-(D1-A)*%
X163000000Y-59810000D03*
%TO.P,R1,2,2*%
%TO.N,/D2*%
X163000000Y-52190000D03*
%TD*%
D14*
%TO.P,TP3,1,Pin_1*%
%TO.N,Net-(D5-A)*%
X167000000Y-69000000D03*
%TD*%
D13*
%TO.P,D4,1,K*%
%TO.N,GND*%
X145500000Y-65540000D03*
D12*
%TO.P,D4,2,A*%
%TO.N,Net-(D4-A)*%
X145500000Y-63000000D03*
%TD*%
D13*
%TO.P,D5,1,K*%
%TO.N,GND*%
X173500000Y-68275000D03*
D12*
%TO.P,D5,2,A*%
%TO.N,Net-(D5-A)*%
X173500000Y-65735000D03*
%TD*%
D23*
%TO.P,U3,1,NC*%
%TO.N,GND*%
X166810000Y-81350000D03*
D24*
%TO.P,U3,2,Vs*%
%TO.N,/A3*%
X164270000Y-81350000D03*
%TO.P,U3,3,OUT*%
%TO.N,+5V*%
X161730000Y-81350000D03*
%TO.P,U3,4,GND*%
%TO.N,unconnected-(U3-GND-Pad4)*%
X159190000Y-81350000D03*
%TO.P,U3,5*%
%TO.N,N/C*%
X159190000Y-94650000D03*
%TO.P,U3,6*%
X161730000Y-94650000D03*
%TO.P,U3,7*%
X164270000Y-94650000D03*
%TO.P,U3,8*%
X166810000Y-94650000D03*
%TD*%
D17*
%TO.P,R3,1,1*%
%TO.N,Net-(D3-A)*%
X157000000Y-59810000D03*
%TO.P,R3,2,2*%
%TO.N,/D4*%
X157000000Y-52190000D03*
%TD*%
D25*
%TO.N,/ACC_Z_SPARE*%
X145000000Y-78500000D02*
X145000000Y-81549000D01*
%TO.N,/A5*%
X147347000Y-91927000D02*
X145000000Y-89580000D01*
X147347000Y-96996810D02*
X147347000Y-91927000D01*
X161873000Y-99087000D02*
X149437190Y-99087000D01*
X149437190Y-99087000D02*
X147347000Y-96996810D01*
X163500000Y-97460000D02*
X161873000Y-99087000D01*
%TO.N,/A4*%
X145960000Y-88000000D02*
X145000000Y-87040000D01*
X149000000Y-98012000D02*
X149000000Y-88000000D01*
X149624000Y-98636000D02*
X149000000Y-98012000D01*
X149000000Y-88000000D02*
X145960000Y-88000000D01*
X159784000Y-98636000D02*
X149624000Y-98636000D01*
X160960000Y-97460000D02*
X159784000Y-98636000D01*
%TO.N,+3V3*%
X146896000Y-94016000D02*
X145000000Y-92120000D01*
X146896000Y-97947116D02*
X146896000Y-94016000D01*
X146207116Y-98636000D02*
X146896000Y-97947116D01*
%TO.N,/A1*%
X153340000Y-96522190D02*
X153340000Y-97460000D01*
X156621000Y-93241190D02*
X153340000Y-96522190D01*
X156621000Y-78894826D02*
X156621000Y-93241190D01*
X155000000Y-77273826D02*
X156621000Y-78894826D01*
X155000000Y-76500000D02*
X155000000Y-77273826D01*
X160869000Y-76506810D02*
X160136190Y-75774000D01*
X160869000Y-81706638D02*
X160869000Y-76506810D01*
X161373362Y-82211000D02*
X160869000Y-81706638D01*
X155726000Y-75774000D02*
X155000000Y-76500000D01*
X160136190Y-75774000D02*
X155726000Y-75774000D01*
X162086638Y-82211000D02*
X161373362Y-82211000D01*
X165297638Y-79000000D02*
X162086638Y-82211000D01*
X167000000Y-79000000D02*
X165297638Y-79000000D01*
%TO.N,/A3*%
X160869000Y-95011000D02*
X158420000Y-97460000D01*
X160869000Y-84751000D02*
X160869000Y-95011000D01*
X164270000Y-81350000D02*
X160869000Y-84751000D01*
%TO.N,Net-(D6-A)*%
X149419190Y-72549000D02*
X163049000Y-72549000D01*
X143823000Y-62305364D02*
X143823000Y-66952810D01*
X146318364Y-59810000D02*
X143823000Y-62305364D01*
X163049000Y-72549000D02*
X167000000Y-76500000D01*
X148000000Y-59810000D02*
X146318364Y-59810000D01*
X143823000Y-66952810D02*
X149419190Y-72549000D01*
%TO.N,Net-(D5-A)*%
X144274000Y-62492174D02*
X144274000Y-66766000D01*
X149677000Y-61323000D02*
X145443174Y-61323000D01*
X144274000Y-66766000D02*
X146508000Y-69000000D01*
X151000000Y-60000000D02*
X149677000Y-61323000D01*
X145443174Y-61323000D02*
X144274000Y-62492174D01*
X146508000Y-69000000D02*
X167000000Y-69000000D01*
%TO.N,Net-(D4-A)*%
X152036000Y-61774000D02*
X154000000Y-59810000D01*
X146726000Y-61774000D02*
X152036000Y-61774000D01*
X145500000Y-63000000D02*
X146726000Y-61774000D01*
%TO.N,Net-(D1-A)*%
X163000000Y-61000000D02*
X163000000Y-59810000D01*
X165000000Y-63000000D02*
X163000000Y-61000000D01*
%TO.N,Net-(D2-A)*%
X160000000Y-61000000D02*
X160000000Y-59810000D01*
X158500000Y-63000000D02*
X158500000Y-62500000D01*
X158500000Y-62500000D02*
X160000000Y-61000000D01*
%TO.N,Net-(D3-A)*%
X155690000Y-59810000D02*
X157000000Y-59810000D01*
X152500000Y-63000000D02*
X155690000Y-59810000D01*
X152000000Y-63000000D02*
X152500000Y-63000000D01*
%TO.N,/D2*%
X158878630Y-49200000D02*
X158420000Y-49200000D01*
X161868630Y-52190000D02*
X158878630Y-49200000D01*
X163000000Y-52190000D02*
X161868630Y-52190000D01*
%TO.N,/D3*%
X158870000Y-52190000D02*
X155880000Y-49200000D01*
X160000000Y-52190000D02*
X158870000Y-52190000D01*
%TO.N,/D4*%
X154010000Y-49200000D02*
X153340000Y-49200000D01*
X157000000Y-52190000D02*
X154010000Y-49200000D01*
%TO.N,/D5*%
X151010000Y-49200000D02*
X150800000Y-49200000D01*
X154000000Y-52190000D02*
X151010000Y-49200000D01*
%TO.N,/D6*%
X148260000Y-49640000D02*
X148260000Y-49200000D01*
X151000000Y-52380000D02*
X148260000Y-49640000D01*
%TO.N,/D7*%
X148000000Y-52190000D02*
X145720000Y-49910000D01*
X145720000Y-49910000D02*
X145720000Y-49200000D01*
%TO.N,/A2*%
X157716000Y-92784000D02*
X155880000Y-94620000D01*
X155880000Y-94620000D02*
X155880000Y-97460000D01*
X157716000Y-78256000D02*
X157716000Y-92784000D01*
X156460000Y-77000000D02*
X157716000Y-78256000D01*
%TO.N,+5V*%
X158000000Y-73000000D02*
X161500000Y-76500000D01*
X152000000Y-78000000D02*
X157000000Y-73000000D01*
X157000000Y-73000000D02*
X158000000Y-73000000D01*
X152000000Y-82000000D02*
X152000000Y-78000000D01*
X152000000Y-82000000D02*
X155000000Y-82000000D01*
X161500000Y-76500000D02*
X161500000Y-77000000D01*
%TO.N,/A0*%
X151437810Y-97460000D02*
X150800000Y-97460000D01*
X154500000Y-84140000D02*
X154500000Y-94397810D01*
X154500000Y-94397810D02*
X151437810Y-97460000D01*
%TO.N,+3V3*%
X146207116Y-98636000D02*
X136736000Y-98636000D01*
X136736000Y-98636000D02*
X135560000Y-97460000D01*
%TO.N,+5V*%
X155770000Y-82770000D02*
X155770000Y-84140000D01*
X143500000Y-82000000D02*
X152000000Y-82000000D01*
X133070000Y-92430000D02*
X143500000Y-82000000D01*
X133070000Y-92430000D02*
X126730000Y-86090000D01*
X155000000Y-82000000D02*
X155770000Y-82770000D01*
X126730000Y-86090000D02*
X126730000Y-73255000D01*
X138100000Y-97460000D02*
X133070000Y-92430000D01*
%TO.N,/D10*%
X134350000Y-51426000D02*
X136576000Y-49200000D01*
X134350000Y-73255000D02*
X134350000Y-51426000D01*
%TO.N,/D11*%
X131810000Y-51426000D02*
X134036000Y-49200000D01*
X131810000Y-73255000D02*
X131810000Y-51426000D01*
%TO.N,+5V*%
X161730000Y-77230000D02*
X161730000Y-81350000D01*
X161500000Y-77000000D02*
X161730000Y-77230000D01*
X164500000Y-77000000D02*
X161500000Y-77000000D01*
%TD*%
M02*
