%TF.GenerationSoftware,KiCad,Pcbnew,9.0.7*%
%TF.CreationDate,2026-03-13T05:46:19-06:00*%
%TF.ProjectId,Uno_Shield_For_NASA,556e6f5f-5368-4696-956c-645f466f725f,rev?*%
%TF.SameCoordinates,Original*%
%TF.FileFunction,Copper,L2,Bot*%
%TF.FilePolarity,Positive*%
%FSLAX46Y46*%
G04 Gerber Fmt 4.6, Leading zero omitted, Abs format (unit mm)*
G04 Created by KiCad (PCBNEW 9.0.7) date 2026-03-13 05:46:19*
%MOMM*%
%LPD*%
G01*
G04 APERTURE LIST*
%TA.AperFunction,ComponentPad*%
%ADD10O,1.050000X1.500000*%
%TD*%
%TA.AperFunction,ComponentPad*%
%ADD11R,1.050000X1.500000*%
%TD*%
%TA.AperFunction,ComponentPad*%
%ADD12C,1.800000*%
%TD*%
%TA.AperFunction,ComponentPad*%
%ADD13R,1.800000X1.800000*%
%TD*%
%TA.AperFunction,ComponentPad*%
%ADD14C,1.500000*%
%TD*%
%TA.AperFunction,ComponentPad*%
%ADD15R,1.700000X1.700000*%
%TD*%
%TA.AperFunction,ComponentPad*%
%ADD16O,1.700000X1.700000*%
%TD*%
%TA.AperFunction,ComponentPad*%
%ADD17C,1.600000*%
%TD*%
%TA.AperFunction,ComponentPad*%
%ADD18R,1.500000X1.050000*%
%TD*%
%TA.AperFunction,ComponentPad*%
%ADD19O,1.500000X1.050000*%
%TD*%
%TA.AperFunction,ComponentPad*%
%ADD20C,1.700000*%
%TD*%
%TA.AperFunction,ComponentPad*%
%ADD21R,1.879600X1.879600*%
%TD*%
%TA.AperFunction,ComponentPad*%
%ADD22C,1.879600*%
%TD*%
%TA.AperFunction,ComponentPad*%
%ADD23R,1.070000X1.070000*%
%TD*%
%TA.AperFunction,ComponentPad*%
%ADD24C,1.070000*%
%TD*%
G04 APERTURE END LIST*
D10*
%TO.P,U1,3,GND*%
%TO.N,GND*%
X153230000Y-84140000D03*
%TO.P,U1,2,Vout*%
%TO.N,/A0*%
X154500000Y-84140000D03*
D11*
%TO.P,U1,1,Vs*%
%TO.N,+5V*%
X155770000Y-84140000D03*
%TD*%
D12*
%TO.P,D6,2,A*%
%TO.N,Net-(D6-A)*%
X173500000Y-74765000D03*
D13*
%TO.P,D6,1,K*%
%TO.N,GND*%
X173500000Y-72225000D03*
%TD*%
D14*
%TO.P,TP4,1,Pin_1*%
%TO.N,GND*%
X167000000Y-74000000D03*
%TD*%
%TO.P,TP8,1,Pin_1*%
%TO.N,GND*%
X163000000Y-79000000D03*
%TD*%
%TO.P,TP7,1,Pin_1*%
%TO.N,/A1*%
X167000000Y-79000000D03*
%TD*%
%TO.P,TP6,1,Pin_1*%
%TO.N,+5V*%
X164500000Y-77000000D03*
%TD*%
D13*
%TO.P,U2,1,VCC*%
%TO.N,GND*%
X159000000Y-77000000D03*
D12*
%TO.P,U2,2,OUT*%
%TO.N,/A2*%
X156460000Y-77000000D03*
%TD*%
D15*
%TO.P,J1,1,Pin_1*%
%TO.N,unconnected-(J1-Pin_1-Pad1)*%
X127940000Y-97460000D03*
D16*
%TO.P,J1,2,Pin_2*%
%TO.N,/IOREF*%
X130480000Y-97460000D03*
%TO.P,J1,3,Pin_3*%
%TO.N,/~{RESET}*%
X133020000Y-97460000D03*
%TO.P,J1,4,Pin_4*%
%TO.N,+3V3*%
X135560000Y-97460000D03*
%TO.P,J1,5,Pin_5*%
%TO.N,+5V*%
X138100000Y-97460000D03*
%TO.P,J1,6,Pin_6*%
%TO.N,GND*%
X140640000Y-97460000D03*
%TO.P,J1,7,Pin_7*%
X143180000Y-97460000D03*
%TO.P,J1,8,Pin_8*%
%TO.N,VCC*%
X145720000Y-97460000D03*
%TD*%
D15*
%TO.P,J3,1,Pin_1*%
%TO.N,/A0*%
X150800000Y-97460000D03*
D16*
%TO.P,J3,2,Pin_2*%
%TO.N,/A1*%
X153340000Y-97460000D03*
%TO.P,J3,3,Pin_3*%
%TO.N,/A2*%
X155880000Y-97460000D03*
%TO.P,J3,4,Pin_4*%
%TO.N,/A3*%
X158420000Y-97460000D03*
%TO.P,J3,5,Pin_5*%
%TO.N,/A4*%
X160960000Y-97460000D03*
%TO.P,J3,6,Pin_6*%
%TO.N,/A5*%
X163500000Y-97460000D03*
%TD*%
D15*
%TO.P,J2,1,Pin_1*%
%TO.N,/SCL*%
X118796000Y-49200000D03*
D16*
%TO.P,J2,2,Pin_2*%
%TO.N,/SDA*%
X121336000Y-49200000D03*
%TO.P,J2,3,Pin_3*%
%TO.N,/AREF*%
X123876000Y-49200000D03*
%TO.P,J2,4,Pin_4*%
%TO.N,GND*%
X126416000Y-49200000D03*
%TO.P,J2,5,Pin_5*%
%TO.N,/D13*%
X128956000Y-49200000D03*
%TO.P,J2,6,Pin_6*%
%TO.N,/D12*%
X131496000Y-49200000D03*
%TO.P,J2,7,Pin_7*%
%TO.N,/D11*%
X134036000Y-49200000D03*
%TO.P,J2,8,Pin_8*%
%TO.N,/D10*%
X136576000Y-49200000D03*
%TO.P,J2,9,Pin_9*%
%TO.N,/D9*%
X139116000Y-49200000D03*
%TO.P,J2,10,Pin_10*%
%TO.N,/D8*%
X141656000Y-49200000D03*
%TD*%
D15*
%TO.P,J4,1,Pin_1*%
%TO.N,/D7*%
X145720000Y-49200000D03*
D16*
%TO.P,J4,2,Pin_2*%
%TO.N,/D6*%
X148260000Y-49200000D03*
%TO.P,J4,3,Pin_3*%
%TO.N,/D5*%
X150800000Y-49200000D03*
%TO.P,J4,4,Pin_4*%
%TO.N,/D4*%
X153340000Y-49200000D03*
%TO.P,J4,5,Pin_5*%
%TO.N,/D3*%
X155880000Y-49200000D03*
%TO.P,J4,6,Pin_6*%
%TO.N,/D2*%
X158420000Y-49200000D03*
%TO.P,J4,7,Pin_7*%
%TO.N,/TX{slash}1*%
X160960000Y-49200000D03*
%TO.P,J4,8,Pin_8*%
%TO.N,/RX{slash}0*%
X163500000Y-49200000D03*
%TD*%
D13*
%TO.P,D3,1,K*%
%TO.N,GND*%
X152000000Y-65540000D03*
D12*
%TO.P,D3,2,A*%
%TO.N,Net-(D3-A)*%
X152000000Y-63000000D03*
%TD*%
D13*
%TO.P,D1,1,K*%
%TO.N,GND*%
X165000000Y-65540000D03*
D12*
%TO.P,D1,2,A*%
%TO.N,Net-(D1-A)*%
X165000000Y-63000000D03*
%TD*%
D14*
%TO.P,TP2,1,Pin_1*%
%TO.N,Net-(D6-A)*%
X167000000Y-76500000D03*
%TD*%
D17*
%TO.P,R2,1,1*%
%TO.N,Net-(D2-A)*%
X160000000Y-59810000D03*
%TO.P,R2,2,2*%
%TO.N,/D3*%
X160000000Y-52190000D03*
%TD*%
%TO.P,R5,1,1*%
%TO.N,Net-(D5-A)*%
X151000000Y-60000000D03*
%TO.P,R5,2,2*%
%TO.N,/D6*%
X151000000Y-52380000D03*
%TD*%
D14*
%TO.P,TP1,1,Pin_1*%
%TO.N,/ACC_Z_SPARE*%
X145000000Y-78500000D03*
%TD*%
D18*
%TO.P,U5,1,Vs*%
%TO.N,+5V*%
X175500000Y-78960000D03*
D19*
%TO.P,U5,2,Vout*%
%TO.N,/A1*%
X175500000Y-80230000D03*
%TO.P,U5,3,GND*%
%TO.N,GND*%
X175500000Y-81500000D03*
%TD*%
D13*
%TO.P,D2,1,K*%
%TO.N,GND*%
X158500000Y-65540000D03*
D12*
%TO.P,D2,2,A*%
%TO.N,Net-(D2-A)*%
X158500000Y-63000000D03*
%TD*%
D15*
%TO.P,U4,1,VCC*%
%TO.N,+3V3*%
X145000000Y-92120000D03*
D20*
%TO.P,U4,2,GND*%
%TO.N,/A5*%
X145000000Y-89580000D03*
%TO.P,U4,3,X*%
%TO.N,/A4*%
X145000000Y-87040000D03*
%TO.P,U4,4,Y*%
%TO.N,GND*%
X145000000Y-84500000D03*
%TO.P,U4,5,Z*%
%TO.N,/ACC_Z_SPARE*%
X145000000Y-81960000D03*
%TD*%
D17*
%TO.P,R4,1,1*%
%TO.N,Net-(D4-A)*%
X154000000Y-59810000D03*
%TO.P,R4,2,2*%
%TO.N,/D5*%
X154000000Y-52190000D03*
%TD*%
D14*
%TO.P,TP5,1,Pin_1*%
%TO.N,GND*%
X167000000Y-71500000D03*
%TD*%
D21*
%TO.P,J5,1,Pin_1*%
%TO.N,/D10*%
X134350000Y-73255000D03*
D22*
%TO.P,J5,2,Pin_2*%
%TO.N,/D11*%
X131810000Y-73255000D03*
%TO.P,J5,3,Pin_3*%
%TO.N,GND*%
X129270000Y-73255000D03*
%TO.P,J5,4,Pin_4*%
%TO.N,+5V*%
X126730000Y-73255000D03*
%TO.P,J5,5*%
%TO.N,N/C*%
X124190000Y-73255000D03*
%TO.P,J5,6*%
X121650000Y-73255000D03*
%TD*%
D17*
%TO.P,R6,1,1*%
%TO.N,Net-(D6-A)*%
X148000000Y-59810000D03*
%TO.P,R6,2,2*%
%TO.N,/D7*%
X148000000Y-52190000D03*
%TD*%
%TO.P,R1,1,1*%
%TO.N,Net-(D1-A)*%
X163000000Y-59810000D03*
%TO.P,R1,2,2*%
%TO.N,/D2*%
X163000000Y-52190000D03*
%TD*%
D14*
%TO.P,TP3,1,Pin_1*%
%TO.N,Net-(D5-A)*%
X167000000Y-69000000D03*
%TD*%
D13*
%TO.P,D4,1,K*%
%TO.N,GND*%
X145500000Y-65540000D03*
D12*
%TO.P,D4,2,A*%
%TO.N,Net-(D4-A)*%
X145500000Y-63000000D03*
%TD*%
D13*
%TO.P,D5,1,K*%
%TO.N,GND*%
X173500000Y-68275000D03*
D12*
%TO.P,D5,2,A*%
%TO.N,Net-(D5-A)*%
X173500000Y-65735000D03*
%TD*%
D23*
%TO.P,U3,1,NC*%
%TO.N,GND*%
X166810000Y-81350000D03*
D24*
%TO.P,U3,2,Vs*%
%TO.N,/A3*%
X164270000Y-81350000D03*
%TO.P,U3,3,OUT*%
%TO.N,+5V*%
X161730000Y-81350000D03*
%TO.P,U3,4,GND*%
%TO.N,unconnected-(U3-GND-Pad4)*%
X159190000Y-81350000D03*
%TO.P,U3,5*%
%TO.N,N/C*%
X159190000Y-94650000D03*
%TO.P,U3,6*%
X161730000Y-94650000D03*
%TO.P,U3,7*%
X164270000Y-94650000D03*
%TO.P,U3,8*%
X166810000Y-94650000D03*
%TD*%
D17*
%TO.P,R3,1,1*%
%TO.N,Net-(D3-A)*%
X157000000Y-59810000D03*
%TO.P,R3,2,2*%
%TO.N,/D4*%
X157000000Y-52190000D03*
%TD*%
%TA.AperFunction,Conductor*%
%TO.N,GND*%
G36*
X142714075Y-97267007D02*
G01*
X142680000Y-97394174D01*
X142680000Y-97525826D01*
X142714075Y-97652993D01*
X142746988Y-97710000D01*
X141073012Y-97710000D01*
X141105925Y-97652993D01*
X141140000Y-97525826D01*
X141140000Y-97394174D01*
X141105925Y-97267007D01*
X141073012Y-97210000D01*
X142746988Y-97210000D01*
X142714075Y-97267007D01*
G37*
%TD.AperFunction*%
%TA.AperFunction,Conductor*%
G36*
X168943039Y-46019685D02*
G01*
X168988794Y-46072489D01*
X169000000Y-46124000D01*
X169000000Y-100376000D01*
X168980315Y-100443039D01*
X168927511Y-100488794D01*
X168876000Y-100500000D01*
X99124000Y-100500000D01*
X99056961Y-100480315D01*
X99011206Y-100427511D01*
X99000000Y-100376000D01*
X99000000Y-99320489D01*
X99924499Y-99320489D01*
X99956683Y-99482284D01*
X99956686Y-99482294D01*
X100019814Y-99634700D01*
X100019815Y-99634702D01*
X100111471Y-99771874D01*
X100111474Y-99771878D01*
X100228121Y-99888525D01*
X100228125Y-99888528D01*
X100365295Y-99980183D01*
X100365296Y-99980183D01*
X100365297Y-99980184D01*
X100365299Y-99980185D01*
X100517705Y-100043313D01*
X100517710Y-100043315D01*
X100517714Y-100043315D01*
X100517715Y-100043316D01*
X100679510Y-100075500D01*
X100679513Y-100075500D01*
X165360489Y-100075500D01*
X165469342Y-100053847D01*
X165522290Y-100043315D01*
X165674705Y-99980183D01*
X165811875Y-99888528D01*
X165928528Y-99771875D01*
X166020183Y-99634705D01*
X166083315Y-99482290D01*
X166105267Y-99371930D01*
X166115500Y-99320489D01*
X166115500Y-98812635D01*
X166135185Y-98745596D01*
X166151819Y-98724954D01*
X167350947Y-97525826D01*
X168644006Y-96232768D01*
X168655500Y-96205019D01*
X168655500Y-96174982D01*
X168655500Y-61884982D01*
X168644006Y-61857233D01*
X168622767Y-61835994D01*
X168595018Y-61824500D01*
X168564982Y-61824500D01*
X168537231Y-61835995D01*
X168515995Y-61857231D01*
X168504500Y-61884982D01*
X168504500Y-68878564D01*
X168484815Y-68945603D01*
X168432011Y-68991358D01*
X168362853Y-69001302D01*
X168299297Y-68972277D01*
X168261523Y-68913499D01*
X168258027Y-68897962D01*
X168227512Y-68705299D01*
X168166296Y-68516898D01*
X168076365Y-68340401D01*
X167959930Y-68180142D01*
X167819858Y-68040070D01*
X167659598Y-67923634D01*
X167483101Y-67833703D01*
X167294700Y-67772487D01*
X167099051Y-67741500D01*
X167099046Y-67741500D01*
X166900954Y-67741500D01*
X166900949Y-67741500D01*
X166705299Y-67772487D01*
X166516898Y-67833703D01*
X166340401Y-67923634D01*
X166248967Y-67990065D01*
X166180142Y-68040070D01*
X166180140Y-68040072D01*
X166180139Y-68040072D01*
X166040072Y-68180139D01*
X166040072Y-68180140D01*
X166040070Y-68180142D01*
X165990065Y-68248967D01*
X165923634Y-68340401D01*
X165833703Y-68516898D01*
X165772487Y-68705299D01*
X165741500Y-68900948D01*
X165741500Y-69099051D01*
X165772487Y-69294700D01*
X165833703Y-69483101D01*
X165923634Y-69659598D01*
X166040070Y-69819858D01*
X166180142Y-69959930D01*
X166340402Y-70076366D01*
X166453255Y-70133867D01*
X166473700Y-70144285D01*
X166524496Y-70192260D01*
X166541291Y-70260081D01*
X166518753Y-70326216D01*
X166473700Y-70365255D01*
X166344859Y-70430902D01*
X166309873Y-70456320D01*
X166309872Y-70456320D01*
X167000000Y-71146446D01*
X167000001Y-71146446D01*
X167690125Y-70456320D01*
X167690125Y-70456319D01*
X167655145Y-70430905D01*
X167526299Y-70365255D01*
X167475503Y-70317280D01*
X167458708Y-70249459D01*
X167481246Y-70183324D01*
X167526297Y-70144286D01*
X167659598Y-70076366D01*
X167819858Y-69959930D01*
X167959930Y-69819858D01*
X168076366Y-69659598D01*
X168166298Y-69483097D01*
X168227512Y-69294700D01*
X168258027Y-69102037D01*
X168287956Y-69038902D01*
X168347268Y-69001971D01*
X168417130Y-69002969D01*
X168475363Y-69041579D01*
X168503477Y-69105542D01*
X168504500Y-69121435D01*
X168504500Y-76378564D01*
X168484815Y-76445603D01*
X168432011Y-76491358D01*
X168362853Y-76501302D01*
X168299297Y-76472277D01*
X168261523Y-76413499D01*
X168258027Y-76397962D01*
X168227512Y-76205299D01*
X168187586Y-76082421D01*
X168166298Y-76016903D01*
X168166296Y-76016900D01*
X168166296Y-76016898D01*
X168085288Y-75857913D01*
X168076366Y-75840402D01*
X167959930Y-75680142D01*
X167819858Y-75540070D01*
X167659598Y-75423634D01*
X167659594Y-75423632D01*
X167526299Y-75355714D01*
X167475503Y-75307739D01*
X167458708Y-75239918D01*
X167481246Y-75173783D01*
X167526300Y-75134744D01*
X167655141Y-75069097D01*
X167690125Y-75043678D01*
X167690126Y-75043678D01*
X167000001Y-74353553D01*
X167000000Y-74353553D01*
X166309873Y-75043677D01*
X166309873Y-75043678D01*
X166344858Y-75069096D01*
X166473700Y-75134744D01*
X166524496Y-75182718D01*
X166541291Y-75250539D01*
X166518754Y-75316674D01*
X166473701Y-75355713D01*
X166340404Y-75423632D01*
X166260272Y-75481852D01*
X166180142Y-75540070D01*
X166180140Y-75540072D01*
X166180139Y-75540072D01*
X166040072Y-75680139D01*
X166040072Y-75680140D01*
X166040070Y-75680142D01*
X165990065Y-75748967D01*
X165923634Y-75840401D01*
X165833703Y-76016898D01*
X165772488Y-76205298D01*
X165766648Y-76242170D01*
X165736718Y-76305304D01*
X165677406Y-76342235D01*
X165607544Y-76341237D01*
X165549311Y-76302626D01*
X165543857Y-76295657D01*
X165478208Y-76205300D01*
X165459930Y-76180142D01*
X165319858Y-76040070D01*
X165159598Y-75923634D01*
X164983101Y-75833703D01*
X164794700Y-75772487D01*
X164599051Y-75741500D01*
X164599046Y-75741500D01*
X164400954Y-75741500D01*
X164400949Y-75741500D01*
X164205299Y-75772487D01*
X164016898Y-75833703D01*
X163840401Y-75923634D01*
X163770973Y-75974077D01*
X163680142Y-76040070D01*
X163680140Y-76040072D01*
X163680139Y-76040072D01*
X163540072Y-76180139D01*
X163540072Y-76180140D01*
X163540070Y-76180142D01*
X163521792Y-76205300D01*
X163423634Y-76340401D01*
X163333703Y-76516898D01*
X163272487Y-76705299D01*
X163241500Y-76900948D01*
X163241500Y-77099051D01*
X163272487Y-77294700D01*
X163333703Y-77483101D01*
X163391807Y-77597134D01*
X163404703Y-77665803D01*
X163378427Y-77730544D01*
X163321321Y-77770801D01*
X163261924Y-77775902D01*
X163098382Y-77750000D01*
X162901618Y-77750000D01*
X162707294Y-77780778D01*
X162520161Y-77841582D01*
X162344863Y-77930899D01*
X162344859Y-77930902D01*
X162309873Y-77956320D01*
X162309872Y-77956320D01*
X163003554Y-78650000D01*
X162953922Y-78650000D01*
X162864905Y-78673852D01*
X162785095Y-78719930D01*
X162719930Y-78785095D01*
X162673852Y-78864905D01*
X162650000Y-78953922D01*
X162650000Y-79046078D01*
X162673852Y-79135095D01*
X162719930Y-79214905D01*
X162785095Y-79280070D01*
X162864905Y-79326148D01*
X162953922Y-79350000D01*
X163046078Y-79350000D01*
X163135095Y-79326148D01*
X163214905Y-79280070D01*
X163280070Y-79214905D01*
X163326148Y-79135095D01*
X163350000Y-79046078D01*
X163350000Y-78996446D01*
X164043678Y-79690126D01*
X164043678Y-79690125D01*
X164069095Y-79655143D01*
X164158418Y-79479835D01*
X164219221Y-79292705D01*
X164250000Y-79098382D01*
X164250000Y-78901617D01*
X164219221Y-78707294D01*
X164158418Y-78520164D01*
X164102584Y-78410583D01*
X164089688Y-78341914D01*
X164115964Y-78277173D01*
X164173071Y-78236916D01*
X164232467Y-78231815D01*
X164400949Y-78258500D01*
X164400954Y-78258500D01*
X164599051Y-78258500D01*
X164794700Y-78227512D01*
X164865043Y-78204656D01*
X164983097Y-78166298D01*
X165159598Y-78076366D01*
X165319858Y-77959930D01*
X165459930Y-77819858D01*
X165576366Y-77659598D01*
X165666298Y-77483097D01*
X165727512Y-77294700D01*
X165733351Y-77257828D01*
X165763279Y-77194697D01*
X165822589Y-77157765D01*
X165892452Y-77158761D01*
X165950685Y-77197370D01*
X165956142Y-77204342D01*
X165983139Y-77241500D01*
X166040070Y-77319858D01*
X166180142Y-77459930D01*
X166340402Y-77576366D01*
X166419369Y-77616601D01*
X166464338Y-77639515D01*
X166515134Y-77687490D01*
X166531929Y-77755311D01*
X166509391Y-77821446D01*
X166464338Y-77860485D01*
X166340401Y-77923634D01*
X166290449Y-77959927D01*
X166180142Y-78040070D01*
X166180140Y-78040072D01*
X166180139Y-78040072D01*
X166040072Y-78180139D01*
X166040072Y-78180140D01*
X166040070Y-78180142D01*
X166021792Y-78205300D01*
X165923634Y-78340401D01*
X165833703Y-78516898D01*
X165772487Y-78705299D01*
X165741500Y-78900948D01*
X165741500Y-79099051D01*
X165772487Y-79294700D01*
X165833703Y-79483101D01*
X165881225Y-79576366D01*
X165923634Y-79659598D01*
X166040070Y-79819858D01*
X166180142Y-79959930D01*
X166340402Y-80076366D01*
X166348545Y-80080515D01*
X166399341Y-80128490D01*
X166416136Y-80196311D01*
X166393598Y-80262446D01*
X166338883Y-80305897D01*
X166292250Y-80315000D01*
X166227155Y-80315000D01*
X166167627Y-80321401D01*
X166167620Y-80321403D01*
X166032913Y-80371645D01*
X166032906Y-80371649D01*
X165917812Y-80457809D01*
X165917809Y-80457812D01*
X165831649Y-80572906D01*
X165831645Y-80572913D01*
X165781403Y-80707620D01*
X165781401Y-80707627D01*
X165775000Y-80767155D01*
X165775000Y-81100000D01*
X166550884Y-81100000D01*
X166521929Y-81128955D01*
X166474534Y-81211045D01*
X166450000Y-81302605D01*
X166450000Y-81397395D01*
X166474534Y-81488955D01*
X166521929Y-81571045D01*
X166550884Y-81600000D01*
X165775000Y-81600000D01*
X165775000Y-81932844D01*
X165781401Y-81992372D01*
X165781403Y-81992379D01*
X165831645Y-82127086D01*
X165831649Y-82127093D01*
X165917809Y-82242187D01*
X165917812Y-82242190D01*
X166032906Y-82328350D01*
X166032913Y-82328354D01*
X166167620Y-82378596D01*
X166167627Y-82378598D01*
X166227155Y-82384999D01*
X166227172Y-82385000D01*
X166560000Y-82385000D01*
X166560000Y-81609116D01*
X166588955Y-81638071D01*
X166671045Y-81685466D01*
X166762605Y-81710000D01*
X166857395Y-81710000D01*
X166948955Y-81685466D01*
X167031045Y-81638071D01*
X167060000Y-81609116D01*
X167060000Y-82385000D01*
X167392828Y-82385000D01*
X167392844Y-82384999D01*
X167452372Y-82378598D01*
X167452379Y-82378596D01*
X167587086Y-82328354D01*
X167587093Y-82328350D01*
X167702187Y-82242190D01*
X167702190Y-82242187D01*
X167788350Y-82127093D01*
X167788354Y-82127086D01*
X167838596Y-81992379D01*
X167838598Y-81992372D01*
X167844999Y-81932844D01*
X167845000Y-81932827D01*
X167845000Y-81600000D01*
X167069116Y-81600000D01*
X167098071Y-81571045D01*
X167145466Y-81488955D01*
X167170000Y-81397395D01*
X167170000Y-81302605D01*
X167145466Y-81211045D01*
X167098071Y-81128955D01*
X167069116Y-81100000D01*
X167845000Y-81100000D01*
X167845000Y-80767172D01*
X167844999Y-80767155D01*
X167838598Y-80707627D01*
X167838596Y-80707620D01*
X167788354Y-80572913D01*
X167788350Y-80572906D01*
X167702190Y-80457812D01*
X167702187Y-80457809D01*
X167587093Y-80371649D01*
X167587083Y-80371644D01*
X167558686Y-80361052D01*
X167502753Y-80319180D01*
X167478337Y-80253716D01*
X167493190Y-80185443D01*
X167542595Y-80136038D01*
X167545708Y-80134395D01*
X167659598Y-80076366D01*
X167819858Y-79959930D01*
X167959930Y-79819858D01*
X168076366Y-79659598D01*
X168166298Y-79483097D01*
X168227512Y-79294700D01*
X168252791Y-79135095D01*
X168256500Y-79111678D01*
X168256500Y-79111673D01*
X168258500Y-79099046D01*
X168258500Y-78900954D01*
X168256500Y-78888326D01*
X168256500Y-78888320D01*
X168227512Y-78705299D01*
X168199110Y-78617888D01*
X168166298Y-78516903D01*
X168166296Y-78516900D01*
X168166296Y-78516898D01*
X168078639Y-78344863D01*
X168076366Y-78340402D01*
X167959930Y-78180142D01*
X167819858Y-78040070D01*
X167659598Y-77923634D01*
X167535660Y-77860484D01*
X167484865Y-77812510D01*
X167468070Y-77744689D01*
X167490607Y-77678554D01*
X167535661Y-77639515D01*
X167659598Y-77576366D01*
X167819858Y-77459930D01*
X167959930Y-77319858D01*
X168076366Y-77159598D01*
X168166298Y-76983097D01*
X168227512Y-76794700D01*
X168238758Y-76723694D01*
X168258027Y-76602037D01*
X168287956Y-76538902D01*
X168347268Y-76501971D01*
X168417130Y-76502969D01*
X168475363Y-76541579D01*
X168503477Y-76605542D01*
X168504500Y-76621435D01*
X168504500Y-96107364D01*
X168484815Y-96174403D01*
X168468181Y-96195045D01*
X165997233Y-98665994D01*
X165975995Y-98687231D01*
X165964500Y-98714982D01*
X165964500Y-99231907D01*
X165963903Y-99244061D01*
X165963903Y-99244062D01*
X165952505Y-99359778D01*
X165947763Y-99383618D01*
X165917832Y-99482290D01*
X165915789Y-99489024D01*
X165906486Y-99511482D01*
X165854561Y-99608627D01*
X165841056Y-99628839D01*
X165771176Y-99713988D01*
X165753988Y-99731176D01*
X165668839Y-99801056D01*
X165648627Y-99814561D01*
X165551482Y-99866486D01*
X165529028Y-99875787D01*
X165487038Y-99888525D01*
X165423618Y-99907763D01*
X165399778Y-99912505D01*
X165291162Y-99923203D01*
X165284060Y-99923903D01*
X165271907Y-99924500D01*
X100768093Y-99924500D01*
X100755939Y-99923903D01*
X100747995Y-99923120D01*
X100640221Y-99912505D01*
X100616381Y-99907763D01*
X100599445Y-99902625D01*
X100510968Y-99875786D01*
X100488517Y-99866486D01*
X100391372Y-99814561D01*
X100371160Y-99801056D01*
X100286011Y-99731176D01*
X100268823Y-99713988D01*
X100198943Y-99628839D01*
X100185438Y-99608627D01*
X100133510Y-99511476D01*
X100124215Y-99489037D01*
X100092234Y-99383612D01*
X100087494Y-99359777D01*
X100076097Y-99244061D01*
X100075500Y-99231907D01*
X100075500Y-99213469D01*
X100046661Y-99173776D01*
X100000000Y-99158615D01*
X99953338Y-99173776D01*
X99924500Y-99213469D01*
X99924500Y-99238000D01*
X99924500Y-99320487D01*
X99924500Y-99320489D01*
X99924499Y-99320489D01*
X99000000Y-99320489D01*
X99000000Y-96561345D01*
X126581500Y-96561345D01*
X126581500Y-98358654D01*
X126588011Y-98419202D01*
X126588011Y-98419204D01*
X126639111Y-98556204D01*
X126726739Y-98673261D01*
X126843796Y-98760889D01*
X126980799Y-98811989D01*
X127008050Y-98814918D01*
X127041345Y-98818499D01*
X127041362Y-98818500D01*
X128838638Y-98818500D01*
X128838654Y-98818499D01*
X128865692Y-98815591D01*
X128899201Y-98811989D01*
X129036204Y-98760889D01*
X129153261Y-98673261D01*
X129240889Y-98556204D01*
X129285957Y-98435371D01*
X129327827Y-98379442D01*
X129393291Y-98355025D01*
X129461564Y-98369877D01*
X129489818Y-98391028D01*
X129594996Y-98496206D01*
X129767991Y-98621894D01*
X129854542Y-98665994D01*
X129958516Y-98718972D01*
X129958519Y-98718973D01*
X130040458Y-98745596D01*
X130161884Y-98785049D01*
X130373084Y-98818500D01*
X130373085Y-98818500D01*
X130586915Y-98818500D01*
X130586916Y-98818500D01*
X130798116Y-98785049D01*
X131001483Y-98718972D01*
X131192009Y-98621894D01*
X131365004Y-98496206D01*
X131516206Y-98345004D01*
X131641894Y-98172009D01*
X131641896Y-98172004D01*
X131644270Y-98168132D01*
X131696080Y-98121254D01*
X131765009Y-98109829D01*
X131829173Y-98137483D01*
X131855730Y-98168132D01*
X131858103Y-98172005D01*
X131858105Y-98172008D01*
X131858106Y-98172009D01*
X131983794Y-98345004D01*
X132134996Y-98496206D01*
X132307991Y-98621894D01*
X132394542Y-98665994D01*
X132498516Y-98718972D01*
X132498519Y-98718973D01*
X132580458Y-98745596D01*
X132701884Y-98785049D01*
X132913084Y-98818500D01*
X132913085Y-98818500D01*
X133126915Y-98818500D01*
X133126916Y-98818500D01*
X133338116Y-98785049D01*
X133541483Y-98718972D01*
X133732009Y-98621894D01*
X133905004Y-98496206D01*
X134056206Y-98345004D01*
X134181894Y-98172009D01*
X134181896Y-98172004D01*
X134184270Y-98168132D01*
X134236080Y-98121254D01*
X134305009Y-98109829D01*
X134369173Y-98137483D01*
X134395730Y-98168132D01*
X134398103Y-98172005D01*
X134398105Y-98172008D01*
X134398106Y-98172009D01*
X134523794Y-98345004D01*
X134674996Y-98496206D01*
X134847991Y-98621894D01*
X134934542Y-98665994D01*
X135038516Y-98718972D01*
X135038519Y-98718973D01*
X135120458Y-98745596D01*
X135241884Y-98785049D01*
X135453084Y-98818500D01*
X135453085Y-98818500D01*
X135666915Y-98818500D01*
X135666916Y-98818500D01*
X135878116Y-98785049D01*
X136081483Y-98718972D01*
X136272009Y-98621894D01*
X136445004Y-98496206D01*
X136596206Y-98345004D01*
X136721894Y-98172009D01*
X136721896Y-98172004D01*
X136724270Y-98168132D01*
X136776080Y-98121254D01*
X136845009Y-98109829D01*
X136909173Y-98137483D01*
X136935730Y-98168132D01*
X136938103Y-98172005D01*
X136938105Y-98172008D01*
X136938106Y-98172009D01*
X137063794Y-98345004D01*
X137214996Y-98496206D01*
X137387991Y-98621894D01*
X137474542Y-98665994D01*
X137578516Y-98718972D01*
X137578519Y-98718973D01*
X137660458Y-98745596D01*
X137781884Y-98785049D01*
X137993084Y-98818500D01*
X137993085Y-98818500D01*
X138206915Y-98818500D01*
X138206916Y-98818500D01*
X138418116Y-98785049D01*
X138621483Y-98718972D01*
X138812009Y-98621894D01*
X138985004Y-98496206D01*
X139136206Y-98345004D01*
X139261894Y-98172009D01*
X139264283Y-98167319D01*
X139312254Y-98116522D01*
X139380074Y-98099724D01*
X139446210Y-98122258D01*
X139482201Y-98163788D01*
X139482832Y-98163402D01*
X139485164Y-98167207D01*
X139485251Y-98167308D01*
X139485376Y-98167554D01*
X139610272Y-98339459D01*
X139610276Y-98339464D01*
X139760535Y-98489723D01*
X139760540Y-98489727D01*
X139932442Y-98614620D01*
X140121782Y-98711095D01*
X140323871Y-98776757D01*
X140390000Y-98787231D01*
X140390000Y-97893012D01*
X140447007Y-97925925D01*
X140574174Y-97960000D01*
X140705826Y-97960000D01*
X140832993Y-97925925D01*
X140890000Y-97893012D01*
X140890000Y-98787230D01*
X140956126Y-98776757D01*
X140956129Y-98776757D01*
X141158217Y-98711095D01*
X141347557Y-98614620D01*
X141519459Y-98489727D01*
X141519464Y-98489723D01*
X141669723Y-98339464D01*
X141669727Y-98339459D01*
X141794620Y-98167558D01*
X141799514Y-98157954D01*
X141847488Y-98107157D01*
X141915308Y-98090361D01*
X141981444Y-98112897D01*
X142020486Y-98157954D01*
X142025379Y-98167558D01*
X142150272Y-98339459D01*
X142150276Y-98339464D01*
X142300535Y-98489723D01*
X142300540Y-98489727D01*
X142472442Y-98614620D01*
X142661782Y-98711095D01*
X142863871Y-98776757D01*
X142930000Y-98787231D01*
X142930000Y-97893012D01*
X142987007Y-97925925D01*
X143114174Y-97960000D01*
X143245826Y-97960000D01*
X143372993Y-97925925D01*
X143430000Y-97893012D01*
X143430000Y-98787230D01*
X143496126Y-98776757D01*
X143496129Y-98776757D01*
X143698217Y-98711095D01*
X143887557Y-98614620D01*
X144059459Y-98489727D01*
X144059464Y-98489723D01*
X144209723Y-98339464D01*
X144209727Y-98339459D01*
X144334619Y-98167560D01*
X144334738Y-98167327D01*
X144334808Y-98167252D01*
X144337168Y-98163402D01*
X144337976Y-98163897D01*
X144382707Y-98116526D01*
X144450526Y-98099723D01*
X144516663Y-98122254D01*
X144555712Y-98167311D01*
X144558105Y-98172008D01*
X144600002Y-98229674D01*
X144683794Y-98345004D01*
X144834996Y-98496206D01*
X145007991Y-98621894D01*
X145094542Y-98665994D01*
X145198516Y-98718972D01*
X145198519Y-98718973D01*
X145280458Y-98745596D01*
X145401884Y-98785049D01*
X145613084Y-98818500D01*
X145613085Y-98818500D01*
X145826915Y-98818500D01*
X145826916Y-98818500D01*
X146038116Y-98785049D01*
X146241483Y-98718972D01*
X146432009Y-98621894D01*
X146605004Y-98496206D01*
X146756206Y-98345004D01*
X146881894Y-98172009D01*
X146978972Y-97981483D01*
X147045049Y-97778116D01*
X147078500Y-97566916D01*
X147078500Y-97353084D01*
X147045049Y-97141884D01*
X146978972Y-96938517D01*
X146978972Y-96938516D01*
X146923495Y-96829638D01*
X146881894Y-96747991D01*
X146756206Y-96574996D01*
X146742555Y-96561345D01*
X149441500Y-96561345D01*
X149441500Y-98358654D01*
X149448011Y-98419202D01*
X149448011Y-98419204D01*
X149499111Y-98556204D01*
X149586739Y-98673261D01*
X149703796Y-98760889D01*
X149840799Y-98811989D01*
X149868050Y-98814918D01*
X149901345Y-98818499D01*
X149901362Y-98818500D01*
X151698638Y-98818500D01*
X151698654Y-98818499D01*
X151725692Y-98815591D01*
X151759201Y-98811989D01*
X151896204Y-98760889D01*
X152013261Y-98673261D01*
X152100889Y-98556204D01*
X152145957Y-98435371D01*
X152187827Y-98379442D01*
X152253291Y-98355025D01*
X152321564Y-98369877D01*
X152349818Y-98391028D01*
X152454996Y-98496206D01*
X152627991Y-98621894D01*
X152714542Y-98665994D01*
X152818516Y-98718972D01*
X152818519Y-98718973D01*
X152900458Y-98745596D01*
X153021884Y-98785049D01*
X153233084Y-98818500D01*
X153233085Y-98818500D01*
X153446915Y-98818500D01*
X153446916Y-98818500D01*
X153658116Y-98785049D01*
X153861483Y-98718972D01*
X154052009Y-98621894D01*
X154225004Y-98496206D01*
X154376206Y-98345004D01*
X154501894Y-98172009D01*
X154501896Y-98172004D01*
X154504270Y-98168132D01*
X154556080Y-98121254D01*
X154625009Y-98109829D01*
X154689173Y-98137483D01*
X154715730Y-98168132D01*
X154718103Y-98172005D01*
X154718105Y-98172008D01*
X154718106Y-98172009D01*
X154843794Y-98345004D01*
X154994996Y-98496206D01*
X155167991Y-98621894D01*
X155254542Y-98665994D01*
X155358516Y-98718972D01*
X155358519Y-98718973D01*
X155440458Y-98745596D01*
X155561884Y-98785049D01*
X155773084Y-98818500D01*
X155773085Y-98818500D01*
X155986915Y-98818500D01*
X155986916Y-98818500D01*
X156198116Y-98785049D01*
X156401483Y-98718972D01*
X156592009Y-98621894D01*
X156765004Y-98496206D01*
X156916206Y-98345004D01*
X157041894Y-98172009D01*
X157041896Y-98172004D01*
X157044270Y-98168132D01*
X157096080Y-98121254D01*
X157165009Y-98109829D01*
X157229173Y-98137483D01*
X157255730Y-98168132D01*
X157258103Y-98172005D01*
X157258105Y-98172008D01*
X157258106Y-98172009D01*
X157383794Y-98345004D01*
X157534996Y-98496206D01*
X157707991Y-98621894D01*
X157794542Y-98665994D01*
X157898516Y-98718972D01*
X157898519Y-98718973D01*
X157980458Y-98745596D01*
X158101884Y-98785049D01*
X158313084Y-98818500D01*
X158313085Y-98818500D01*
X158526915Y-98818500D01*
X158526916Y-98818500D01*
X158738116Y-98785049D01*
X158941483Y-98718972D01*
X159132009Y-98621894D01*
X159305004Y-98496206D01*
X159456206Y-98345004D01*
X159581894Y-98172009D01*
X159581896Y-98172004D01*
X159584270Y-98168132D01*
X159636080Y-98121254D01*
X159705009Y-98109829D01*
X159769173Y-98137483D01*
X159795730Y-98168132D01*
X159798103Y-98172005D01*
X159798105Y-98172008D01*
X159798106Y-98172009D01*
X159923794Y-98345004D01*
X160074996Y-98496206D01*
X160247991Y-98621894D01*
X160334542Y-98665994D01*
X160438516Y-98718972D01*
X160438519Y-98718973D01*
X160520458Y-98745596D01*
X160641884Y-98785049D01*
X160853084Y-98818500D01*
X160853085Y-98818500D01*
X161066915Y-98818500D01*
X161066916Y-98818500D01*
X161278116Y-98785049D01*
X161481483Y-98718972D01*
X161672009Y-98621894D01*
X161845004Y-98496206D01*
X161996206Y-98345004D01*
X162121894Y-98172009D01*
X162121896Y-98172004D01*
X162124270Y-98168132D01*
X162176080Y-98121254D01*
X162245009Y-98109829D01*
X162309173Y-98137483D01*
X162335730Y-98168132D01*
X162338103Y-98172005D01*
X162338105Y-98172008D01*
X162338106Y-98172009D01*
X162463794Y-98345004D01*
X162614996Y-98496206D01*
X162787991Y-98621894D01*
X162874542Y-98665994D01*
X162978516Y-98718972D01*
X162978519Y-98718973D01*
X163060458Y-98745596D01*
X163181884Y-98785049D01*
X163393084Y-98818500D01*
X163393085Y-98818500D01*
X163606915Y-98818500D01*
X163606916Y-98818500D01*
X163818116Y-98785049D01*
X164021483Y-98718972D01*
X164212009Y-98621894D01*
X164385004Y-98496206D01*
X164536206Y-98345004D01*
X164661894Y-98172009D01*
X164758972Y-97981483D01*
X164825049Y-97778116D01*
X164858500Y-97566916D01*
X164858500Y-97353084D01*
X164825049Y-97141884D01*
X164758972Y-96938517D01*
X164758972Y-96938516D01*
X164703495Y-96829638D01*
X164661894Y-96747991D01*
X164536206Y-96574996D01*
X164385004Y-96423794D01*
X164212009Y-96298106D01*
X164021483Y-96201027D01*
X164021480Y-96201026D01*
X163818117Y-96134951D01*
X163712516Y-96118225D01*
X163606916Y-96101500D01*
X163393084Y-96101500D01*
X163322684Y-96112650D01*
X163181882Y-96134951D01*
X162978519Y-96201026D01*
X162978516Y-96201027D01*
X162787990Y-96298106D01*
X162614993Y-96423796D01*
X162463796Y-96574993D01*
X162338105Y-96747991D01*
X162335727Y-96751873D01*
X162283914Y-96798748D01*
X162214984Y-96810169D01*
X162150822Y-96782512D01*
X162124273Y-96751873D01*
X162121894Y-96747991D01*
X162121891Y-96747987D01*
X161996206Y-96574996D01*
X161845004Y-96423794D01*
X161672009Y-96298106D01*
X161481483Y-96201027D01*
X161481480Y-96201026D01*
X161278117Y-96134951D01*
X161172516Y-96118225D01*
X161066916Y-96101500D01*
X160853084Y-96101500D01*
X160782684Y-96112650D01*
X160641882Y-96134951D01*
X160438519Y-96201026D01*
X160438516Y-96201027D01*
X160247990Y-96298106D01*
X160074993Y-96423796D01*
X159923796Y-96574993D01*
X159798105Y-96747991D01*
X159795727Y-96751873D01*
X159743914Y-96798748D01*
X159674984Y-96810169D01*
X159610822Y-96782512D01*
X159584273Y-96751873D01*
X159581894Y-96747991D01*
X159581891Y-96747987D01*
X159456206Y-96574996D01*
X159305004Y-96423794D01*
X159132009Y-96298106D01*
X158941483Y-96201027D01*
X158941480Y-96201026D01*
X158738117Y-96134951D01*
X158632516Y-96118225D01*
X158526916Y-96101500D01*
X158313084Y-96101500D01*
X158242684Y-96112650D01*
X158101882Y-96134951D01*
X157898519Y-96201026D01*
X157898516Y-96201027D01*
X157707990Y-96298106D01*
X157534993Y-96423796D01*
X157383796Y-96574993D01*
X157258105Y-96747991D01*
X157255727Y-96751873D01*
X157203914Y-96798748D01*
X157134984Y-96810169D01*
X157070822Y-96782512D01*
X157044273Y-96751873D01*
X157041894Y-96747991D01*
X157041891Y-96747987D01*
X156916206Y-96574996D01*
X156765004Y-96423794D01*
X156592009Y-96298106D01*
X156401483Y-96201027D01*
X156401480Y-96201026D01*
X156198117Y-96134951D01*
X156092516Y-96118225D01*
X155986916Y-96101500D01*
X155773084Y-96101500D01*
X155702684Y-96112650D01*
X155561882Y-96134951D01*
X155358519Y-96201026D01*
X155358516Y-96201027D01*
X155167990Y-96298106D01*
X154994993Y-96423796D01*
X154843796Y-96574993D01*
X154718105Y-96747991D01*
X154715727Y-96751873D01*
X154663914Y-96798748D01*
X154594984Y-96810169D01*
X154530822Y-96782512D01*
X154504273Y-96751873D01*
X154501894Y-96747991D01*
X154501891Y-96747987D01*
X154376206Y-96574996D01*
X154225004Y-96423794D01*
X154052009Y-96298106D01*
X153861483Y-96201027D01*
X153861480Y-96201026D01*
X153658117Y-96134951D01*
X153552516Y-96118225D01*
X153446916Y-96101500D01*
X153233084Y-96101500D01*
X153162684Y-96112650D01*
X153021882Y-96134951D01*
X152818519Y-96201026D01*
X152818516Y-96201027D01*
X152627990Y-96298106D01*
X152454997Y-96423793D01*
X152349818Y-96528972D01*
X152288495Y-96562456D01*
X152218803Y-96557472D01*
X152162870Y-96515600D01*
X152145958Y-96484629D01*
X152100889Y-96363796D01*
X152013261Y-96246739D01*
X151896204Y-96159111D01*
X151895172Y-96158726D01*
X151759203Y-96108011D01*
X151698654Y-96101500D01*
X151698638Y-96101500D01*
X149901362Y-96101500D01*
X149901345Y-96101500D01*
X149840797Y-96108011D01*
X149840795Y-96108011D01*
X149703795Y-96159111D01*
X149586739Y-96246739D01*
X149499111Y-96363795D01*
X149448011Y-96500795D01*
X149448011Y-96500797D01*
X149441500Y-96561345D01*
X146742555Y-96561345D01*
X146605004Y-96423794D01*
X146432009Y-96298106D01*
X146241483Y-96201027D01*
X146241480Y-96201026D01*
X146038117Y-96134951D01*
X145932516Y-96118225D01*
X145826916Y-96101500D01*
X145613084Y-96101500D01*
X145542684Y-96112650D01*
X145401882Y-96134951D01*
X145198519Y-96201026D01*
X145198516Y-96201027D01*
X145007990Y-96298106D01*
X144834993Y-96423796D01*
X144683796Y-96574993D01*
X144558103Y-96747994D01*
X144555709Y-96752693D01*
X144507731Y-96803485D01*
X144439908Y-96820275D01*
X144373775Y-96797732D01*
X144337800Y-96756210D01*
X144337168Y-96756598D01*
X144334829Y-96752781D01*
X144334743Y-96752682D01*
X144334620Y-96752441D01*
X144209727Y-96580540D01*
X144209723Y-96580535D01*
X144059464Y-96430276D01*
X144059459Y-96430272D01*
X143887557Y-96305379D01*
X143698215Y-96208903D01*
X143496124Y-96143241D01*
X143430000Y-96132768D01*
X143430000Y-97026988D01*
X143372993Y-96994075D01*
X143245826Y-96960000D01*
X143114174Y-96960000D01*
X142987007Y-96994075D01*
X142930000Y-97026988D01*
X142930000Y-96132768D01*
X142929999Y-96132768D01*
X142863875Y-96143241D01*
X142661784Y-96208903D01*
X142472442Y-96305379D01*
X142300540Y-96430272D01*
X142300535Y-96430276D01*
X142150276Y-96580535D01*
X142150272Y-96580540D01*
X142025377Y-96752444D01*
X142020484Y-96762048D01*
X141972509Y-96812844D01*
X141904688Y-96829638D01*
X141838553Y-96807100D01*
X141799516Y-96762048D01*
X141794622Y-96752444D01*
X141669727Y-96580540D01*
X141669723Y-96580535D01*
X141519464Y-96430276D01*
X141519459Y-96430272D01*
X141347557Y-96305379D01*
X141158215Y-96208903D01*
X140956124Y-96143241D01*
X140890000Y-96132768D01*
X140890000Y-97026988D01*
X140832993Y-96994075D01*
X140705826Y-96960000D01*
X140574174Y-96960000D01*
X140447007Y-96994075D01*
X140390000Y-97026988D01*
X140390000Y-96132768D01*
X140389999Y-96132768D01*
X140323875Y-96143241D01*
X140121784Y-96208903D01*
X139932442Y-96305379D01*
X139760540Y-96430272D01*
X139760535Y-96430276D01*
X139610276Y-96580535D01*
X139610272Y-96580540D01*
X139485376Y-96752446D01*
X139485374Y-96752448D01*
X139485246Y-96752701D01*
X139485172Y-96752779D01*
X139482832Y-96756598D01*
X139482029Y-96756106D01*
X139437264Y-96803489D01*
X139369441Y-96820274D01*
X139303309Y-96797727D01*
X139264285Y-96752683D01*
X139261895Y-96747992D01*
X139230472Y-96704742D01*
X139136206Y-96574996D01*
X138985004Y-96423794D01*
X138812009Y-96298106D01*
X138621483Y-96201027D01*
X138621480Y-96201026D01*
X138418117Y-96134951D01*
X138312516Y-96118225D01*
X138206916Y-96101500D01*
X137993084Y-96101500D01*
X137922684Y-96112650D01*
X137781882Y-96134951D01*
X137578519Y-96201026D01*
X137578516Y-96201027D01*
X137387990Y-96298106D01*
X137214993Y-96423796D01*
X137063796Y-96574993D01*
X136938105Y-96747991D01*
X136935727Y-96751873D01*
X136883914Y-96798748D01*
X136814984Y-96810169D01*
X136750822Y-96782512D01*
X136724273Y-96751873D01*
X136721894Y-96747991D01*
X136721891Y-96747987D01*
X136596206Y-96574996D01*
X136445004Y-96423794D01*
X136272009Y-96298106D01*
X136081483Y-96201027D01*
X136081480Y-96201026D01*
X135878117Y-96134951D01*
X135772516Y-96118225D01*
X135666916Y-96101500D01*
X135453084Y-96101500D01*
X135382684Y-96112650D01*
X135241882Y-96134951D01*
X135038519Y-96201026D01*
X135038516Y-96201027D01*
X134847990Y-96298106D01*
X134674993Y-96423796D01*
X134523796Y-96574993D01*
X134398105Y-96747991D01*
X134395727Y-96751873D01*
X134343914Y-96798748D01*
X134274984Y-96810169D01*
X134210822Y-96782512D01*
X134184273Y-96751873D01*
X134181894Y-96747991D01*
X134181891Y-96747987D01*
X134056206Y-96574996D01*
X133905004Y-96423794D01*
X133732009Y-96298106D01*
X133541483Y-96201027D01*
X133541480Y-96201026D01*
X133338117Y-96134951D01*
X133232516Y-96118225D01*
X133126916Y-96101500D01*
X132913084Y-96101500D01*
X132842684Y-96112650D01*
X132701882Y-96134951D01*
X132498519Y-96201026D01*
X132498516Y-96201027D01*
X132307990Y-96298106D01*
X132134993Y-96423796D01*
X131983796Y-96574993D01*
X131858105Y-96747991D01*
X131855727Y-96751873D01*
X131803914Y-96798748D01*
X131734984Y-96810169D01*
X131670822Y-96782512D01*
X131644273Y-96751873D01*
X131641894Y-96747991D01*
X131641891Y-96747987D01*
X131516206Y-96574996D01*
X131365004Y-96423794D01*
X131192009Y-96298106D01*
X131001483Y-96201027D01*
X131001480Y-96201026D01*
X130798117Y-96134951D01*
X130692516Y-96118225D01*
X130586916Y-96101500D01*
X130373084Y-96101500D01*
X130302684Y-96112650D01*
X130161882Y-96134951D01*
X129958519Y-96201026D01*
X129958516Y-96201027D01*
X129767990Y-96298106D01*
X129594997Y-96423793D01*
X129489818Y-96528972D01*
X129428495Y-96562456D01*
X129358803Y-96557472D01*
X129302870Y-96515600D01*
X129285958Y-96484629D01*
X129240889Y-96363796D01*
X129153261Y-96246739D01*
X129036204Y-96159111D01*
X129035172Y-96158726D01*
X128899203Y-96108011D01*
X128838654Y-96101500D01*
X128838638Y-96101500D01*
X127041362Y-96101500D01*
X127041345Y-96101500D01*
X126980797Y-96108011D01*
X126980795Y-96108011D01*
X126843795Y-96159111D01*
X126726739Y-96246739D01*
X126639111Y-96363795D01*
X126588011Y-96500795D01*
X126588011Y-96500797D01*
X126581500Y-96561345D01*
X99000000Y-96561345D01*
X99000000Y-94547219D01*
X158146500Y-94547219D01*
X158146500Y-94752780D01*
X158186599Y-94954370D01*
X158186602Y-94954382D01*
X158265259Y-95144278D01*
X158265260Y-95144279D01*
X158265262Y-95144283D01*
X158341738Y-95258737D01*
X158379460Y-95315191D01*
X158379463Y-95315195D01*
X158524804Y-95460536D01*
X158524808Y-95460539D01*
X158695717Y-95574738D01*
X158695720Y-95574739D01*
X158695721Y-95574740D01*
X158885617Y-95653397D01*
X158885622Y-95653399D01*
X159087219Y-95693499D01*
X159087223Y-95693500D01*
X159087224Y-95693500D01*
X159292777Y-95693500D01*
X159292778Y-95693499D01*
X159494378Y-95653399D01*
X159684283Y-95574738D01*
X159855192Y-95460539D01*
X160000539Y-95315192D01*
X160114738Y-95144283D01*
X160193399Y-94954378D01*
X160233500Y-94752776D01*
X160233500Y-94547224D01*
X160233499Y-94547219D01*
X160686500Y-94547219D01*
X160686500Y-94752780D01*
X160726599Y-94954370D01*
X160726602Y-94954382D01*
X160805259Y-95144278D01*
X160805260Y-95144279D01*
X160805262Y-95144283D01*
X160881738Y-95258737D01*
X160919460Y-95315191D01*
X160919463Y-95315195D01*
X161064804Y-95460536D01*
X161064808Y-95460539D01*
X161235717Y-95574738D01*
X161235720Y-95574739D01*
X161235721Y-95574740D01*
X161425617Y-95653397D01*
X161425622Y-95653399D01*
X161627219Y-95693499D01*
X161627223Y-95693500D01*
X161627224Y-95693500D01*
X161832777Y-95693500D01*
X161832778Y-95693499D01*
X162034378Y-95653399D01*
X162224283Y-95574738D01*
X162395192Y-95460539D01*
X162540539Y-95315192D01*
X162654738Y-95144283D01*
X162733399Y-94954378D01*
X162773500Y-94752776D01*
X162773500Y-94547224D01*
X162773499Y-94547219D01*
X163226500Y-94547219D01*
X163226500Y-94752780D01*
X163266599Y-94954370D01*
X163266602Y-94954382D01*
X163345259Y-95144278D01*
X163345260Y-95144279D01*
X163345262Y-95144283D01*
X163421738Y-95258737D01*
X163459460Y-95315191D01*
X163459463Y-95315195D01*
X163604804Y-95460536D01*
X163604808Y-95460539D01*
X163775717Y-95574738D01*
X163775720Y-95574739D01*
X163775721Y-95574740D01*
X163965617Y-95653397D01*
X163965622Y-95653399D01*
X164167219Y-95693499D01*
X164167223Y-95693500D01*
X164167224Y-95693500D01*
X164372777Y-95693500D01*
X164372778Y-95693499D01*
X164574378Y-95653399D01*
X164764283Y-95574738D01*
X164935192Y-95460539D01*
X165080539Y-95315192D01*
X165194738Y-95144283D01*
X165273399Y-94954378D01*
X165313500Y-94752776D01*
X165313500Y-94547224D01*
X165313499Y-94547219D01*
X165766500Y-94547219D01*
X165766500Y-94752780D01*
X165806599Y-94954370D01*
X165806602Y-94954382D01*
X165885259Y-95144278D01*
X165885260Y-95144279D01*
X165885262Y-95144283D01*
X165961738Y-95258737D01*
X165999460Y-95315191D01*
X165999463Y-95315195D01*
X166144804Y-95460536D01*
X166144808Y-95460539D01*
X166315717Y-95574738D01*
X166315720Y-95574739D01*
X166315721Y-95574740D01*
X166505617Y-95653397D01*
X166505622Y-95653399D01*
X166707219Y-95693499D01*
X166707223Y-95693500D01*
X166707224Y-95693500D01*
X166912777Y-95693500D01*
X166912778Y-95693499D01*
X167114378Y-95653399D01*
X167304283Y-95574738D01*
X167475192Y-95460539D01*
X167620539Y-95315192D01*
X167734738Y-95144283D01*
X167813399Y-94954378D01*
X167853500Y-94752776D01*
X167853500Y-94547224D01*
X167813399Y-94345622D01*
X167734738Y-94155717D01*
X167620539Y-93984808D01*
X167620536Y-93984804D01*
X167475195Y-93839463D01*
X167475191Y-93839460D01*
X167418737Y-93801738D01*
X167304283Y-93725262D01*
X167304280Y-93725260D01*
X167304279Y-93725260D01*
X167304278Y-93725259D01*
X167114382Y-93646602D01*
X167114370Y-93646599D01*
X166912780Y-93606500D01*
X166912776Y-93606500D01*
X166707224Y-93606500D01*
X166707219Y-93606500D01*
X166505629Y-93646599D01*
X166505617Y-93646602D01*
X166315721Y-93725259D01*
X166315720Y-93725260D01*
X166144808Y-93839460D01*
X166144804Y-93839463D01*
X165999463Y-93984804D01*
X165999460Y-93984808D01*
X165885260Y-94155720D01*
X165885259Y-94155721D01*
X165806602Y-94345617D01*
X165806599Y-94345629D01*
X165766500Y-94547219D01*
X165313499Y-94547219D01*
X165273399Y-94345622D01*
X165194738Y-94155717D01*
X165080539Y-93984808D01*
X165080536Y-93984804D01*
X164935195Y-93839463D01*
X164935191Y-93839460D01*
X164878737Y-93801738D01*
X164764283Y-93725262D01*
X164764280Y-93725260D01*
X164764279Y-93725260D01*
X164764278Y-93725259D01*
X164574382Y-93646602D01*
X164574370Y-93646599D01*
X164372780Y-93606500D01*
X164372776Y-93606500D01*
X164167224Y-93606500D01*
X164167219Y-93606500D01*
X163965629Y-93646599D01*
X163965617Y-93646602D01*
X163775721Y-93725259D01*
X163775720Y-93725260D01*
X163604808Y-93839460D01*
X163604804Y-93839463D01*
X163459463Y-93984804D01*
X163459460Y-93984808D01*
X163345260Y-94155720D01*
X163345259Y-94155721D01*
X163266602Y-94345617D01*
X163266599Y-94345629D01*
X163226500Y-94547219D01*
X162773499Y-94547219D01*
X162733399Y-94345622D01*
X162654738Y-94155717D01*
X162540539Y-93984808D01*
X162540536Y-93984804D01*
X162395195Y-93839463D01*
X162395191Y-93839460D01*
X162338737Y-93801738D01*
X162224283Y-93725262D01*
X162224280Y-93725260D01*
X162224279Y-93725260D01*
X162224278Y-93725259D01*
X162034382Y-93646602D01*
X162034370Y-93646599D01*
X161832780Y-93606500D01*
X161832776Y-93606500D01*
X161627224Y-93606500D01*
X161627219Y-93606500D01*
X161425629Y-93646599D01*
X161425617Y-93646602D01*
X161235721Y-93725259D01*
X161235720Y-93725260D01*
X161064808Y-93839460D01*
X161064804Y-93839463D01*
X160919463Y-93984804D01*
X160919460Y-93984808D01*
X160805260Y-94155720D01*
X160805259Y-94155721D01*
X160726602Y-94345617D01*
X160726599Y-94345629D01*
X160686500Y-94547219D01*
X160233499Y-94547219D01*
X160193399Y-94345622D01*
X160114738Y-94155717D01*
X160000539Y-93984808D01*
X160000536Y-93984804D01*
X159855195Y-93839463D01*
X159855191Y-93839460D01*
X159798737Y-93801738D01*
X159684283Y-93725262D01*
X159684280Y-93725260D01*
X159684279Y-93725260D01*
X159684278Y-93725259D01*
X159494382Y-93646602D01*
X159494370Y-93646599D01*
X159292780Y-93606500D01*
X159292776Y-93606500D01*
X159087224Y-93606500D01*
X159087219Y-93606500D01*
X158885629Y-93646599D01*
X158885617Y-93646602D01*
X158695721Y-93725259D01*
X158695720Y-93725260D01*
X158524808Y-93839460D01*
X158524804Y-93839463D01*
X158379463Y-93984804D01*
X158379460Y-93984808D01*
X158265260Y-94155720D01*
X158265259Y-94155721D01*
X158186602Y-94345617D01*
X158186599Y-94345629D01*
X158146500Y-94547219D01*
X99000000Y-94547219D01*
X99000000Y-81853084D01*
X143641500Y-81853084D01*
X143641500Y-82066915D01*
X143674951Y-82278117D01*
X143741026Y-82481480D01*
X143741027Y-82481483D01*
X143838106Y-82672009D01*
X143963794Y-82845004D01*
X144114996Y-82996206D01*
X144287991Y-83121894D01*
X144292680Y-83124283D01*
X144343478Y-83172254D01*
X144360276Y-83240074D01*
X144337742Y-83306210D01*
X144296205Y-83342209D01*
X144296590Y-83342838D01*
X144292804Y-83345157D01*
X144292702Y-83345246D01*
X144292449Y-83345374D01*
X144292440Y-83345380D01*
X144238282Y-83384727D01*
X144238282Y-83384728D01*
X144870591Y-84017037D01*
X144807007Y-84034075D01*
X144692993Y-84099901D01*
X144599901Y-84192993D01*
X144534075Y-84307007D01*
X144517037Y-84370590D01*
X143884728Y-83738282D01*
X143884727Y-83738282D01*
X143845380Y-83792439D01*
X143748904Y-83981782D01*
X143683242Y-84183869D01*
X143683242Y-84183872D01*
X143650000Y-84393753D01*
X143650000Y-84606246D01*
X143683242Y-84816127D01*
X143683242Y-84816130D01*
X143748904Y-85018217D01*
X143845375Y-85207550D01*
X143884728Y-85261716D01*
X144517037Y-84629408D01*
X144534075Y-84692993D01*
X144599901Y-84807007D01*
X144692993Y-84900099D01*
X144807007Y-84965925D01*
X144870590Y-84982962D01*
X144238282Y-85615269D01*
X144238282Y-85615270D01*
X144292449Y-85654624D01*
X144292682Y-85654743D01*
X144292755Y-85654812D01*
X144296604Y-85657171D01*
X144296108Y-85657979D01*
X144343479Y-85702716D01*
X144360275Y-85770537D01*
X144337739Y-85836672D01*
X144292693Y-85875709D01*
X144287994Y-85878103D01*
X144114993Y-86003796D01*
X143963796Y-86154993D01*
X143838106Y-86327990D01*
X143741027Y-86518516D01*
X143741026Y-86518519D01*
X143674951Y-86721882D01*
X143641500Y-86933084D01*
X143641500Y-87146915D01*
X143674951Y-87358117D01*
X143741026Y-87561480D01*
X143741027Y-87561483D01*
X143838106Y-87752009D01*
X143963794Y-87925004D01*
X144114996Y-88076206D01*
X144287991Y-88201894D01*
X144291873Y-88204273D01*
X144338748Y-88256086D01*
X144350169Y-88325016D01*
X144322512Y-88389178D01*
X144291873Y-88415727D01*
X144287991Y-88418105D01*
X144114993Y-88543796D01*
X143963796Y-88694993D01*
X143838106Y-88867990D01*
X143741027Y-89058516D01*
X143741026Y-89058519D01*
X143674951Y-89261882D01*
X143641500Y-89473084D01*
X143641500Y-89686915D01*
X143674951Y-89898117D01*
X143741026Y-90101480D01*
X143741027Y-90101483D01*
X143838106Y-90292009D01*
X143963794Y-90465004D01*
X143963796Y-90465006D01*
X144068971Y-90570181D01*
X144102456Y-90631504D01*
X144097472Y-90701196D01*
X144055600Y-90757129D01*
X144024625Y-90774043D01*
X143903795Y-90819111D01*
X143786739Y-90906739D01*
X143699111Y-91023795D01*
X143648011Y-91160795D01*
X143648011Y-91160797D01*
X143641500Y-91221345D01*
X143641500Y-93018654D01*
X143648011Y-93079202D01*
X143648011Y-93079204D01*
X143699111Y-93216204D01*
X143786739Y-93333261D01*
X143903796Y-93420889D01*
X144040799Y-93471989D01*
X144068050Y-93474918D01*
X144101345Y-93478499D01*
X144101362Y-93478500D01*
X145898638Y-93478500D01*
X145898654Y-93478499D01*
X145925692Y-93475591D01*
X145959201Y-93471989D01*
X146096204Y-93420889D01*
X146213261Y-93333261D01*
X146300889Y-93216204D01*
X146351989Y-93079201D01*
X146355591Y-93045692D01*
X146358499Y-93018654D01*
X146358500Y-93018637D01*
X146358500Y-91221362D01*
X146358499Y-91221345D01*
X146355157Y-91190270D01*
X146351989Y-91160799D01*
X146300889Y-91023796D01*
X146213261Y-90906739D01*
X146096204Y-90819111D01*
X146096202Y-90819110D01*
X146096204Y-90819110D01*
X145975375Y-90774043D01*
X145919441Y-90732172D01*
X145895025Y-90666707D01*
X145909877Y-90598434D01*
X145931022Y-90570187D01*
X146036206Y-90465004D01*
X146161894Y-90292009D01*
X146258972Y-90101483D01*
X146325049Y-89898116D01*
X146358500Y-89686916D01*
X146358500Y-89473084D01*
X146325049Y-89261884D01*
X146258972Y-89058517D01*
X146258972Y-89058516D01*
X146161893Y-88867990D01*
X146036206Y-88694996D01*
X145885004Y-88543794D01*
X145712009Y-88418106D01*
X145712005Y-88418103D01*
X145708132Y-88415730D01*
X145661254Y-88363920D01*
X145649829Y-88294991D01*
X145677483Y-88230827D01*
X145708132Y-88204270D01*
X145712005Y-88201896D01*
X145712004Y-88201896D01*
X145712009Y-88201894D01*
X145885004Y-88076206D01*
X146036206Y-87925004D01*
X146161894Y-87752009D01*
X146258972Y-87561483D01*
X146325049Y-87358116D01*
X146358500Y-87146916D01*
X146358500Y-86933084D01*
X146325049Y-86721884D01*
X146258972Y-86518517D01*
X146258972Y-86518516D01*
X146161893Y-86327990D01*
X146036206Y-86154996D01*
X145885004Y-86003794D01*
X145712009Y-85878106D01*
X145712010Y-85878106D01*
X145712008Y-85878105D01*
X145707311Y-85875712D01*
X145656517Y-85827735D01*
X145639724Y-85759914D01*
X145662264Y-85693780D01*
X145703790Y-85657801D01*
X145703402Y-85657168D01*
X145707229Y-85654822D01*
X145707327Y-85654738D01*
X145707556Y-85654621D01*
X145761716Y-85615270D01*
X145761717Y-85615270D01*
X145129408Y-84982962D01*
X145192993Y-84965925D01*
X145307007Y-84900099D01*
X145400099Y-84807007D01*
X145465925Y-84692993D01*
X145482962Y-84629408D01*
X146115270Y-85261717D01*
X146115270Y-85261716D01*
X146154622Y-85207554D01*
X146251095Y-85018217D01*
X146316757Y-84816130D01*
X146316757Y-84816127D01*
X146350000Y-84606246D01*
X146350000Y-84393752D01*
X146344343Y-84358035D01*
X146316757Y-84183872D01*
X146316757Y-84183869D01*
X146251095Y-83981782D01*
X146191209Y-83864249D01*
X146191208Y-83864247D01*
X146165626Y-83814041D01*
X152205000Y-83814041D01*
X152205000Y-83890000D01*
X152949670Y-83890000D01*
X152929925Y-83909745D01*
X152880556Y-83995255D01*
X152855000Y-84090630D01*
X152855000Y-84189370D01*
X152880556Y-84284745D01*
X152929925Y-84370255D01*
X152949670Y-84390000D01*
X152205000Y-84390000D01*
X152205000Y-84465958D01*
X152244387Y-84663974D01*
X152244390Y-84663983D01*
X152321652Y-84850513D01*
X152321659Y-84850526D01*
X152433829Y-85018399D01*
X152433832Y-85018403D01*
X152576596Y-85161167D01*
X152576600Y-85161170D01*
X152744473Y-85273340D01*
X152744486Y-85273347D01*
X152931016Y-85350609D01*
X152931025Y-85350612D01*
X152980000Y-85360353D01*
X152980000Y-84420330D01*
X152999745Y-84440075D01*
X153085255Y-84489444D01*
X153180630Y-84515000D01*
X153279370Y-84515000D01*
X153374745Y-84489444D01*
X153460255Y-84440075D01*
X153466500Y-84433830D01*
X153466500Y-84466793D01*
X153477617Y-84522679D01*
X153480000Y-84546871D01*
X153480000Y-85360352D01*
X153528974Y-85350612D01*
X153528983Y-85350609D01*
X153715515Y-85273346D01*
X153715518Y-85273344D01*
X153788458Y-85224607D01*
X153855135Y-85203728D01*
X153922516Y-85222212D01*
X153926191Y-85224573D01*
X154010454Y-85280876D01*
X154010456Y-85280877D01*
X154010460Y-85280879D01*
X154178805Y-85350609D01*
X154198539Y-85358783D01*
X154365471Y-85391988D01*
X154398204Y-85398499D01*
X154398207Y-85398500D01*
X154398209Y-85398500D01*
X154601793Y-85398500D01*
X154601794Y-85398499D01*
X154801461Y-85358783D01*
X154878656Y-85326807D01*
X154948122Y-85319339D01*
X154990403Y-85337744D01*
X154991008Y-85336637D01*
X154998793Y-85340888D01*
X155050978Y-85360352D01*
X155135799Y-85391989D01*
X155163050Y-85394918D01*
X155196345Y-85398499D01*
X155196362Y-85398500D01*
X156343638Y-85398500D01*
X156343654Y-85398499D01*
X156370692Y-85395591D01*
X156404201Y-85391989D01*
X156541204Y-85340889D01*
X156658261Y-85253261D01*
X156745889Y-85136204D01*
X156796989Y-84999201D01*
X156800591Y-84965692D01*
X156803499Y-84938654D01*
X156803500Y-84938637D01*
X156803500Y-83341362D01*
X156803499Y-83341345D01*
X156798760Y-83297274D01*
X156796989Y-83280799D01*
X156787807Y-83256182D01*
X156753170Y-83163318D01*
X156745889Y-83143796D01*
X156658261Y-83026739D01*
X156541204Y-82939111D01*
X156541201Y-82939110D01*
X156404203Y-82888011D01*
X156343654Y-82881500D01*
X156343638Y-82881500D01*
X155196362Y-82881500D01*
X155196345Y-82881500D01*
X155135797Y-82888011D01*
X155135795Y-82888011D01*
X155008915Y-82935336D01*
X154998796Y-82939111D01*
X154998792Y-82939113D01*
X154991012Y-82943362D01*
X154990125Y-82941737D01*
X154934945Y-82962315D01*
X154878657Y-82953192D01*
X154801461Y-82921217D01*
X154801454Y-82921215D01*
X154801453Y-82921215D01*
X154801453Y-82921214D01*
X154601794Y-82881500D01*
X154601791Y-82881500D01*
X154398209Y-82881500D01*
X154398206Y-82881500D01*
X154198546Y-82921215D01*
X154198534Y-82921218D01*
X154010457Y-82999122D01*
X153926240Y-83055393D01*
X153859562Y-83076270D01*
X153792182Y-83057785D01*
X153788459Y-83055392D01*
X153715526Y-83006659D01*
X153715513Y-83006652D01*
X153528984Y-82929390D01*
X153528977Y-82929388D01*
X153480000Y-82919645D01*
X153480000Y-83733128D01*
X153477986Y-83755386D01*
X153477811Y-83756343D01*
X153466500Y-83813209D01*
X153466500Y-83818336D01*
X153466500Y-83846170D01*
X153460255Y-83839925D01*
X153374745Y-83790556D01*
X153279370Y-83765000D01*
X153180630Y-83765000D01*
X153085255Y-83790556D01*
X152999745Y-83839925D01*
X152980000Y-83859670D01*
X152980000Y-82919646D01*
X152979999Y-82919645D01*
X152931022Y-82929388D01*
X152931015Y-82929390D01*
X152744486Y-83006652D01*
X152744473Y-83006659D01*
X152576600Y-83118829D01*
X152576596Y-83118832D01*
X152433832Y-83261596D01*
X152433829Y-83261600D01*
X152321659Y-83429473D01*
X152321652Y-83429486D01*
X152244390Y-83616016D01*
X152244387Y-83616025D01*
X152205000Y-83814041D01*
X146165626Y-83814041D01*
X146154626Y-83792452D01*
X146115270Y-83738282D01*
X146115269Y-83738282D01*
X145482962Y-84370590D01*
X145465925Y-84307007D01*
X145400099Y-84192993D01*
X145307007Y-84099901D01*
X145192993Y-84034075D01*
X145129409Y-84017037D01*
X145761716Y-83384728D01*
X145707547Y-83345373D01*
X145707545Y-83345371D01*
X145707308Y-83345251D01*
X145707234Y-83345181D01*
X145703396Y-83342829D01*
X145703890Y-83342022D01*
X145656515Y-83297274D01*
X145639724Y-83229451D01*
X145662266Y-83163318D01*
X145707319Y-83124283D01*
X145712009Y-83121894D01*
X145885004Y-82996206D01*
X146036206Y-82845004D01*
X146161894Y-82672009D01*
X146258972Y-82481483D01*
X146325049Y-82278116D01*
X146358500Y-82066916D01*
X146358500Y-81853084D01*
X146325049Y-81641884D01*
X146275360Y-81488955D01*
X146258973Y-81438519D01*
X146258972Y-81438516D01*
X146187083Y-81297427D01*
X146161893Y-81247990D01*
X146161333Y-81247219D01*
X158146500Y-81247219D01*
X158146500Y-81452780D01*
X158186599Y-81654370D01*
X158186602Y-81654382D01*
X158265259Y-81844278D01*
X158265260Y-81844279D01*
X158265262Y-81844283D01*
X158271143Y-81853084D01*
X158379460Y-82015191D01*
X158379463Y-82015195D01*
X158524804Y-82160536D01*
X158524808Y-82160539D01*
X158695717Y-82274738D01*
X158695720Y-82274739D01*
X158695721Y-82274740D01*
X158885617Y-82353397D01*
X158885622Y-82353399D01*
X159087219Y-82393499D01*
X159087223Y-82393500D01*
X159087224Y-82393500D01*
X159292777Y-82393500D01*
X159292778Y-82393499D01*
X159494378Y-82353399D01*
X159684283Y-82274738D01*
X159855192Y-82160539D01*
X160000539Y-82015192D01*
X160114738Y-81844283D01*
X160193399Y-81654378D01*
X160233500Y-81452776D01*
X160233500Y-81247224D01*
X160233499Y-81247219D01*
X160686500Y-81247219D01*
X160686500Y-81452780D01*
X160726599Y-81654370D01*
X160726602Y-81654382D01*
X160805259Y-81844278D01*
X160805260Y-81844279D01*
X160805262Y-81844283D01*
X160811143Y-81853084D01*
X160919460Y-82015191D01*
X160919463Y-82015195D01*
X161064804Y-82160536D01*
X161064808Y-82160539D01*
X161235717Y-82274738D01*
X161235720Y-82274739D01*
X161235721Y-82274740D01*
X161425617Y-82353397D01*
X161425622Y-82353399D01*
X161627219Y-82393499D01*
X161627223Y-82393500D01*
X161627224Y-82393500D01*
X161832777Y-82393500D01*
X161832778Y-82393499D01*
X162034378Y-82353399D01*
X162224283Y-82274738D01*
X162395192Y-82160539D01*
X162540539Y-82015192D01*
X162654738Y-81844283D01*
X162733399Y-81654378D01*
X162773500Y-81452776D01*
X162773500Y-81247224D01*
X162773499Y-81247219D01*
X163226500Y-81247219D01*
X163226500Y-81452780D01*
X163266599Y-81654370D01*
X163266602Y-81654382D01*
X163345259Y-81844278D01*
X163345260Y-81844279D01*
X163345262Y-81844283D01*
X163351143Y-81853084D01*
X163459460Y-82015191D01*
X163459463Y-82015195D01*
X163604804Y-82160536D01*
X163604808Y-82160539D01*
X163775717Y-82274738D01*
X163775720Y-82274739D01*
X163775721Y-82274740D01*
X163965617Y-82353397D01*
X163965622Y-82353399D01*
X164167219Y-82393499D01*
X164167223Y-82393500D01*
X164167224Y-82393500D01*
X164372777Y-82393500D01*
X164372778Y-82393499D01*
X164574378Y-82353399D01*
X164764283Y-82274738D01*
X164935192Y-82160539D01*
X165080539Y-82015192D01*
X165194738Y-81844283D01*
X165273399Y-81654378D01*
X165313500Y-81452776D01*
X165313500Y-81247224D01*
X165273399Y-81045622D01*
X165222937Y-80923796D01*
X165194740Y-80855721D01*
X165194739Y-80855720D01*
X165194738Y-80855717D01*
X165080539Y-80684808D01*
X165080536Y-80684804D01*
X164935195Y-80539463D01*
X164935191Y-80539460D01*
X164878737Y-80501738D01*
X164764283Y-80425262D01*
X164764280Y-80425260D01*
X164764279Y-80425260D01*
X164764278Y-80425259D01*
X164574382Y-80346602D01*
X164574370Y-80346599D01*
X164372780Y-80306500D01*
X164372776Y-80306500D01*
X164167224Y-80306500D01*
X164167219Y-80306500D01*
X163965629Y-80346599D01*
X163965617Y-80346602D01*
X163775721Y-80425259D01*
X163775720Y-80425260D01*
X163604808Y-80539460D01*
X163604804Y-80539463D01*
X163459463Y-80684804D01*
X163459460Y-80684808D01*
X163345260Y-80855720D01*
X163345259Y-80855721D01*
X163266602Y-81045617D01*
X163266599Y-81045629D01*
X163226500Y-81247219D01*
X162773499Y-81247219D01*
X162733399Y-81045622D01*
X162682937Y-80923796D01*
X162654740Y-80855721D01*
X162654739Y-80855720D01*
X162654738Y-80855717D01*
X162540539Y-80684808D01*
X162540536Y-80684804D01*
X162395195Y-80539463D01*
X162395191Y-80539460D01*
X162338737Y-80501738D01*
X162224283Y-80425262D01*
X162224280Y-80425260D01*
X162224279Y-80425260D01*
X162224278Y-80425259D01*
X162034382Y-80346602D01*
X162034370Y-80346599D01*
X161832780Y-80306500D01*
X161832776Y-80306500D01*
X161627224Y-80306500D01*
X161627219Y-80306500D01*
X161425629Y-80346599D01*
X161425617Y-80346602D01*
X161235721Y-80425259D01*
X161235720Y-80425260D01*
X161064808Y-80539460D01*
X161064804Y-80539463D01*
X160919463Y-80684804D01*
X160919460Y-80684808D01*
X160805260Y-80855720D01*
X160805259Y-80855721D01*
X160726602Y-81045617D01*
X160726599Y-81045629D01*
X160686500Y-81247219D01*
X160233499Y-81247219D01*
X160193399Y-81045622D01*
X160142937Y-80923796D01*
X160114740Y-80855721D01*
X160114739Y-80855720D01*
X160114738Y-80855717D01*
X160000539Y-80684808D01*
X160000536Y-80684804D01*
X159855195Y-80539463D01*
X159855191Y-80539460D01*
X159798737Y-80501738D01*
X159684283Y-80425262D01*
X159684280Y-80425260D01*
X159684279Y-80425260D01*
X159684278Y-80425259D01*
X159494382Y-80346602D01*
X159494370Y-80346599D01*
X159292780Y-80306500D01*
X159292776Y-80306500D01*
X159087224Y-80306500D01*
X159087219Y-80306500D01*
X158885629Y-80346599D01*
X158885617Y-80346602D01*
X158695721Y-80425259D01*
X158695720Y-80425260D01*
X158524808Y-80539460D01*
X158524804Y-80539463D01*
X158379463Y-80684804D01*
X158379460Y-80684808D01*
X158265260Y-80855720D01*
X158265259Y-80855721D01*
X158186602Y-81045617D01*
X158186599Y-81045629D01*
X158146500Y-81247219D01*
X146161333Y-81247219D01*
X146036206Y-81074996D01*
X145885004Y-80923794D01*
X145712009Y-80798106D01*
X145651298Y-80767172D01*
X145521483Y-80701027D01*
X145521480Y-80701026D01*
X145318117Y-80634951D01*
X145212516Y-80618225D01*
X145106916Y-80601500D01*
X144893084Y-80601500D01*
X144822684Y-80612650D01*
X144681882Y-80634951D01*
X144478519Y-80701026D01*
X144478516Y-80701027D01*
X144287990Y-80798106D01*
X144114993Y-80923796D01*
X143963796Y-81074993D01*
X143838106Y-81247990D01*
X143741027Y-81438516D01*
X143741026Y-81438519D01*
X143674951Y-81641882D01*
X143641500Y-81853084D01*
X99000000Y-81853084D01*
X99000000Y-80043677D01*
X162309873Y-80043677D01*
X162309873Y-80043678D01*
X162344858Y-80069096D01*
X162520164Y-80158418D01*
X162707294Y-80219221D01*
X162901618Y-80250000D01*
X163098382Y-80250000D01*
X163292705Y-80219221D01*
X163479835Y-80158418D01*
X163655143Y-80069095D01*
X163690125Y-80043678D01*
X163690126Y-80043678D01*
X163000001Y-79353553D01*
X163000000Y-79353553D01*
X162309873Y-80043677D01*
X99000000Y-80043677D01*
X99000000Y-78400948D01*
X143741500Y-78400948D01*
X143741500Y-78599051D01*
X143772487Y-78794700D01*
X143833703Y-78983101D01*
X143899217Y-79111678D01*
X143923634Y-79159598D01*
X144040070Y-79319858D01*
X144180142Y-79459930D01*
X144340402Y-79576366D01*
X144423790Y-79618854D01*
X144516898Y-79666296D01*
X144516900Y-79666296D01*
X144516903Y-79666298D01*
X144590235Y-79690125D01*
X144705299Y-79727512D01*
X144900949Y-79758500D01*
X144900954Y-79758500D01*
X145099051Y-79758500D01*
X145294700Y-79727512D01*
X145483097Y-79666298D01*
X145659598Y-79576366D01*
X145819858Y-79459930D01*
X145959930Y-79319858D01*
X146076366Y-79159598D01*
X146166298Y-78983097D01*
X146192773Y-78901617D01*
X161750000Y-78901617D01*
X161750000Y-79098382D01*
X161780778Y-79292705D01*
X161841581Y-79479835D01*
X161930905Y-79655145D01*
X161956319Y-79690125D01*
X161956320Y-79690125D01*
X162646446Y-79000000D01*
X162646446Y-78999999D01*
X161956320Y-78309872D01*
X161956320Y-78309873D01*
X161930902Y-78344859D01*
X161930899Y-78344863D01*
X161841582Y-78520161D01*
X161780778Y-78707294D01*
X161750000Y-78901617D01*
X146192773Y-78901617D01*
X146227512Y-78794700D01*
X146241356Y-78707294D01*
X146258500Y-78599051D01*
X146258500Y-78400948D01*
X146227512Y-78205299D01*
X146173825Y-78040070D01*
X146166298Y-78016903D01*
X146166296Y-78016900D01*
X146166296Y-78016898D01*
X146115688Y-77917576D01*
X146076366Y-77840402D01*
X145959930Y-77680142D01*
X145819858Y-77540070D01*
X145659598Y-77423634D01*
X145651157Y-77419333D01*
X145483101Y-77333703D01*
X145294700Y-77272487D01*
X145099051Y-77241500D01*
X145099046Y-77241500D01*
X144900954Y-77241500D01*
X144900949Y-77241500D01*
X144705299Y-77272487D01*
X144516898Y-77333703D01*
X144340401Y-77423634D01*
X144304112Y-77450000D01*
X144180142Y-77540070D01*
X144180140Y-77540072D01*
X144180139Y-77540072D01*
X144040072Y-77680139D01*
X144040072Y-77680140D01*
X144040070Y-77680142D01*
X144005654Y-77727512D01*
X143923634Y-77840401D01*
X143833703Y-78016898D01*
X143772487Y-78205299D01*
X143741500Y-78400948D01*
X99000000Y-78400948D01*
X99000000Y-76889149D01*
X155051500Y-76889149D01*
X155051500Y-77110851D01*
X155059088Y-77158761D01*
X155086182Y-77329824D01*
X155154693Y-77540680D01*
X155224944Y-77678554D01*
X155255343Y-77738215D01*
X155385657Y-77917576D01*
X155542424Y-78074343D01*
X155721785Y-78204657D01*
X155766641Y-78227512D01*
X155919319Y-78305306D01*
X155919321Y-78305306D01*
X155919324Y-78305308D01*
X156130176Y-78373818D01*
X156349149Y-78408500D01*
X156349150Y-78408500D01*
X156570850Y-78408500D01*
X156570851Y-78408500D01*
X156789824Y-78373818D01*
X157000676Y-78305308D01*
X157198215Y-78204657D01*
X157377576Y-78074343D01*
X157425997Y-78025921D01*
X157487318Y-77992437D01*
X157557009Y-77997421D01*
X157612943Y-78039292D01*
X157629859Y-78070269D01*
X157656646Y-78142087D01*
X157656649Y-78142093D01*
X157742809Y-78257187D01*
X157742812Y-78257190D01*
X157857906Y-78343350D01*
X157857913Y-78343354D01*
X157992620Y-78393596D01*
X157992627Y-78393598D01*
X158052155Y-78399999D01*
X158052172Y-78400000D01*
X158750000Y-78400000D01*
X158750000Y-77375277D01*
X158826306Y-77419333D01*
X158940756Y-77450000D01*
X159059244Y-77450000D01*
X159173694Y-77419333D01*
X159250000Y-77375277D01*
X159250000Y-78400000D01*
X159947828Y-78400000D01*
X159947844Y-78399999D01*
X160007372Y-78393598D01*
X160007379Y-78393596D01*
X160142086Y-78343354D01*
X160142093Y-78343350D01*
X160257187Y-78257190D01*
X160257190Y-78257187D01*
X160343350Y-78142093D01*
X160343354Y-78142086D01*
X160393596Y-78007379D01*
X160393598Y-78007372D01*
X160399999Y-77947844D01*
X160400000Y-77947827D01*
X160400000Y-77250000D01*
X159375278Y-77250000D01*
X159419333Y-77173694D01*
X159450000Y-77059244D01*
X159450000Y-76940756D01*
X159419333Y-76826306D01*
X159375278Y-76750000D01*
X160400000Y-76750000D01*
X160400000Y-76052172D01*
X160399999Y-76052155D01*
X160393598Y-75992627D01*
X160393596Y-75992620D01*
X160343354Y-75857913D01*
X160343350Y-75857906D01*
X160257190Y-75742812D01*
X160257187Y-75742809D01*
X160142093Y-75656649D01*
X160142086Y-75656645D01*
X160007379Y-75606403D01*
X160007372Y-75606401D01*
X159947844Y-75600000D01*
X159250000Y-75600000D01*
X159250000Y-76624722D01*
X159173694Y-76580667D01*
X159059244Y-76550000D01*
X158940756Y-76550000D01*
X158826306Y-76580667D01*
X158750000Y-76624722D01*
X158750000Y-75600000D01*
X158052155Y-75600000D01*
X157992627Y-75606401D01*
X157992620Y-75606403D01*
X157857913Y-75656645D01*
X157857906Y-75656649D01*
X157742812Y-75742809D01*
X157742809Y-75742812D01*
X157656649Y-75857906D01*
X157656644Y-75857915D01*
X157629858Y-75929731D01*
X157587987Y-75985664D01*
X157522522Y-76010080D01*
X157454249Y-75995228D01*
X157425996Y-75974077D01*
X157377578Y-75925659D01*
X157377576Y-75925657D01*
X157198215Y-75795343D01*
X157000680Y-75694693D01*
X156789824Y-75626182D01*
X156570851Y-75591500D01*
X156349149Y-75591500D01*
X156239662Y-75608841D01*
X156130175Y-75626182D01*
X155919319Y-75694693D01*
X155721784Y-75795343D01*
X155668987Y-75833703D01*
X155542424Y-75925657D01*
X155542422Y-75925659D01*
X155542421Y-75925659D01*
X155385659Y-76082421D01*
X155385659Y-76082422D01*
X155385657Y-76082424D01*
X155329692Y-76159452D01*
X155255343Y-76261784D01*
X155154693Y-76459319D01*
X155086182Y-76670175D01*
X155073539Y-76750000D01*
X155051500Y-76889149D01*
X99000000Y-76889149D01*
X99000000Y-73141016D01*
X120201700Y-73141016D01*
X120201700Y-73368983D01*
X120237362Y-73594144D01*
X120307809Y-73810958D01*
X120380654Y-73953922D01*
X120411303Y-74014074D01*
X120545299Y-74198504D01*
X120706496Y-74359701D01*
X120890926Y-74493697D01*
X120986891Y-74542593D01*
X121094041Y-74597190D01*
X121094043Y-74597190D01*
X121094046Y-74597192D01*
X121310856Y-74667638D01*
X121536016Y-74703300D01*
X121536017Y-74703300D01*
X121763983Y-74703300D01*
X121763984Y-74703300D01*
X121989144Y-74667638D01*
X122205954Y-74597192D01*
X122409074Y-74493697D01*
X122593504Y-74359701D01*
X122754701Y-74198504D01*
X122819682Y-74109064D01*
X122875012Y-74066399D01*
X122944625Y-74060420D01*
X123006420Y-74093025D01*
X123020317Y-74109064D01*
X123085299Y-74198504D01*
X123246496Y-74359701D01*
X123430926Y-74493697D01*
X123526891Y-74542593D01*
X123634041Y-74597190D01*
X123634043Y-74597190D01*
X123634046Y-74597192D01*
X123850856Y-74667638D01*
X124076016Y-74703300D01*
X124076017Y-74703300D01*
X124303983Y-74703300D01*
X124303984Y-74703300D01*
X124529144Y-74667638D01*
X124745954Y-74597192D01*
X124949074Y-74493697D01*
X125133504Y-74359701D01*
X125294701Y-74198504D01*
X125359682Y-74109064D01*
X125415012Y-74066399D01*
X125484625Y-74060420D01*
X125546420Y-74093025D01*
X125560317Y-74109064D01*
X125625299Y-74198504D01*
X125786496Y-74359701D01*
X125970926Y-74493697D01*
X126066891Y-74542593D01*
X126174041Y-74597190D01*
X126174043Y-74597190D01*
X126174046Y-74597192D01*
X126390856Y-74667638D01*
X126616016Y-74703300D01*
X126616017Y-74703300D01*
X126843983Y-74703300D01*
X126843984Y-74703300D01*
X127069144Y-74667638D01*
X127285954Y-74597192D01*
X127489074Y-74493697D01*
X127673504Y-74359701D01*
X127834701Y-74198504D01*
X127904935Y-74101834D01*
X127960265Y-74059169D01*
X128029878Y-74053190D01*
X128081222Y-74080281D01*
X128090439Y-74081007D01*
X128780504Y-73390941D01*
X128796619Y-73451081D01*
X128863498Y-73566920D01*
X128958080Y-73661502D01*
X129073919Y-73728381D01*
X129134057Y-73744494D01*
X128443991Y-74434559D01*
X128515379Y-74486426D01*
X128717311Y-74589316D01*
X128932842Y-74659346D01*
X129156686Y-74694800D01*
X129383314Y-74694800D01*
X129607155Y-74659346D01*
X129607158Y-74659346D01*
X129822688Y-74589316D01*
X130024620Y-74486426D01*
X130096006Y-74434559D01*
X129405942Y-73744495D01*
X129466081Y-73728381D01*
X129581920Y-73661502D01*
X129676502Y-73566920D01*
X129743381Y-73451081D01*
X129759494Y-73390942D01*
X130449559Y-74081007D01*
X130462785Y-74079966D01*
X130489756Y-74059168D01*
X130559369Y-74053188D01*
X130621164Y-74085794D01*
X130635063Y-74101833D01*
X130681461Y-74165694D01*
X130705299Y-74198504D01*
X130866496Y-74359701D01*
X131050926Y-74493697D01*
X131146891Y-74542593D01*
X131254041Y-74597190D01*
X131254043Y-74597190D01*
X131254046Y-74597192D01*
X131470856Y-74667638D01*
X131696016Y-74703300D01*
X131696017Y-74703300D01*
X131923983Y-74703300D01*
X131923984Y-74703300D01*
X132149144Y-74667638D01*
X132365954Y-74597192D01*
X132569074Y-74493697D01*
X132753504Y-74359701D01*
X132753506Y-74359698D01*
X132757445Y-74356837D01*
X132758423Y-74358183D01*
X132815567Y-74332573D01*
X132884653Y-74343004D01*
X132937133Y-74389129D01*
X132948529Y-74412097D01*
X132959311Y-74441004D01*
X133046939Y-74558061D01*
X133163996Y-74645689D01*
X133300999Y-74696789D01*
X133328250Y-74699718D01*
X133361545Y-74703299D01*
X133361562Y-74703300D01*
X135338438Y-74703300D01*
X135338454Y-74703299D01*
X135365492Y-74700391D01*
X135399001Y-74696789D01*
X135536004Y-74645689D01*
X135653061Y-74558061D01*
X135740689Y-74441004D01*
X135791789Y-74304001D01*
X135795391Y-74270492D01*
X135798299Y-74243454D01*
X135798300Y-74243437D01*
X135798300Y-73901617D01*
X165750000Y-73901617D01*
X165750000Y-74098382D01*
X165780778Y-74292705D01*
X165841581Y-74479835D01*
X165930905Y-74655145D01*
X165956319Y-74690125D01*
X165956320Y-74690125D01*
X166646446Y-74000000D01*
X166646446Y-73999999D01*
X166600369Y-73953922D01*
X166650000Y-73953922D01*
X166650000Y-74046078D01*
X166673852Y-74135095D01*
X166719930Y-74214905D01*
X166785095Y-74280070D01*
X166864905Y-74326148D01*
X166953922Y-74350000D01*
X167046078Y-74350000D01*
X167135095Y-74326148D01*
X167214905Y-74280070D01*
X167280070Y-74214905D01*
X167326148Y-74135095D01*
X167350000Y-74046078D01*
X167350000Y-73999999D01*
X167353553Y-73999999D01*
X167353553Y-74000001D01*
X168043678Y-74690126D01*
X168043678Y-74690125D01*
X168069095Y-74655143D01*
X168158418Y-74479835D01*
X168219221Y-74292705D01*
X168250000Y-74098382D01*
X168250000Y-73901617D01*
X168219221Y-73707294D01*
X168158418Y-73520164D01*
X168069096Y-73344858D01*
X168043678Y-73309873D01*
X168043677Y-73309873D01*
X167353553Y-73999999D01*
X167350000Y-73999999D01*
X167350000Y-73953922D01*
X167326148Y-73864905D01*
X167280070Y-73785095D01*
X167214905Y-73719930D01*
X167135095Y-73673852D01*
X167046078Y-73650000D01*
X166953922Y-73650000D01*
X166864905Y-73673852D01*
X166785095Y-73719930D01*
X166719930Y-73785095D01*
X166673852Y-73864905D01*
X166650000Y-73953922D01*
X166600369Y-73953922D01*
X165956320Y-73309872D01*
X165956320Y-73309873D01*
X165930902Y-73344859D01*
X165930899Y-73344863D01*
X165841582Y-73520161D01*
X165780778Y-73707294D01*
X165750000Y-73901617D01*
X135798300Y-73901617D01*
X135798300Y-72956320D01*
X166309872Y-72956320D01*
X167000000Y-73646446D01*
X167000001Y-73646446D01*
X167690125Y-72956320D01*
X167690125Y-72956319D01*
X167655145Y-72930905D01*
X167516936Y-72860485D01*
X167466140Y-72812511D01*
X167449345Y-72744690D01*
X167471882Y-72678555D01*
X167516937Y-72639515D01*
X167655141Y-72569097D01*
X167690125Y-72543678D01*
X167690126Y-72543678D01*
X167000001Y-71853553D01*
X167000000Y-71853553D01*
X166309873Y-72543677D01*
X166309873Y-72543678D01*
X166344860Y-72569097D01*
X166483062Y-72639514D01*
X166533859Y-72687488D01*
X166550654Y-72755309D01*
X166528117Y-72821444D01*
X166483063Y-72860484D01*
X166344859Y-72930902D01*
X166309873Y-72956320D01*
X166309872Y-72956320D01*
X135798300Y-72956320D01*
X135798300Y-72266562D01*
X135798299Y-72266545D01*
X135794957Y-72235470D01*
X135791789Y-72205999D01*
X135785868Y-72190125D01*
X135769322Y-72145764D01*
X135740689Y-72068996D01*
X135653061Y-71951939D01*
X135536004Y-71864311D01*
X135499386Y-71850653D01*
X135399003Y-71813211D01*
X135338454Y-71806700D01*
X135338438Y-71806700D01*
X133361562Y-71806700D01*
X133361545Y-71806700D01*
X133300997Y-71813211D01*
X133300995Y-71813211D01*
X133163995Y-71864311D01*
X133046939Y-71951939D01*
X132959311Y-72068994D01*
X132948529Y-72097903D01*
X132906656Y-72153836D01*
X132841191Y-72178251D01*
X132772919Y-72163398D01*
X132757650Y-72152879D01*
X132757445Y-72153163D01*
X132753506Y-72150301D01*
X132753504Y-72150299D01*
X132569074Y-72016303D01*
X132497502Y-71979835D01*
X132365958Y-71912809D01*
X132149144Y-71842362D01*
X132046773Y-71826148D01*
X131923984Y-71806700D01*
X131696016Y-71806700D01*
X131583436Y-71824531D01*
X131470855Y-71842362D01*
X131254041Y-71912809D01*
X131050925Y-72016303D01*
X130866493Y-72150301D01*
X130705301Y-72311493D01*
X130705301Y-72311494D01*
X130705299Y-72311496D01*
X130657624Y-72377114D01*
X130635064Y-72408166D01*
X130579734Y-72450831D01*
X130510120Y-72456810D01*
X130458773Y-72429717D01*
X130449559Y-72428991D01*
X129759494Y-73119056D01*
X129743381Y-73058919D01*
X129676502Y-72943080D01*
X129581920Y-72848498D01*
X129466081Y-72781619D01*
X129405940Y-72765504D01*
X130096007Y-72075439D01*
X130024620Y-72023573D01*
X129822688Y-71920683D01*
X129607157Y-71850653D01*
X129383314Y-71815200D01*
X129156686Y-71815200D01*
X128932844Y-71850653D01*
X128932841Y-71850653D01*
X128717311Y-71920683D01*
X128515376Y-72023575D01*
X128443992Y-72075438D01*
X128443991Y-72075439D01*
X129134057Y-72765504D01*
X129073919Y-72781619D01*
X128958080Y-72848498D01*
X128863498Y-72943080D01*
X128796619Y-73058919D01*
X128780504Y-73119057D01*
X128090439Y-72428991D01*
X128077208Y-72430033D01*
X128050237Y-72450830D01*
X127980624Y-72456808D01*
X127918829Y-72424200D01*
X127904934Y-72408164D01*
X127899682Y-72400935D01*
X127834701Y-72311496D01*
X127673504Y-72150299D01*
X127489074Y-72016303D01*
X127417502Y-71979835D01*
X127285958Y-71912809D01*
X127069144Y-71842362D01*
X126966773Y-71826148D01*
X126843984Y-71806700D01*
X126616016Y-71806700D01*
X126503436Y-71824531D01*
X126390855Y-71842362D01*
X126174041Y-71912809D01*
X125970925Y-72016303D01*
X125786493Y-72150301D01*
X125625301Y-72311493D01*
X125625301Y-72311494D01*
X125625299Y-72311496D01*
X125560318Y-72400935D01*
X125504988Y-72443600D01*
X125435374Y-72449579D01*
X125373579Y-72416973D01*
X125359682Y-72400935D01*
X125294701Y-72311496D01*
X125133504Y-72150299D01*
X124949074Y-72016303D01*
X124877502Y-71979835D01*
X124745958Y-71912809D01*
X124529144Y-71842362D01*
X124426773Y-71826148D01*
X124303984Y-71806700D01*
X124076016Y-71806700D01*
X123963436Y-71824531D01*
X123850855Y-71842362D01*
X123634041Y-71912809D01*
X123430925Y-72016303D01*
X123246493Y-72150301D01*
X123085301Y-72311493D01*
X123085301Y-72311494D01*
X123085299Y-72311496D01*
X123020318Y-72400935D01*
X122964988Y-72443600D01*
X122895374Y-72449579D01*
X122833579Y-72416973D01*
X122819682Y-72400935D01*
X122754701Y-72311496D01*
X122593504Y-72150299D01*
X122409074Y-72016303D01*
X122337502Y-71979835D01*
X122205958Y-71912809D01*
X121989144Y-71842362D01*
X121886773Y-71826148D01*
X121763984Y-71806700D01*
X121536016Y-71806700D01*
X121423436Y-71824531D01*
X121310855Y-71842362D01*
X121094041Y-71912809D01*
X120890925Y-72016303D01*
X120706493Y-72150301D01*
X120545301Y-72311493D01*
X120411303Y-72495925D01*
X120307809Y-72699041D01*
X120237362Y-72915855D01*
X120201700Y-73141016D01*
X99000000Y-73141016D01*
X99000000Y-71401617D01*
X165750000Y-71401617D01*
X165750000Y-71598382D01*
X165780778Y-71792705D01*
X165841581Y-71979835D01*
X165930905Y-72155145D01*
X165956319Y-72190125D01*
X165956320Y-72190125D01*
X166646446Y-71500000D01*
X166646446Y-71499999D01*
X166600369Y-71453922D01*
X166650000Y-71453922D01*
X166650000Y-71546078D01*
X166673852Y-71635095D01*
X166719930Y-71714905D01*
X166785095Y-71780070D01*
X166864905Y-71826148D01*
X166953922Y-71850000D01*
X167046078Y-71850000D01*
X167135095Y-71826148D01*
X167214905Y-71780070D01*
X167280070Y-71714905D01*
X167326148Y-71635095D01*
X167350000Y-71546078D01*
X167350000Y-71499999D01*
X167353553Y-71499999D01*
X167353553Y-71500001D01*
X168043678Y-72190126D01*
X168043678Y-72190125D01*
X168069095Y-72155143D01*
X168158418Y-71979835D01*
X168219221Y-71792705D01*
X168250000Y-71598382D01*
X168250000Y-71401617D01*
X168219221Y-71207294D01*
X168158418Y-71020164D01*
X168069096Y-70844858D01*
X168043678Y-70809873D01*
X168043677Y-70809873D01*
X167353553Y-71499999D01*
X167350000Y-71499999D01*
X167350000Y-71453922D01*
X167326148Y-71364905D01*
X167280070Y-71285095D01*
X167214905Y-71219930D01*
X167135095Y-71173852D01*
X167046078Y-71150000D01*
X166953922Y-71150000D01*
X166864905Y-71173852D01*
X166785095Y-71219930D01*
X166719930Y-71285095D01*
X166673852Y-71364905D01*
X166650000Y-71453922D01*
X166600369Y-71453922D01*
X165956320Y-70809872D01*
X165956320Y-70809873D01*
X165930902Y-70844859D01*
X165930899Y-70844863D01*
X165841582Y-71020161D01*
X165780778Y-71207294D01*
X165750000Y-71401617D01*
X99000000Y-71401617D01*
X99000000Y-62889149D01*
X144091500Y-62889149D01*
X144091500Y-63110850D01*
X144126182Y-63329824D01*
X144194693Y-63540680D01*
X144295343Y-63738215D01*
X144425657Y-63917576D01*
X144425659Y-63917578D01*
X144474077Y-63965996D01*
X144507562Y-64027319D01*
X144502578Y-64097011D01*
X144460706Y-64152944D01*
X144429731Y-64169858D01*
X144357915Y-64196644D01*
X144357906Y-64196649D01*
X144242812Y-64282809D01*
X144242809Y-64282812D01*
X144156649Y-64397906D01*
X144156645Y-64397913D01*
X144106403Y-64532620D01*
X144106401Y-64532627D01*
X144100000Y-64592155D01*
X144100000Y-65290000D01*
X145124722Y-65290000D01*
X145080667Y-65366306D01*
X145050000Y-65480756D01*
X145050000Y-65599244D01*
X145080667Y-65713694D01*
X145124722Y-65790000D01*
X144100000Y-65790000D01*
X144100000Y-66487844D01*
X144106401Y-66547372D01*
X144106403Y-66547379D01*
X144156645Y-66682086D01*
X144156649Y-66682093D01*
X144242809Y-66797187D01*
X144242812Y-66797190D01*
X144357906Y-66883350D01*
X144357913Y-66883354D01*
X144492620Y-66933596D01*
X144492627Y-66933598D01*
X144552155Y-66939999D01*
X144552172Y-66940000D01*
X145250000Y-66940000D01*
X145250000Y-65915277D01*
X145326306Y-65959333D01*
X145440756Y-65990000D01*
X145559244Y-65990000D01*
X145673694Y-65959333D01*
X145750000Y-65915277D01*
X145750000Y-66940000D01*
X146447828Y-66940000D01*
X146447844Y-66939999D01*
X146507372Y-66933598D01*
X146507379Y-66933596D01*
X146642086Y-66883354D01*
X146642093Y-66883350D01*
X146757187Y-66797190D01*
X146757190Y-66797187D01*
X146843350Y-66682093D01*
X146843354Y-66682086D01*
X146893596Y-66547379D01*
X146893598Y-66547372D01*
X146899999Y-66487844D01*
X146900000Y-66487827D01*
X146900000Y-65790000D01*
X145875278Y-65790000D01*
X145919333Y-65713694D01*
X145950000Y-65599244D01*
X145950000Y-65480756D01*
X145919333Y-65366306D01*
X145875278Y-65290000D01*
X146900000Y-65290000D01*
X146900000Y-64592172D01*
X146899999Y-64592155D01*
X146893598Y-64532627D01*
X146893596Y-64532620D01*
X146843354Y-64397913D01*
X146843350Y-64397906D01*
X146757190Y-64282812D01*
X146757187Y-64282809D01*
X146642093Y-64196649D01*
X146642087Y-64196646D01*
X146570269Y-64169859D01*
X146514336Y-64127987D01*
X146489919Y-64062522D01*
X146504771Y-63994250D01*
X146525920Y-63965998D01*
X146574343Y-63917576D01*
X146704657Y-63738215D01*
X146805308Y-63540676D01*
X146873818Y-63329824D01*
X146908500Y-63110851D01*
X146908500Y-62889149D01*
X150591500Y-62889149D01*
X150591500Y-63110850D01*
X150626182Y-63329824D01*
X150694693Y-63540680D01*
X150795343Y-63738215D01*
X150925657Y-63917576D01*
X150925659Y-63917578D01*
X150974077Y-63965996D01*
X151007562Y-64027319D01*
X151002578Y-64097011D01*
X150960706Y-64152944D01*
X150929731Y-64169858D01*
X150857915Y-64196644D01*
X150857906Y-64196649D01*
X150742812Y-64282809D01*
X150742809Y-64282812D01*
X150656649Y-64397906D01*
X150656645Y-64397913D01*
X150606403Y-64532620D01*
X150606401Y-64532627D01*
X150600000Y-64592155D01*
X150600000Y-65290000D01*
X151624722Y-65290000D01*
X151580667Y-65366306D01*
X151550000Y-65480756D01*
X151550000Y-65599244D01*
X151580667Y-65713694D01*
X151624722Y-65790000D01*
X150600000Y-65790000D01*
X150600000Y-66487844D01*
X150606401Y-66547372D01*
X150606403Y-66547379D01*
X150656645Y-66682086D01*
X150656649Y-66682093D01*
X150742809Y-66797187D01*
X150742812Y-66797190D01*
X150857906Y-66883350D01*
X150857913Y-66883354D01*
X150992620Y-66933596D01*
X150992627Y-66933598D01*
X151052155Y-66939999D01*
X151052172Y-66940000D01*
X151750000Y-66940000D01*
X151750000Y-65915277D01*
X151826306Y-65959333D01*
X151940756Y-65990000D01*
X152059244Y-65990000D01*
X152173694Y-65959333D01*
X152250000Y-65915277D01*
X152250000Y-66940000D01*
X152947828Y-66940000D01*
X152947844Y-66939999D01*
X153007372Y-66933598D01*
X153007379Y-66933596D01*
X153142086Y-66883354D01*
X153142093Y-66883350D01*
X153257187Y-66797190D01*
X153257190Y-66797187D01*
X153343350Y-66682093D01*
X153343354Y-66682086D01*
X153393596Y-66547379D01*
X153393598Y-66547372D01*
X153399999Y-66487844D01*
X153400000Y-66487827D01*
X153400000Y-65790000D01*
X152375278Y-65790000D01*
X152419333Y-65713694D01*
X152450000Y-65599244D01*
X152450000Y-65480756D01*
X152419333Y-65366306D01*
X152375278Y-65290000D01*
X153400000Y-65290000D01*
X153400000Y-64592172D01*
X153399999Y-64592155D01*
X153393598Y-64532627D01*
X153393596Y-64532620D01*
X153343354Y-64397913D01*
X153343350Y-64397906D01*
X153257190Y-64282812D01*
X153257187Y-64282809D01*
X153142093Y-64196649D01*
X153142087Y-64196646D01*
X153070269Y-64169859D01*
X153014336Y-64127987D01*
X152989919Y-64062522D01*
X153004771Y-63994250D01*
X153025920Y-63965998D01*
X153074343Y-63917576D01*
X153204657Y-63738215D01*
X153305308Y-63540676D01*
X153373818Y-63329824D01*
X153408500Y-63110851D01*
X153408500Y-62889149D01*
X157091500Y-62889149D01*
X157091500Y-63110850D01*
X157126182Y-63329824D01*
X157194693Y-63540680D01*
X157295343Y-63738215D01*
X157425657Y-63917576D01*
X157425659Y-63917578D01*
X157474077Y-63965996D01*
X157507562Y-64027319D01*
X157502578Y-64097011D01*
X157460706Y-64152944D01*
X157429731Y-64169858D01*
X157357915Y-64196644D01*
X157357906Y-64196649D01*
X157242812Y-64282809D01*
X157242809Y-64282812D01*
X157156649Y-64397906D01*
X157156645Y-64397913D01*
X157106403Y-64532620D01*
X157106401Y-64532627D01*
X157100000Y-64592155D01*
X157100000Y-65290000D01*
X158124722Y-65290000D01*
X158080667Y-65366306D01*
X158050000Y-65480756D01*
X158050000Y-65599244D01*
X158080667Y-65713694D01*
X158124722Y-65790000D01*
X157100000Y-65790000D01*
X157100000Y-66487844D01*
X157106401Y-66547372D01*
X157106403Y-66547379D01*
X157156645Y-66682086D01*
X157156649Y-66682093D01*
X157242809Y-66797187D01*
X157242812Y-66797190D01*
X157357906Y-66883350D01*
X157357913Y-66883354D01*
X157492620Y-66933596D01*
X157492627Y-66933598D01*
X157552155Y-66939999D01*
X157552172Y-66940000D01*
X158250000Y-66940000D01*
X158250000Y-65915277D01*
X158326306Y-65959333D01*
X158440756Y-65990000D01*
X158559244Y-65990000D01*
X158673694Y-65959333D01*
X158750000Y-65915277D01*
X158750000Y-66940000D01*
X159447828Y-66940000D01*
X159447844Y-66939999D01*
X159507372Y-66933598D01*
X159507379Y-66933596D01*
X159642086Y-66883354D01*
X159642093Y-66883350D01*
X159757187Y-66797190D01*
X159757190Y-66797187D01*
X159843350Y-66682093D01*
X159843354Y-66682086D01*
X159893596Y-66547379D01*
X159893598Y-66547372D01*
X159899999Y-66487844D01*
X159900000Y-66487827D01*
X159900000Y-65790000D01*
X158875278Y-65790000D01*
X158919333Y-65713694D01*
X158950000Y-65599244D01*
X158950000Y-65480756D01*
X158919333Y-65366306D01*
X158875278Y-65290000D01*
X159900000Y-65290000D01*
X159900000Y-64592172D01*
X159899999Y-64592155D01*
X159893598Y-64532627D01*
X159893596Y-64532620D01*
X159843354Y-64397913D01*
X159843350Y-64397906D01*
X159757190Y-64282812D01*
X159757187Y-64282809D01*
X159642093Y-64196649D01*
X159642087Y-64196646D01*
X159570269Y-64169859D01*
X159514336Y-64127987D01*
X159489919Y-64062522D01*
X159504771Y-63994250D01*
X159525920Y-63965998D01*
X159574343Y-63917576D01*
X159704657Y-63738215D01*
X159805308Y-63540676D01*
X159873818Y-63329824D01*
X159908500Y-63110851D01*
X159908500Y-62889149D01*
X163591500Y-62889149D01*
X163591500Y-63110850D01*
X163626182Y-63329824D01*
X163694693Y-63540680D01*
X163795343Y-63738215D01*
X163925657Y-63917576D01*
X163925659Y-63917578D01*
X163974077Y-63965996D01*
X164007562Y-64027319D01*
X164002578Y-64097011D01*
X163960706Y-64152944D01*
X163929731Y-64169858D01*
X163857915Y-64196644D01*
X163857906Y-64196649D01*
X163742812Y-64282809D01*
X163742809Y-64282812D01*
X163656649Y-64397906D01*
X163656645Y-64397913D01*
X163606403Y-64532620D01*
X163606401Y-64532627D01*
X163600000Y-64592155D01*
X163600000Y-65290000D01*
X164624722Y-65290000D01*
X164580667Y-65366306D01*
X164550000Y-65480756D01*
X164550000Y-65599244D01*
X164580667Y-65713694D01*
X164624722Y-65790000D01*
X163600000Y-65790000D01*
X163600000Y-66487844D01*
X163606401Y-66547372D01*
X163606403Y-66547379D01*
X163656645Y-66682086D01*
X163656649Y-66682093D01*
X163742809Y-66797187D01*
X163742812Y-66797190D01*
X163857906Y-66883350D01*
X163857913Y-66883354D01*
X163992620Y-66933596D01*
X163992627Y-66933598D01*
X164052155Y-66939999D01*
X164052172Y-66940000D01*
X164750000Y-66940000D01*
X164750000Y-65915277D01*
X164826306Y-65959333D01*
X164940756Y-65990000D01*
X165059244Y-65990000D01*
X165173694Y-65959333D01*
X165250000Y-65915277D01*
X165250000Y-66940000D01*
X165947828Y-66940000D01*
X165947844Y-66939999D01*
X166007372Y-66933598D01*
X166007379Y-66933596D01*
X166142086Y-66883354D01*
X166142093Y-66883350D01*
X166257187Y-66797190D01*
X166257190Y-66797187D01*
X166343350Y-66682093D01*
X166343354Y-66682086D01*
X166393596Y-66547379D01*
X166393598Y-66547372D01*
X166399999Y-66487844D01*
X166400000Y-66487827D01*
X166400000Y-65790000D01*
X165375278Y-65790000D01*
X165419333Y-65713694D01*
X165450000Y-65599244D01*
X165450000Y-65480756D01*
X165419333Y-65366306D01*
X165375278Y-65290000D01*
X166400000Y-65290000D01*
X166400000Y-64592172D01*
X166399999Y-64592155D01*
X166393598Y-64532627D01*
X166393596Y-64532620D01*
X166343354Y-64397913D01*
X166343350Y-64397906D01*
X166257190Y-64282812D01*
X166257187Y-64282809D01*
X166142093Y-64196649D01*
X166142087Y-64196646D01*
X166070269Y-64169859D01*
X166014336Y-64127987D01*
X165989919Y-64062522D01*
X166004771Y-63994250D01*
X166025920Y-63965998D01*
X166074343Y-63917576D01*
X166204657Y-63738215D01*
X166305308Y-63540676D01*
X166373818Y-63329824D01*
X166408500Y-63110851D01*
X166408500Y-62889149D01*
X166373818Y-62670176D01*
X166305308Y-62459324D01*
X166305306Y-62459321D01*
X166305306Y-62459319D01*
X166204656Y-62261784D01*
X166074343Y-62082424D01*
X165917576Y-61925657D01*
X165738215Y-61795343D01*
X165540680Y-61694693D01*
X165329824Y-61626182D01*
X165110851Y-61591500D01*
X164889149Y-61591500D01*
X164779662Y-61608841D01*
X164670175Y-61626182D01*
X164459319Y-61694693D01*
X164261784Y-61795343D01*
X164176604Y-61857231D01*
X164082424Y-61925657D01*
X164082422Y-61925659D01*
X164082421Y-61925659D01*
X163925659Y-62082421D01*
X163925659Y-62082422D01*
X163925657Y-62082424D01*
X163869692Y-62159452D01*
X163795343Y-62261784D01*
X163694693Y-62459319D01*
X163626182Y-62670175D01*
X163591500Y-62889149D01*
X159908500Y-62889149D01*
X159873818Y-62670176D01*
X159805308Y-62459324D01*
X159805306Y-62459321D01*
X159805306Y-62459319D01*
X159704656Y-62261784D01*
X159574343Y-62082424D01*
X159417576Y-61925657D01*
X159238215Y-61795343D01*
X159040680Y-61694693D01*
X158829824Y-61626182D01*
X158610851Y-61591500D01*
X158389149Y-61591500D01*
X158279662Y-61608841D01*
X158170175Y-61626182D01*
X157959319Y-61694693D01*
X157761784Y-61795343D01*
X157676604Y-61857231D01*
X157582424Y-61925657D01*
X157582422Y-61925659D01*
X157582421Y-61925659D01*
X157425659Y-62082421D01*
X157425659Y-62082422D01*
X157425657Y-62082424D01*
X157369692Y-62159452D01*
X157295343Y-62261784D01*
X157194693Y-62459319D01*
X157126182Y-62670175D01*
X157091500Y-62889149D01*
X153408500Y-62889149D01*
X153373818Y-62670176D01*
X153305308Y-62459324D01*
X153305306Y-62459321D01*
X153305306Y-62459319D01*
X153204656Y-62261784D01*
X153074343Y-62082424D01*
X152917576Y-61925657D01*
X152738215Y-61795343D01*
X152540680Y-61694693D01*
X152329824Y-61626182D01*
X152110851Y-61591500D01*
X151889149Y-61591500D01*
X151779662Y-61608841D01*
X151670175Y-61626182D01*
X151459319Y-61694693D01*
X151261784Y-61795343D01*
X151176604Y-61857231D01*
X151082424Y-61925657D01*
X151082422Y-61925659D01*
X151082421Y-61925659D01*
X150925659Y-62082421D01*
X150925659Y-62082422D01*
X150925657Y-62082424D01*
X150869692Y-62159452D01*
X150795343Y-62261784D01*
X150694693Y-62459319D01*
X150626182Y-62670175D01*
X150591500Y-62889149D01*
X146908500Y-62889149D01*
X146873818Y-62670176D01*
X146805308Y-62459324D01*
X146805306Y-62459321D01*
X146805306Y-62459319D01*
X146704656Y-62261784D01*
X146574343Y-62082424D01*
X146417576Y-61925657D01*
X146238215Y-61795343D01*
X146040680Y-61694693D01*
X145829824Y-61626182D01*
X145610851Y-61591500D01*
X145389149Y-61591500D01*
X145279662Y-61608841D01*
X145170175Y-61626182D01*
X144959319Y-61694693D01*
X144761784Y-61795343D01*
X144676604Y-61857231D01*
X144582424Y-61925657D01*
X144582422Y-61925659D01*
X144582421Y-61925659D01*
X144425659Y-62082421D01*
X144425659Y-62082422D01*
X144425657Y-62082424D01*
X144369692Y-62159452D01*
X144295343Y-62261784D01*
X144194693Y-62459319D01*
X144126182Y-62670175D01*
X144091500Y-62889149D01*
X99000000Y-62889149D01*
X99000000Y-59707019D01*
X146691500Y-59707019D01*
X146691500Y-59912980D01*
X146723719Y-60116408D01*
X146787367Y-60312294D01*
X146880873Y-60495806D01*
X147001926Y-60662423D01*
X147001930Y-60662428D01*
X147147571Y-60808069D01*
X147147576Y-60808073D01*
X147208629Y-60852430D01*
X147314197Y-60929129D01*
X147431128Y-60988709D01*
X147497705Y-61022632D01*
X147497707Y-61022632D01*
X147497710Y-61022634D01*
X147602707Y-61056749D01*
X147693591Y-61086280D01*
X147795305Y-61102390D01*
X147897019Y-61118500D01*
X147897020Y-61118500D01*
X148102980Y-61118500D01*
X148102981Y-61118500D01*
X148306408Y-61086280D01*
X148502290Y-61022634D01*
X148685803Y-60929129D01*
X148852430Y-60808068D01*
X148998068Y-60662430D01*
X149119129Y-60495803D01*
X149212634Y-60312290D01*
X149276280Y-60116408D01*
X149308500Y-59912981D01*
X149308500Y-59897019D01*
X149691500Y-59897019D01*
X149691500Y-60102980D01*
X149723719Y-60306408D01*
X149787367Y-60502294D01*
X149851671Y-60628496D01*
X149868958Y-60662423D01*
X149880873Y-60685806D01*
X150001926Y-60852423D01*
X150001930Y-60852428D01*
X150147571Y-60998069D01*
X150147576Y-60998073D01*
X150181382Y-61022634D01*
X150314197Y-61119129D01*
X150431128Y-61178709D01*
X150497705Y-61212632D01*
X150497707Y-61212632D01*
X150497710Y-61212634D01*
X150602707Y-61246749D01*
X150693591Y-61276280D01*
X150795305Y-61292390D01*
X150897019Y-61308500D01*
X150897020Y-61308500D01*
X151102980Y-61308500D01*
X151102981Y-61308500D01*
X151306408Y-61276280D01*
X151502290Y-61212634D01*
X151685803Y-61119129D01*
X151852430Y-60998068D01*
X151998068Y-60852430D01*
X152119129Y-60685803D01*
X152212634Y-60502290D01*
X152276280Y-60306408D01*
X152308500Y-60102981D01*
X152308500Y-59897019D01*
X152278407Y-59707019D01*
X152691500Y-59707019D01*
X152691500Y-59912980D01*
X152723719Y-60116408D01*
X152787367Y-60312294D01*
X152880873Y-60495806D01*
X153001926Y-60662423D01*
X153001930Y-60662428D01*
X153147571Y-60808069D01*
X153147576Y-60808073D01*
X153208629Y-60852430D01*
X153314197Y-60929129D01*
X153431128Y-60988709D01*
X153497705Y-61022632D01*
X153497707Y-61022632D01*
X153497710Y-61022634D01*
X153602707Y-61056749D01*
X153693591Y-61086280D01*
X153795305Y-61102390D01*
X153897019Y-61118500D01*
X153897020Y-61118500D01*
X154102980Y-61118500D01*
X154102981Y-61118500D01*
X154306408Y-61086280D01*
X154502290Y-61022634D01*
X154685803Y-60929129D01*
X154852430Y-60808068D01*
X154998068Y-60662430D01*
X155119129Y-60495803D01*
X155212634Y-60312290D01*
X155276280Y-60116408D01*
X155308500Y-59912981D01*
X155308500Y-59707019D01*
X155691500Y-59707019D01*
X155691500Y-59912980D01*
X155723719Y-60116408D01*
X155787367Y-60312294D01*
X155880873Y-60495806D01*
X156001926Y-60662423D01*
X156001930Y-60662428D01*
X156147571Y-60808069D01*
X156147576Y-60808073D01*
X156208629Y-60852430D01*
X156314197Y-60929129D01*
X156431128Y-60988709D01*
X156497705Y-61022632D01*
X156497707Y-61022632D01*
X156497710Y-61022634D01*
X156602707Y-61056749D01*
X156693591Y-61086280D01*
X156795305Y-61102390D01*
X156897019Y-61118500D01*
X156897020Y-61118500D01*
X157102980Y-61118500D01*
X157102981Y-61118500D01*
X157306408Y-61086280D01*
X157502290Y-61022634D01*
X157685803Y-60929129D01*
X157852430Y-60808068D01*
X157998068Y-60662430D01*
X158119129Y-60495803D01*
X158212634Y-60312290D01*
X158276280Y-60116408D01*
X158308500Y-59912981D01*
X158308500Y-59707019D01*
X158691500Y-59707019D01*
X158691500Y-59912980D01*
X158723719Y-60116408D01*
X158787367Y-60312294D01*
X158880873Y-60495806D01*
X159001926Y-60662423D01*
X159001930Y-60662428D01*
X159147571Y-60808069D01*
X159147576Y-60808073D01*
X159208629Y-60852430D01*
X159314197Y-60929129D01*
X159431128Y-60988709D01*
X159497705Y-61022632D01*
X159497707Y-61022632D01*
X159497710Y-61022634D01*
X159602707Y-61056749D01*
X159693591Y-61086280D01*
X159795305Y-61102390D01*
X159897019Y-61118500D01*
X159897020Y-61118500D01*
X160102980Y-61118500D01*
X160102981Y-61118500D01*
X160306408Y-61086280D01*
X160502290Y-61022634D01*
X160685803Y-60929129D01*
X160852430Y-60808068D01*
X160998068Y-60662430D01*
X161119129Y-60495803D01*
X161212634Y-60312290D01*
X161276280Y-60116408D01*
X161308500Y-59912981D01*
X161308500Y-59707019D01*
X161691500Y-59707019D01*
X161691500Y-59912980D01*
X161723719Y-60116408D01*
X161787367Y-60312294D01*
X161880873Y-60495806D01*
X162001926Y-60662423D01*
X162001930Y-60662428D01*
X162147571Y-60808069D01*
X162147576Y-60808073D01*
X162208629Y-60852430D01*
X162314197Y-60929129D01*
X162431128Y-60988709D01*
X162497705Y-61022632D01*
X162497707Y-61022632D01*
X162497710Y-61022634D01*
X162602707Y-61056749D01*
X162693591Y-61086280D01*
X162795305Y-61102390D01*
X162897019Y-61118500D01*
X162897020Y-61118500D01*
X163102980Y-61118500D01*
X163102981Y-61118500D01*
X163306408Y-61086280D01*
X163502290Y-61022634D01*
X163685803Y-60929129D01*
X163852430Y-60808068D01*
X163998068Y-60662430D01*
X164119129Y-60495803D01*
X164212634Y-60312290D01*
X164276280Y-60116408D01*
X164308500Y-59912981D01*
X164308500Y-59707019D01*
X164276280Y-59503592D01*
X164212634Y-59307710D01*
X164212632Y-59307707D01*
X164212632Y-59307705D01*
X164178709Y-59241128D01*
X164119129Y-59124197D01*
X164030299Y-59001932D01*
X163998073Y-58957576D01*
X163998069Y-58957571D01*
X163852428Y-58811930D01*
X163852423Y-58811926D01*
X163685806Y-58690873D01*
X163685805Y-58690872D01*
X163685803Y-58690871D01*
X163628496Y-58661671D01*
X163502294Y-58597367D01*
X163306408Y-58533719D01*
X163130794Y-58505905D01*
X163102981Y-58501500D01*
X162897019Y-58501500D01*
X162872550Y-58505375D01*
X162693591Y-58533719D01*
X162497705Y-58597367D01*
X162314193Y-58690873D01*
X162147576Y-58811926D01*
X162147571Y-58811930D01*
X162001930Y-58957571D01*
X162001926Y-58957576D01*
X161880873Y-59124193D01*
X161787367Y-59307705D01*
X161723719Y-59503591D01*
X161691500Y-59707019D01*
X161308500Y-59707019D01*
X161276280Y-59503592D01*
X161212634Y-59307710D01*
X161212632Y-59307707D01*
X161212632Y-59307705D01*
X161178709Y-59241128D01*
X161119129Y-59124197D01*
X161030299Y-59001932D01*
X160998073Y-58957576D01*
X160998069Y-58957571D01*
X160852428Y-58811930D01*
X160852423Y-58811926D01*
X160685806Y-58690873D01*
X160685805Y-58690872D01*
X160685803Y-58690871D01*
X160628496Y-58661671D01*
X160502294Y-58597367D01*
X160306408Y-58533719D01*
X160130794Y-58505905D01*
X160102981Y-58501500D01*
X159897019Y-58501500D01*
X159872550Y-58505375D01*
X159693591Y-58533719D01*
X159497705Y-58597367D01*
X159314193Y-58690873D01*
X159147576Y-58811926D01*
X159147571Y-58811930D01*
X159001930Y-58957571D01*
X159001926Y-58957576D01*
X158880873Y-59124193D01*
X158787367Y-59307705D01*
X158723719Y-59503591D01*
X158691500Y-59707019D01*
X158308500Y-59707019D01*
X158276280Y-59503592D01*
X158212634Y-59307710D01*
X158212632Y-59307707D01*
X158212632Y-59307705D01*
X158178709Y-59241128D01*
X158119129Y-59124197D01*
X158030299Y-59001932D01*
X157998073Y-58957576D01*
X157998069Y-58957571D01*
X157852428Y-58811930D01*
X157852423Y-58811926D01*
X157685806Y-58690873D01*
X157685805Y-58690872D01*
X157685803Y-58690871D01*
X157628496Y-58661671D01*
X157502294Y-58597367D01*
X157306408Y-58533719D01*
X157130794Y-58505905D01*
X157102981Y-58501500D01*
X156897019Y-58501500D01*
X156872550Y-58505375D01*
X156693591Y-58533719D01*
X156497705Y-58597367D01*
X156314193Y-58690873D01*
X156147576Y-58811926D01*
X156147571Y-58811930D01*
X156001930Y-58957571D01*
X156001926Y-58957576D01*
X155880873Y-59124193D01*
X155787367Y-59307705D01*
X155723719Y-59503591D01*
X155691500Y-59707019D01*
X155308500Y-59707019D01*
X155276280Y-59503592D01*
X155212634Y-59307710D01*
X155212632Y-59307707D01*
X155212632Y-59307705D01*
X155178709Y-59241128D01*
X155119129Y-59124197D01*
X155030299Y-59001932D01*
X154998073Y-58957576D01*
X154998069Y-58957571D01*
X154852428Y-58811930D01*
X154852423Y-58811926D01*
X154685806Y-58690873D01*
X154685805Y-58690872D01*
X154685803Y-58690871D01*
X154628496Y-58661671D01*
X154502294Y-58597367D01*
X154306408Y-58533719D01*
X154130794Y-58505905D01*
X154102981Y-58501500D01*
X153897019Y-58501500D01*
X153872550Y-58505375D01*
X153693591Y-58533719D01*
X153497705Y-58597367D01*
X153314193Y-58690873D01*
X153147576Y-58811926D01*
X153147571Y-58811930D01*
X153001930Y-58957571D01*
X153001926Y-58957576D01*
X152880873Y-59124193D01*
X152787367Y-59307705D01*
X152723719Y-59503591D01*
X152691500Y-59707019D01*
X152278407Y-59707019D01*
X152276280Y-59693592D01*
X152212634Y-59497710D01*
X152212632Y-59497707D01*
X152212632Y-59497705D01*
X152178709Y-59431128D01*
X152119129Y-59314197D01*
X152103661Y-59292908D01*
X151998073Y-59147576D01*
X151998069Y-59147571D01*
X151852428Y-59001930D01*
X151852423Y-59001926D01*
X151685806Y-58880873D01*
X151685805Y-58880872D01*
X151685803Y-58880871D01*
X151628496Y-58851671D01*
X151502294Y-58787367D01*
X151306408Y-58723719D01*
X151130794Y-58695905D01*
X151102981Y-58691500D01*
X150897019Y-58691500D01*
X150872550Y-58695375D01*
X150693591Y-58723719D01*
X150497705Y-58787367D01*
X150314193Y-58880873D01*
X150147576Y-59001926D01*
X150147571Y-59001930D01*
X150001930Y-59147571D01*
X150001926Y-59147576D01*
X149880873Y-59314193D01*
X149787367Y-59497705D01*
X149723719Y-59693591D01*
X149691500Y-59897019D01*
X149308500Y-59897019D01*
X149308500Y-59707019D01*
X149276280Y-59503592D01*
X149212634Y-59307710D01*
X149212632Y-59307707D01*
X149212632Y-59307705D01*
X149178709Y-59241128D01*
X149119129Y-59124197D01*
X149030299Y-59001932D01*
X148998073Y-58957576D01*
X148998069Y-58957571D01*
X148852428Y-58811930D01*
X148852423Y-58811926D01*
X148685806Y-58690873D01*
X148685805Y-58690872D01*
X148685803Y-58690871D01*
X148628496Y-58661671D01*
X148502294Y-58597367D01*
X148306408Y-58533719D01*
X148130794Y-58505905D01*
X148102981Y-58501500D01*
X147897019Y-58501500D01*
X147872550Y-58505375D01*
X147693591Y-58533719D01*
X147497705Y-58597367D01*
X147314193Y-58690873D01*
X147147576Y-58811926D01*
X147147571Y-58811930D01*
X147001930Y-58957571D01*
X147001926Y-58957576D01*
X146880873Y-59124193D01*
X146787367Y-59307705D01*
X146723719Y-59503591D01*
X146691500Y-59707019D01*
X99000000Y-59707019D01*
X99000000Y-52087019D01*
X146691500Y-52087019D01*
X146691500Y-52292980D01*
X146723719Y-52496408D01*
X146787367Y-52692294D01*
X146880873Y-52875806D01*
X147001926Y-53042423D01*
X147001930Y-53042428D01*
X147147571Y-53188069D01*
X147147576Y-53188073D01*
X147208629Y-53232430D01*
X147314197Y-53309129D01*
X147431128Y-53368709D01*
X147497705Y-53402632D01*
X147497707Y-53402632D01*
X147497710Y-53402634D01*
X147602707Y-53436749D01*
X147693591Y-53466280D01*
X147795305Y-53482390D01*
X147897019Y-53498500D01*
X147897020Y-53498500D01*
X148102980Y-53498500D01*
X148102981Y-53498500D01*
X148306408Y-53466280D01*
X148502290Y-53402634D01*
X148685803Y-53309129D01*
X148852430Y-53188068D01*
X148998068Y-53042430D01*
X149119129Y-52875803D01*
X149212634Y-52692290D01*
X149276280Y-52496408D01*
X149308500Y-52292981D01*
X149308500Y-52277019D01*
X149691500Y-52277019D01*
X149691500Y-52482980D01*
X149723719Y-52686408D01*
X149787367Y-52882294D01*
X149851671Y-53008496D01*
X149868958Y-53042423D01*
X149880873Y-53065806D01*
X150001926Y-53232423D01*
X150001930Y-53232428D01*
X150147571Y-53378069D01*
X150147576Y-53378073D01*
X150181382Y-53402634D01*
X150314197Y-53499129D01*
X150431128Y-53558709D01*
X150497705Y-53592632D01*
X150497707Y-53592632D01*
X150497710Y-53592634D01*
X150602707Y-53626749D01*
X150693591Y-53656280D01*
X150795305Y-53672390D01*
X150897019Y-53688500D01*
X150897020Y-53688500D01*
X151102980Y-53688500D01*
X151102981Y-53688500D01*
X151306408Y-53656280D01*
X151502290Y-53592634D01*
X151685803Y-53499129D01*
X151852430Y-53378068D01*
X151998068Y-53232430D01*
X152119129Y-53065803D01*
X152212634Y-52882290D01*
X152276280Y-52686408D01*
X152308500Y-52482981D01*
X152308500Y-52277019D01*
X152278407Y-52087019D01*
X152691500Y-52087019D01*
X152691500Y-52292980D01*
X152723719Y-52496408D01*
X152787367Y-52692294D01*
X152880873Y-52875806D01*
X153001926Y-53042423D01*
X153001930Y-53042428D01*
X153147571Y-53188069D01*
X153147576Y-53188073D01*
X153208629Y-53232430D01*
X153314197Y-53309129D01*
X153431128Y-53368709D01*
X153497705Y-53402632D01*
X153497707Y-53402632D01*
X153497710Y-53402634D01*
X153602707Y-53436749D01*
X153693591Y-53466280D01*
X153795305Y-53482390D01*
X153897019Y-53498500D01*
X153897020Y-53498500D01*
X154102980Y-53498500D01*
X154102981Y-53498500D01*
X154306408Y-53466280D01*
X154502290Y-53402634D01*
X154685803Y-53309129D01*
X154852430Y-53188068D01*
X154998068Y-53042430D01*
X155119129Y-52875803D01*
X155212634Y-52692290D01*
X155276280Y-52496408D01*
X155308500Y-52292981D01*
X155308500Y-52087019D01*
X155691500Y-52087019D01*
X155691500Y-52292980D01*
X155723719Y-52496408D01*
X155787367Y-52692294D01*
X155880873Y-52875806D01*
X156001926Y-53042423D01*
X156001930Y-53042428D01*
X156147571Y-53188069D01*
X156147576Y-53188073D01*
X156208629Y-53232430D01*
X156314197Y-53309129D01*
X156431128Y-53368709D01*
X156497705Y-53402632D01*
X156497707Y-53402632D01*
X156497710Y-53402634D01*
X156602707Y-53436749D01*
X156693591Y-53466280D01*
X156795305Y-53482390D01*
X156897019Y-53498500D01*
X156897020Y-53498500D01*
X157102980Y-53498500D01*
X157102981Y-53498500D01*
X157306408Y-53466280D01*
X157502290Y-53402634D01*
X157685803Y-53309129D01*
X157852430Y-53188068D01*
X157998068Y-53042430D01*
X158119129Y-52875803D01*
X158212634Y-52692290D01*
X158276280Y-52496408D01*
X158308500Y-52292981D01*
X158308500Y-52087019D01*
X158691500Y-52087019D01*
X158691500Y-52292980D01*
X158723719Y-52496408D01*
X158787367Y-52692294D01*
X158880873Y-52875806D01*
X159001926Y-53042423D01*
X159001930Y-53042428D01*
X159147571Y-53188069D01*
X159147576Y-53188073D01*
X159208629Y-53232430D01*
X159314197Y-53309129D01*
X159431128Y-53368709D01*
X159497705Y-53402632D01*
X159497707Y-53402632D01*
X159497710Y-53402634D01*
X159602707Y-53436749D01*
X159693591Y-53466280D01*
X159795305Y-53482390D01*
X159897019Y-53498500D01*
X159897020Y-53498500D01*
X160102980Y-53498500D01*
X160102981Y-53498500D01*
X160306408Y-53466280D01*
X160502290Y-53402634D01*
X160685803Y-53309129D01*
X160852430Y-53188068D01*
X160998068Y-53042430D01*
X161119129Y-52875803D01*
X161212634Y-52692290D01*
X161276280Y-52496408D01*
X161308500Y-52292981D01*
X161308500Y-52087019D01*
X161691500Y-52087019D01*
X161691500Y-52292980D01*
X161723719Y-52496408D01*
X161787367Y-52692294D01*
X161880873Y-52875806D01*
X162001926Y-53042423D01*
X162001930Y-53042428D01*
X162147571Y-53188069D01*
X162147576Y-53188073D01*
X162208629Y-53232430D01*
X162314197Y-53309129D01*
X162431128Y-53368709D01*
X162497705Y-53402632D01*
X162497707Y-53402632D01*
X162497710Y-53402634D01*
X162602707Y-53436749D01*
X162693591Y-53466280D01*
X162795305Y-53482390D01*
X162897019Y-53498500D01*
X162897020Y-53498500D01*
X163102980Y-53498500D01*
X163102981Y-53498500D01*
X163306408Y-53466280D01*
X163502290Y-53402634D01*
X163685803Y-53309129D01*
X163852430Y-53188068D01*
X163998068Y-53042430D01*
X164119129Y-52875803D01*
X164212634Y-52692290D01*
X164276280Y-52496408D01*
X164308500Y-52292981D01*
X164308500Y-52087019D01*
X164276280Y-51883592D01*
X164212634Y-51687710D01*
X164212632Y-51687707D01*
X164212632Y-51687705D01*
X164178709Y-51621128D01*
X164119129Y-51504197D01*
X164030299Y-51381932D01*
X163998073Y-51337576D01*
X163998069Y-51337571D01*
X163852428Y-51191930D01*
X163852423Y-51191926D01*
X163685806Y-51070873D01*
X163685805Y-51070872D01*
X163685803Y-51070871D01*
X163628496Y-51041671D01*
X163502294Y-50977367D01*
X163306408Y-50913719D01*
X163130794Y-50885905D01*
X163102981Y-50881500D01*
X162897019Y-50881500D01*
X162872550Y-50885375D01*
X162693591Y-50913719D01*
X162497705Y-50977367D01*
X162314193Y-51070873D01*
X162147576Y-51191926D01*
X162147571Y-51191930D01*
X162001930Y-51337571D01*
X162001926Y-51337576D01*
X161880873Y-51504193D01*
X161787367Y-51687705D01*
X161723719Y-51883591D01*
X161691500Y-52087019D01*
X161308500Y-52087019D01*
X161276280Y-51883592D01*
X161212634Y-51687710D01*
X161212632Y-51687707D01*
X161212632Y-51687705D01*
X161178709Y-51621128D01*
X161119129Y-51504197D01*
X161030299Y-51381932D01*
X160998073Y-51337576D01*
X160998069Y-51337571D01*
X160852428Y-51191930D01*
X160852423Y-51191926D01*
X160685806Y-51070873D01*
X160685805Y-51070872D01*
X160685803Y-51070871D01*
X160628496Y-51041671D01*
X160502294Y-50977367D01*
X160306408Y-50913719D01*
X160130794Y-50885905D01*
X160102981Y-50881500D01*
X159897019Y-50881500D01*
X159872550Y-50885375D01*
X159693591Y-50913719D01*
X159497705Y-50977367D01*
X159314193Y-51070873D01*
X159147576Y-51191926D01*
X159147571Y-51191930D01*
X159001930Y-51337571D01*
X159001926Y-51337576D01*
X158880873Y-51504193D01*
X158787367Y-51687705D01*
X158723719Y-51883591D01*
X158691500Y-52087019D01*
X158308500Y-52087019D01*
X158276280Y-51883592D01*
X158212634Y-51687710D01*
X158212632Y-51687707D01*
X158212632Y-51687705D01*
X158178709Y-51621128D01*
X158119129Y-51504197D01*
X158030299Y-51381932D01*
X157998073Y-51337576D01*
X157998069Y-51337571D01*
X157852428Y-51191930D01*
X157852423Y-51191926D01*
X157685806Y-51070873D01*
X157685805Y-51070872D01*
X157685803Y-51070871D01*
X157628496Y-51041671D01*
X157502294Y-50977367D01*
X157306408Y-50913719D01*
X157130794Y-50885905D01*
X157102981Y-50881500D01*
X156897019Y-50881500D01*
X156872550Y-50885375D01*
X156693591Y-50913719D01*
X156497705Y-50977367D01*
X156314193Y-51070873D01*
X156147576Y-51191926D01*
X156147571Y-51191930D01*
X156001930Y-51337571D01*
X156001926Y-51337576D01*
X155880873Y-51504193D01*
X155787367Y-51687705D01*
X155723719Y-51883591D01*
X155691500Y-52087019D01*
X155308500Y-52087019D01*
X155276280Y-51883592D01*
X155212634Y-51687710D01*
X155212632Y-51687707D01*
X155212632Y-51687705D01*
X155178709Y-51621128D01*
X155119129Y-51504197D01*
X155030299Y-51381932D01*
X154998073Y-51337576D01*
X154998069Y-51337571D01*
X154852428Y-51191930D01*
X154852423Y-51191926D01*
X154685806Y-51070873D01*
X154685805Y-51070872D01*
X154685803Y-51070871D01*
X154628496Y-51041671D01*
X154502294Y-50977367D01*
X154306408Y-50913719D01*
X154130794Y-50885905D01*
X154102981Y-50881500D01*
X153897019Y-50881500D01*
X153872550Y-50885375D01*
X153693591Y-50913719D01*
X153497705Y-50977367D01*
X153314193Y-51070873D01*
X153147576Y-51191926D01*
X153147571Y-51191930D01*
X153001930Y-51337571D01*
X153001926Y-51337576D01*
X152880873Y-51504193D01*
X152787367Y-51687705D01*
X152723719Y-51883591D01*
X152691500Y-52087019D01*
X152278407Y-52087019D01*
X152276280Y-52073592D01*
X152212634Y-51877710D01*
X152212632Y-51877707D01*
X152212632Y-51877705D01*
X152178709Y-51811128D01*
X152119129Y-51694197D01*
X152103661Y-51672908D01*
X151998073Y-51527576D01*
X151998069Y-51527571D01*
X151852428Y-51381930D01*
X151852423Y-51381926D01*
X151685806Y-51260873D01*
X151685805Y-51260872D01*
X151685803Y-51260871D01*
X151628496Y-51231671D01*
X151502294Y-51167367D01*
X151306408Y-51103719D01*
X151130794Y-51075905D01*
X151102981Y-51071500D01*
X150897019Y-51071500D01*
X150872550Y-51075375D01*
X150693591Y-51103719D01*
X150497705Y-51167367D01*
X150314193Y-51260873D01*
X150147576Y-51381926D01*
X150147571Y-51381930D01*
X150001930Y-51527571D01*
X150001926Y-51527576D01*
X149880873Y-51694193D01*
X149787367Y-51877705D01*
X149723719Y-52073591D01*
X149691500Y-52277019D01*
X149308500Y-52277019D01*
X149308500Y-52087019D01*
X149276280Y-51883592D01*
X149212634Y-51687710D01*
X149212632Y-51687707D01*
X149212632Y-51687705D01*
X149178709Y-51621128D01*
X149119129Y-51504197D01*
X149030299Y-51381932D01*
X148998073Y-51337576D01*
X148998069Y-51337571D01*
X148852428Y-51191930D01*
X148852423Y-51191926D01*
X148685806Y-51070873D01*
X148685805Y-51070872D01*
X148685803Y-51070871D01*
X148628496Y-51041671D01*
X148502294Y-50977367D01*
X148306408Y-50913719D01*
X148130794Y-50885905D01*
X148102981Y-50881500D01*
X147897019Y-50881500D01*
X147872550Y-50885375D01*
X147693591Y-50913719D01*
X147497705Y-50977367D01*
X147314193Y-51070873D01*
X147147576Y-51191926D01*
X147147571Y-51191930D01*
X147001930Y-51337571D01*
X147001926Y-51337576D01*
X146880873Y-51504193D01*
X146787367Y-51687705D01*
X146723719Y-51883591D01*
X146691500Y-52087019D01*
X99000000Y-52087019D01*
X99000000Y-48301345D01*
X117437500Y-48301345D01*
X117437500Y-50098654D01*
X117444011Y-50159202D01*
X117444011Y-50159204D01*
X117495111Y-50296204D01*
X117582739Y-50413261D01*
X117699796Y-50500889D01*
X117836799Y-50551989D01*
X117864050Y-50554918D01*
X117897345Y-50558499D01*
X117897362Y-50558500D01*
X119694638Y-50558500D01*
X119694654Y-50558499D01*
X119721692Y-50555591D01*
X119755201Y-50551989D01*
X119892204Y-50500889D01*
X120009261Y-50413261D01*
X120096889Y-50296204D01*
X120141957Y-50175371D01*
X120183827Y-50119442D01*
X120249291Y-50095025D01*
X120317564Y-50109877D01*
X120345818Y-50131028D01*
X120450996Y-50236206D01*
X120623991Y-50361894D01*
X120717438Y-50409507D01*
X120814516Y-50458972D01*
X120814519Y-50458973D01*
X120916200Y-50492010D01*
X121017884Y-50525049D01*
X121229084Y-50558500D01*
X121229085Y-50558500D01*
X121442915Y-50558500D01*
X121442916Y-50558500D01*
X121654116Y-50525049D01*
X121857483Y-50458972D01*
X122048009Y-50361894D01*
X122221004Y-50236206D01*
X122372206Y-50085004D01*
X122497894Y-49912009D01*
X122497896Y-49912004D01*
X122500270Y-49908132D01*
X122552080Y-49861254D01*
X122621009Y-49849829D01*
X122685173Y-49877483D01*
X122711730Y-49908132D01*
X122714103Y-49912005D01*
X122714105Y-49912008D01*
X122714106Y-49912009D01*
X122839794Y-50085004D01*
X122990996Y-50236206D01*
X123163991Y-50361894D01*
X123257438Y-50409507D01*
X123354516Y-50458972D01*
X123354519Y-50458973D01*
X123456200Y-50492010D01*
X123557884Y-50525049D01*
X123769084Y-50558500D01*
X123769085Y-50558500D01*
X123982915Y-50558500D01*
X123982916Y-50558500D01*
X124194116Y-50525049D01*
X124397483Y-50458972D01*
X124588009Y-50361894D01*
X124761004Y-50236206D01*
X124912206Y-50085004D01*
X125037894Y-49912009D01*
X125040283Y-49907319D01*
X125088254Y-49856522D01*
X125156074Y-49839724D01*
X125222210Y-49862258D01*
X125258201Y-49903788D01*
X125258832Y-49903402D01*
X125261164Y-49907207D01*
X125261251Y-49907308D01*
X125261376Y-49907554D01*
X125386272Y-50079459D01*
X125386276Y-50079464D01*
X125536535Y-50229723D01*
X125536540Y-50229727D01*
X125708442Y-50354620D01*
X125897782Y-50451095D01*
X126099871Y-50516757D01*
X126166000Y-50527231D01*
X126166000Y-49633012D01*
X126223007Y-49665925D01*
X126350174Y-49700000D01*
X126481826Y-49700000D01*
X126608993Y-49665925D01*
X126666000Y-49633012D01*
X126666000Y-50527230D01*
X126732126Y-50516757D01*
X126732129Y-50516757D01*
X126934217Y-50451095D01*
X127123557Y-50354620D01*
X127295459Y-50229727D01*
X127295464Y-50229723D01*
X127445723Y-50079464D01*
X127445727Y-50079459D01*
X127570619Y-49907560D01*
X127570738Y-49907327D01*
X127570808Y-49907252D01*
X127573168Y-49903402D01*
X127573976Y-49903897D01*
X127618707Y-49856526D01*
X127686526Y-49839723D01*
X127752663Y-49862254D01*
X127791712Y-49907311D01*
X127794105Y-49912008D01*
X127836002Y-49969674D01*
X127919794Y-50085004D01*
X128070996Y-50236206D01*
X128243991Y-50361894D01*
X128337438Y-50409507D01*
X128434516Y-50458972D01*
X128434519Y-50458973D01*
X128536200Y-50492010D01*
X128637884Y-50525049D01*
X128849084Y-50558500D01*
X128849085Y-50558500D01*
X129062915Y-50558500D01*
X129062916Y-50558500D01*
X129274116Y-50525049D01*
X129477483Y-50458972D01*
X129668009Y-50361894D01*
X129841004Y-50236206D01*
X129992206Y-50085004D01*
X130117894Y-49912009D01*
X130117896Y-49912004D01*
X130120270Y-49908132D01*
X130172080Y-49861254D01*
X130241009Y-49849829D01*
X130305173Y-49877483D01*
X130331730Y-49908132D01*
X130334103Y-49912005D01*
X130334105Y-49912008D01*
X130334106Y-49912009D01*
X130459794Y-50085004D01*
X130610996Y-50236206D01*
X130783991Y-50361894D01*
X130877438Y-50409507D01*
X130974516Y-50458972D01*
X130974519Y-50458973D01*
X131076200Y-50492010D01*
X131177884Y-50525049D01*
X131389084Y-50558500D01*
X131389085Y-50558500D01*
X131602915Y-50558500D01*
X131602916Y-50558500D01*
X131814116Y-50525049D01*
X132017483Y-50458972D01*
X132208009Y-50361894D01*
X132381004Y-50236206D01*
X132532206Y-50085004D01*
X132657894Y-49912009D01*
X132657896Y-49912004D01*
X132660270Y-49908132D01*
X132712080Y-49861254D01*
X132781009Y-49849829D01*
X132845173Y-49877483D01*
X132871730Y-49908132D01*
X132874103Y-49912005D01*
X132874105Y-49912008D01*
X132874106Y-49912009D01*
X132999794Y-50085004D01*
X133150996Y-50236206D01*
X133323991Y-50361894D01*
X133417438Y-50409507D01*
X133514516Y-50458972D01*
X133514519Y-50458973D01*
X133616200Y-50492010D01*
X133717884Y-50525049D01*
X133929084Y-50558500D01*
X133929085Y-50558500D01*
X134142915Y-50558500D01*
X134142916Y-50558500D01*
X134354116Y-50525049D01*
X134557483Y-50458972D01*
X134748009Y-50361894D01*
X134921004Y-50236206D01*
X135072206Y-50085004D01*
X135197894Y-49912009D01*
X135197896Y-49912004D01*
X135200270Y-49908132D01*
X135252080Y-49861254D01*
X135321009Y-49849829D01*
X135385173Y-49877483D01*
X135411730Y-49908132D01*
X135414103Y-49912005D01*
X135414105Y-49912008D01*
X135414106Y-49912009D01*
X135539794Y-50085004D01*
X135690996Y-50236206D01*
X135863991Y-50361894D01*
X135957438Y-50409507D01*
X136054516Y-50458972D01*
X136054519Y-50458973D01*
X136156200Y-50492010D01*
X136257884Y-50525049D01*
X136469084Y-50558500D01*
X136469085Y-50558500D01*
X136682915Y-50558500D01*
X136682916Y-50558500D01*
X136894116Y-50525049D01*
X137097483Y-50458972D01*
X137288009Y-50361894D01*
X137461004Y-50236206D01*
X137612206Y-50085004D01*
X137737894Y-49912009D01*
X137737896Y-49912004D01*
X137740270Y-49908132D01*
X137792080Y-49861254D01*
X137861009Y-49849829D01*
X137925173Y-49877483D01*
X137951730Y-49908132D01*
X137954103Y-49912005D01*
X137954105Y-49912008D01*
X137954106Y-49912009D01*
X138079794Y-50085004D01*
X138230996Y-50236206D01*
X138403991Y-50361894D01*
X138497438Y-50409507D01*
X138594516Y-50458972D01*
X138594519Y-50458973D01*
X138696200Y-50492010D01*
X138797884Y-50525049D01*
X139009084Y-50558500D01*
X139009085Y-50558500D01*
X139222915Y-50558500D01*
X139222916Y-50558500D01*
X139434116Y-50525049D01*
X139637483Y-50458972D01*
X139828009Y-50361894D01*
X140001004Y-50236206D01*
X140152206Y-50085004D01*
X140277894Y-49912009D01*
X140277896Y-49912004D01*
X140280270Y-49908132D01*
X140332080Y-49861254D01*
X140401009Y-49849829D01*
X140465173Y-49877483D01*
X140491730Y-49908132D01*
X140494103Y-49912005D01*
X140494105Y-49912008D01*
X140494106Y-49912009D01*
X140619794Y-50085004D01*
X140770996Y-50236206D01*
X140943991Y-50361894D01*
X141037438Y-50409507D01*
X141134516Y-50458972D01*
X141134519Y-50458973D01*
X141236200Y-50492010D01*
X141337884Y-50525049D01*
X141549084Y-50558500D01*
X141549085Y-50558500D01*
X141762915Y-50558500D01*
X141762916Y-50558500D01*
X141974116Y-50525049D01*
X142177483Y-50458972D01*
X142368009Y-50361894D01*
X142541004Y-50236206D01*
X142692206Y-50085004D01*
X142817894Y-49912009D01*
X142914972Y-49721483D01*
X142981049Y-49518116D01*
X143014500Y-49306916D01*
X143014500Y-49093084D01*
X142981049Y-48881884D01*
X142914972Y-48678517D01*
X142914972Y-48678516D01*
X142881354Y-48612539D01*
X142817894Y-48487991D01*
X142692206Y-48314996D01*
X142678555Y-48301345D01*
X144361500Y-48301345D01*
X144361500Y-50098654D01*
X144368011Y-50159202D01*
X144368011Y-50159204D01*
X144419111Y-50296204D01*
X144506739Y-50413261D01*
X144623796Y-50500889D01*
X144760799Y-50551989D01*
X144788050Y-50554918D01*
X144821345Y-50558499D01*
X144821362Y-50558500D01*
X146618638Y-50558500D01*
X146618654Y-50558499D01*
X146645692Y-50555591D01*
X146679201Y-50551989D01*
X146816204Y-50500889D01*
X146933261Y-50413261D01*
X147020889Y-50296204D01*
X147065957Y-50175371D01*
X147107827Y-50119442D01*
X147173291Y-50095025D01*
X147241564Y-50109877D01*
X147269818Y-50131028D01*
X147374996Y-50236206D01*
X147547991Y-50361894D01*
X147641438Y-50409507D01*
X147738516Y-50458972D01*
X147738519Y-50458973D01*
X147840200Y-50492010D01*
X147941884Y-50525049D01*
X148153084Y-50558500D01*
X148153085Y-50558500D01*
X148366915Y-50558500D01*
X148366916Y-50558500D01*
X148578116Y-50525049D01*
X148781483Y-50458972D01*
X148972009Y-50361894D01*
X149145004Y-50236206D01*
X149296206Y-50085004D01*
X149421894Y-49912009D01*
X149421896Y-49912004D01*
X149424270Y-49908132D01*
X149476080Y-49861254D01*
X149545009Y-49849829D01*
X149609173Y-49877483D01*
X149635730Y-49908132D01*
X149638103Y-49912005D01*
X149638105Y-49912008D01*
X149638106Y-49912009D01*
X149763794Y-50085004D01*
X149914996Y-50236206D01*
X150087991Y-50361894D01*
X150181438Y-50409507D01*
X150278516Y-50458972D01*
X150278519Y-50458973D01*
X150380200Y-50492010D01*
X150481884Y-50525049D01*
X150693084Y-50558500D01*
X150693085Y-50558500D01*
X150906915Y-50558500D01*
X150906916Y-50558500D01*
X151118116Y-50525049D01*
X151321483Y-50458972D01*
X151512009Y-50361894D01*
X151685004Y-50236206D01*
X151836206Y-50085004D01*
X151961894Y-49912009D01*
X151961896Y-49912004D01*
X151964270Y-49908132D01*
X152016080Y-49861254D01*
X152085009Y-49849829D01*
X152149173Y-49877483D01*
X152175730Y-49908132D01*
X152178103Y-49912005D01*
X152178105Y-49912008D01*
X152178106Y-49912009D01*
X152303794Y-50085004D01*
X152454996Y-50236206D01*
X152627991Y-50361894D01*
X152721438Y-50409507D01*
X152818516Y-50458972D01*
X152818519Y-50458973D01*
X152920200Y-50492010D01*
X153021884Y-50525049D01*
X153233084Y-50558500D01*
X153233085Y-50558500D01*
X153446915Y-50558500D01*
X153446916Y-50558500D01*
X153658116Y-50525049D01*
X153861483Y-50458972D01*
X154052009Y-50361894D01*
X154225004Y-50236206D01*
X154376206Y-50085004D01*
X154501894Y-49912009D01*
X154501896Y-49912004D01*
X154504270Y-49908132D01*
X154556080Y-49861254D01*
X154625009Y-49849829D01*
X154689173Y-49877483D01*
X154715730Y-49908132D01*
X154718103Y-49912005D01*
X154718105Y-49912008D01*
X154718106Y-49912009D01*
X154843794Y-50085004D01*
X154994996Y-50236206D01*
X155167991Y-50361894D01*
X155261438Y-50409507D01*
X155358516Y-50458972D01*
X155358519Y-50458973D01*
X155460200Y-50492010D01*
X155561884Y-50525049D01*
X155773084Y-50558500D01*
X155773085Y-50558500D01*
X155986915Y-50558500D01*
X155986916Y-50558500D01*
X156198116Y-50525049D01*
X156401483Y-50458972D01*
X156592009Y-50361894D01*
X156765004Y-50236206D01*
X156916206Y-50085004D01*
X157041894Y-49912009D01*
X157041896Y-49912004D01*
X157044270Y-49908132D01*
X157096080Y-49861254D01*
X157165009Y-49849829D01*
X157229173Y-49877483D01*
X157255730Y-49908132D01*
X157258103Y-49912005D01*
X157258105Y-49912008D01*
X157258106Y-49912009D01*
X157383794Y-50085004D01*
X157534996Y-50236206D01*
X157707991Y-50361894D01*
X157801438Y-50409507D01*
X157898516Y-50458972D01*
X157898519Y-50458973D01*
X158000200Y-50492010D01*
X158101884Y-50525049D01*
X158313084Y-50558500D01*
X158313085Y-50558500D01*
X158526915Y-50558500D01*
X158526916Y-50558500D01*
X158738116Y-50525049D01*
X158941483Y-50458972D01*
X159132009Y-50361894D01*
X159305004Y-50236206D01*
X159456206Y-50085004D01*
X159581894Y-49912009D01*
X159581896Y-49912004D01*
X159584270Y-49908132D01*
X159636080Y-49861254D01*
X159705009Y-49849829D01*
X159769173Y-49877483D01*
X159795730Y-49908132D01*
X159798103Y-49912005D01*
X159798105Y-49912008D01*
X159798106Y-49912009D01*
X159923794Y-50085004D01*
X160074996Y-50236206D01*
X160247991Y-50361894D01*
X160341438Y-50409507D01*
X160438516Y-50458972D01*
X160438519Y-50458973D01*
X160540200Y-50492010D01*
X160641884Y-50525049D01*
X160853084Y-50558500D01*
X160853085Y-50558500D01*
X161066915Y-50558500D01*
X161066916Y-50558500D01*
X161278116Y-50525049D01*
X161481483Y-50458972D01*
X161672009Y-50361894D01*
X161845004Y-50236206D01*
X161996206Y-50085004D01*
X162121894Y-49912009D01*
X162121896Y-49912004D01*
X162124270Y-49908132D01*
X162176080Y-49861254D01*
X162245009Y-49849829D01*
X162309173Y-49877483D01*
X162335730Y-49908132D01*
X162338103Y-49912005D01*
X162338105Y-49912008D01*
X162338106Y-49912009D01*
X162463794Y-50085004D01*
X162614996Y-50236206D01*
X162787991Y-50361894D01*
X162881438Y-50409507D01*
X162978516Y-50458972D01*
X162978519Y-50458973D01*
X163080200Y-50492010D01*
X163181884Y-50525049D01*
X163393084Y-50558500D01*
X163393085Y-50558500D01*
X163606915Y-50558500D01*
X163606916Y-50558500D01*
X163818116Y-50525049D01*
X164021483Y-50458972D01*
X164212009Y-50361894D01*
X164385004Y-50236206D01*
X164536206Y-50085004D01*
X164661894Y-49912009D01*
X164758972Y-49721483D01*
X164825049Y-49518116D01*
X164858500Y-49306916D01*
X164858500Y-49093084D01*
X164825049Y-48881884D01*
X164758972Y-48678517D01*
X164758972Y-48678516D01*
X164709507Y-48581438D01*
X164661894Y-48487991D01*
X164536206Y-48314996D01*
X164385004Y-48163794D01*
X164212009Y-48038106D01*
X164021483Y-47941027D01*
X164021480Y-47941026D01*
X163818117Y-47874951D01*
X163712516Y-47858225D01*
X163606916Y-47841500D01*
X163393084Y-47841500D01*
X163322684Y-47852650D01*
X163181882Y-47874951D01*
X162978519Y-47941026D01*
X162978516Y-47941027D01*
X162787990Y-48038106D01*
X162614993Y-48163796D01*
X162463796Y-48314993D01*
X162338105Y-48487991D01*
X162335727Y-48491873D01*
X162283914Y-48538748D01*
X162214984Y-48550169D01*
X162150822Y-48522512D01*
X162124273Y-48491873D01*
X162121894Y-48487991D01*
X162121891Y-48487987D01*
X161996206Y-48314996D01*
X161845004Y-48163794D01*
X161672009Y-48038106D01*
X161481483Y-47941027D01*
X161481480Y-47941026D01*
X161278117Y-47874951D01*
X161172516Y-47858225D01*
X161066916Y-47841500D01*
X160853084Y-47841500D01*
X160782684Y-47852650D01*
X160641882Y-47874951D01*
X160438519Y-47941026D01*
X160438516Y-47941027D01*
X160247990Y-48038106D01*
X160074993Y-48163796D01*
X159923796Y-48314993D01*
X159798105Y-48487991D01*
X159795727Y-48491873D01*
X159743914Y-48538748D01*
X159674984Y-48550169D01*
X159610822Y-48522512D01*
X159584273Y-48491873D01*
X159581894Y-48487991D01*
X159581891Y-48487987D01*
X159456206Y-48314996D01*
X159305004Y-48163794D01*
X159132009Y-48038106D01*
X158941483Y-47941027D01*
X158941480Y-47941026D01*
X158738117Y-47874951D01*
X158632516Y-47858225D01*
X158526916Y-47841500D01*
X158313084Y-47841500D01*
X158242684Y-47852650D01*
X158101882Y-47874951D01*
X157898519Y-47941026D01*
X157898516Y-47941027D01*
X157707990Y-48038106D01*
X157534993Y-48163796D01*
X157383796Y-48314993D01*
X157258105Y-48487991D01*
X157255727Y-48491873D01*
X157203914Y-48538748D01*
X157134984Y-48550169D01*
X157070822Y-48522512D01*
X157044273Y-48491873D01*
X157041894Y-48487991D01*
X157041891Y-48487987D01*
X156916206Y-48314996D01*
X156765004Y-48163794D01*
X156592009Y-48038106D01*
X156401483Y-47941027D01*
X156401480Y-47941026D01*
X156198117Y-47874951D01*
X156092516Y-47858225D01*
X155986916Y-47841500D01*
X155773084Y-47841500D01*
X155702684Y-47852650D01*
X155561882Y-47874951D01*
X155358519Y-47941026D01*
X155358516Y-47941027D01*
X155167990Y-48038106D01*
X154994993Y-48163796D01*
X154843796Y-48314993D01*
X154718105Y-48487991D01*
X154715727Y-48491873D01*
X154663914Y-48538748D01*
X154594984Y-48550169D01*
X154530822Y-48522512D01*
X154504273Y-48491873D01*
X154501894Y-48487991D01*
X154501891Y-48487987D01*
X154376206Y-48314996D01*
X154225004Y-48163794D01*
X154052009Y-48038106D01*
X153861483Y-47941027D01*
X153861480Y-47941026D01*
X153658117Y-47874951D01*
X153552516Y-47858225D01*
X153446916Y-47841500D01*
X153233084Y-47841500D01*
X153162684Y-47852650D01*
X153021882Y-47874951D01*
X152818519Y-47941026D01*
X152818516Y-47941027D01*
X152627990Y-48038106D01*
X152454993Y-48163796D01*
X152303796Y-48314993D01*
X152178105Y-48487991D01*
X152175727Y-48491873D01*
X152123914Y-48538748D01*
X152054984Y-48550169D01*
X151990822Y-48522512D01*
X151964273Y-48491873D01*
X151961894Y-48487991D01*
X151961891Y-48487987D01*
X151836206Y-48314996D01*
X151685004Y-48163794D01*
X151512009Y-48038106D01*
X151321483Y-47941027D01*
X151321480Y-47941026D01*
X151118117Y-47874951D01*
X151012516Y-47858225D01*
X150906916Y-47841500D01*
X150693084Y-47841500D01*
X150622684Y-47852650D01*
X150481882Y-47874951D01*
X150278519Y-47941026D01*
X150278516Y-47941027D01*
X150087990Y-48038106D01*
X149914993Y-48163796D01*
X149763796Y-48314993D01*
X149638105Y-48487991D01*
X149635727Y-48491873D01*
X149583914Y-48538748D01*
X149514984Y-48550169D01*
X149450822Y-48522512D01*
X149424273Y-48491873D01*
X149421894Y-48487991D01*
X149421891Y-48487987D01*
X149296206Y-48314996D01*
X149145004Y-48163794D01*
X148972009Y-48038106D01*
X148781483Y-47941027D01*
X148781480Y-47941026D01*
X148578117Y-47874951D01*
X148472516Y-47858225D01*
X148366916Y-47841500D01*
X148153084Y-47841500D01*
X148082684Y-47852650D01*
X147941882Y-47874951D01*
X147738519Y-47941026D01*
X147738516Y-47941027D01*
X147547990Y-48038106D01*
X147374997Y-48163793D01*
X147269818Y-48268972D01*
X147208495Y-48302456D01*
X147138803Y-48297472D01*
X147082870Y-48255600D01*
X147065958Y-48224629D01*
X147020889Y-48103796D01*
X146933261Y-47986739D01*
X146816204Y-47899111D01*
X146679203Y-47848011D01*
X146618654Y-47841500D01*
X146618638Y-47841500D01*
X144821362Y-47841500D01*
X144821345Y-47841500D01*
X144760797Y-47848011D01*
X144760795Y-47848011D01*
X144623795Y-47899111D01*
X144506739Y-47986739D01*
X144419111Y-48103795D01*
X144368011Y-48240795D01*
X144368011Y-48240797D01*
X144361500Y-48301345D01*
X142678555Y-48301345D01*
X142541004Y-48163794D01*
X142368009Y-48038106D01*
X142177483Y-47941027D01*
X142177480Y-47941026D01*
X141974117Y-47874951D01*
X141868516Y-47858225D01*
X141762916Y-47841500D01*
X141549084Y-47841500D01*
X141478684Y-47852650D01*
X141337882Y-47874951D01*
X141134519Y-47941026D01*
X141134516Y-47941027D01*
X140943990Y-48038106D01*
X140770993Y-48163796D01*
X140619796Y-48314993D01*
X140494105Y-48487991D01*
X140491727Y-48491873D01*
X140439914Y-48538748D01*
X140370984Y-48550169D01*
X140306822Y-48522512D01*
X140280273Y-48491873D01*
X140277894Y-48487991D01*
X140277891Y-48487987D01*
X140152206Y-48314996D01*
X140001004Y-48163794D01*
X139828009Y-48038106D01*
X139637483Y-47941027D01*
X139637480Y-47941026D01*
X139434117Y-47874951D01*
X139328516Y-47858225D01*
X139222916Y-47841500D01*
X139009084Y-47841500D01*
X138938684Y-47852650D01*
X138797882Y-47874951D01*
X138594519Y-47941026D01*
X138594516Y-47941027D01*
X138403990Y-48038106D01*
X138230993Y-48163796D01*
X138079796Y-48314993D01*
X137954105Y-48487991D01*
X137951727Y-48491873D01*
X137899914Y-48538748D01*
X137830984Y-48550169D01*
X137766822Y-48522512D01*
X137740273Y-48491873D01*
X137737894Y-48487991D01*
X137737891Y-48487987D01*
X137612206Y-48314996D01*
X137461004Y-48163794D01*
X137288009Y-48038106D01*
X137097483Y-47941027D01*
X137097480Y-47941026D01*
X136894117Y-47874951D01*
X136788516Y-47858225D01*
X136682916Y-47841500D01*
X136469084Y-47841500D01*
X136398684Y-47852650D01*
X136257882Y-47874951D01*
X136054519Y-47941026D01*
X136054516Y-47941027D01*
X135863990Y-48038106D01*
X135690993Y-48163796D01*
X135539796Y-48314993D01*
X135414105Y-48487991D01*
X135411727Y-48491873D01*
X135359914Y-48538748D01*
X135290984Y-48550169D01*
X135226822Y-48522512D01*
X135200273Y-48491873D01*
X135197894Y-48487991D01*
X135197891Y-48487987D01*
X135072206Y-48314996D01*
X134921004Y-48163794D01*
X134748009Y-48038106D01*
X134557483Y-47941027D01*
X134557480Y-47941026D01*
X134354117Y-47874951D01*
X134248516Y-47858225D01*
X134142916Y-47841500D01*
X133929084Y-47841500D01*
X133858684Y-47852650D01*
X133717882Y-47874951D01*
X133514519Y-47941026D01*
X133514516Y-47941027D01*
X133323990Y-48038106D01*
X133150993Y-48163796D01*
X132999796Y-48314993D01*
X132874105Y-48487991D01*
X132871727Y-48491873D01*
X132819914Y-48538748D01*
X132750984Y-48550169D01*
X132686822Y-48522512D01*
X132660273Y-48491873D01*
X132657894Y-48487991D01*
X132657891Y-48487987D01*
X132532206Y-48314996D01*
X132381004Y-48163794D01*
X132208009Y-48038106D01*
X132017483Y-47941027D01*
X132017480Y-47941026D01*
X131814117Y-47874951D01*
X131708516Y-47858225D01*
X131602916Y-47841500D01*
X131389084Y-47841500D01*
X131318684Y-47852650D01*
X131177882Y-47874951D01*
X130974519Y-47941026D01*
X130974516Y-47941027D01*
X130783990Y-48038106D01*
X130610993Y-48163796D01*
X130459796Y-48314993D01*
X130334105Y-48487991D01*
X130331727Y-48491873D01*
X130279914Y-48538748D01*
X130210984Y-48550169D01*
X130146822Y-48522512D01*
X130120273Y-48491873D01*
X130117894Y-48487991D01*
X130117891Y-48487987D01*
X129992206Y-48314996D01*
X129841004Y-48163794D01*
X129668009Y-48038106D01*
X129477483Y-47941027D01*
X129477480Y-47941026D01*
X129274117Y-47874951D01*
X129168516Y-47858225D01*
X129062916Y-47841500D01*
X128849084Y-47841500D01*
X128778684Y-47852650D01*
X128637882Y-47874951D01*
X128434519Y-47941026D01*
X128434516Y-47941027D01*
X128243990Y-48038106D01*
X128070993Y-48163796D01*
X127919796Y-48314993D01*
X127794103Y-48487994D01*
X127791709Y-48492693D01*
X127743731Y-48543485D01*
X127675908Y-48560275D01*
X127609775Y-48537732D01*
X127573800Y-48496210D01*
X127573168Y-48496598D01*
X127570829Y-48492781D01*
X127570743Y-48492682D01*
X127570620Y-48492441D01*
X127445727Y-48320540D01*
X127445723Y-48320535D01*
X127295464Y-48170276D01*
X127295459Y-48170272D01*
X127123557Y-48045379D01*
X126934215Y-47948903D01*
X126732124Y-47883241D01*
X126666000Y-47872768D01*
X126666000Y-48766988D01*
X126608993Y-48734075D01*
X126481826Y-48700000D01*
X126350174Y-48700000D01*
X126223007Y-48734075D01*
X126166000Y-48766988D01*
X126166000Y-47872768D01*
X126165999Y-47872768D01*
X126099875Y-47883241D01*
X125897784Y-47948903D01*
X125708442Y-48045379D01*
X125536540Y-48170272D01*
X125536535Y-48170276D01*
X125386276Y-48320535D01*
X125386272Y-48320540D01*
X125261376Y-48492446D01*
X125261374Y-48492448D01*
X125261246Y-48492701D01*
X125261172Y-48492779D01*
X125258832Y-48496598D01*
X125258029Y-48496106D01*
X125213264Y-48543489D01*
X125145441Y-48560274D01*
X125079309Y-48537727D01*
X125040285Y-48492683D01*
X125037895Y-48487992D01*
X125006472Y-48444742D01*
X124912206Y-48314996D01*
X124761004Y-48163794D01*
X124588009Y-48038106D01*
X124397483Y-47941027D01*
X124397480Y-47941026D01*
X124194117Y-47874951D01*
X124088516Y-47858225D01*
X123982916Y-47841500D01*
X123769084Y-47841500D01*
X123698684Y-47852650D01*
X123557882Y-47874951D01*
X123354519Y-47941026D01*
X123354516Y-47941027D01*
X123163990Y-48038106D01*
X122990993Y-48163796D01*
X122839796Y-48314993D01*
X122714105Y-48487991D01*
X122711727Y-48491873D01*
X122659914Y-48538748D01*
X122590984Y-48550169D01*
X122526822Y-48522512D01*
X122500273Y-48491873D01*
X122497894Y-48487991D01*
X122497891Y-48487987D01*
X122372206Y-48314996D01*
X122221004Y-48163794D01*
X122048009Y-48038106D01*
X121857483Y-47941027D01*
X121857480Y-47941026D01*
X121654117Y-47874951D01*
X121548516Y-47858225D01*
X121442916Y-47841500D01*
X121229084Y-47841500D01*
X121158684Y-47852650D01*
X121017882Y-47874951D01*
X120814519Y-47941026D01*
X120814516Y-47941027D01*
X120623990Y-48038106D01*
X120450997Y-48163793D01*
X120345818Y-48268972D01*
X120284495Y-48302456D01*
X120214803Y-48297472D01*
X120158870Y-48255600D01*
X120141958Y-48224629D01*
X120096889Y-48103796D01*
X120009261Y-47986739D01*
X119892204Y-47899111D01*
X119755203Y-47848011D01*
X119694654Y-47841500D01*
X119694638Y-47841500D01*
X117897362Y-47841500D01*
X117897345Y-47841500D01*
X117836797Y-47848011D01*
X117836795Y-47848011D01*
X117699795Y-47899111D01*
X117582739Y-47986739D01*
X117495111Y-48103795D01*
X117444011Y-48240795D01*
X117444011Y-48240797D01*
X117437500Y-48301345D01*
X99000000Y-48301345D01*
X99000000Y-47339510D01*
X99924500Y-47339510D01*
X99924500Y-47339513D01*
X99924500Y-47422000D01*
X99924500Y-47446531D01*
X99953339Y-47486224D01*
X100000000Y-47501385D01*
X100046661Y-47486224D01*
X100075500Y-47446531D01*
X100075500Y-47428092D01*
X100076097Y-47415938D01*
X100083624Y-47339513D01*
X100087494Y-47300220D01*
X100092234Y-47276389D01*
X100124216Y-47170959D01*
X100133508Y-47148526D01*
X100185442Y-47051365D01*
X100198938Y-47031166D01*
X100268827Y-46946006D01*
X100286006Y-46928827D01*
X100371166Y-46858938D01*
X100391365Y-46845442D01*
X100488526Y-46793508D01*
X100510959Y-46784216D01*
X100616389Y-46752234D01*
X100640220Y-46747494D01*
X100755939Y-46736097D01*
X100768093Y-46735500D01*
X100786531Y-46735500D01*
X163417365Y-46735500D01*
X163484404Y-46755185D01*
X163505045Y-46771818D01*
X165997232Y-49264006D01*
X166024981Y-49275500D01*
X166024983Y-49275500D01*
X166055016Y-49275500D01*
X166055018Y-49275500D01*
X166082767Y-49264006D01*
X166104006Y-49242767D01*
X166115500Y-49215018D01*
X166115500Y-49184981D01*
X166104006Y-49157232D01*
X163542767Y-46595994D01*
X163515018Y-46584500D01*
X100786531Y-46584500D01*
X100762000Y-46584500D01*
X100679513Y-46584500D01*
X100679511Y-46584500D01*
X100517715Y-46616683D01*
X100517705Y-46616686D01*
X100365299Y-46679814D01*
X100365297Y-46679815D01*
X100228125Y-46771471D01*
X100228121Y-46771474D01*
X100111474Y-46888121D01*
X100111471Y-46888125D01*
X100019815Y-47025297D01*
X100019814Y-47025299D01*
X99956686Y-47177705D01*
X99956683Y-47177715D01*
X99924500Y-47339510D01*
X99000000Y-47339510D01*
X99000000Y-46124000D01*
X99019685Y-46056961D01*
X99072489Y-46011206D01*
X99124000Y-46000000D01*
X168876000Y-46000000D01*
X168943039Y-46019685D01*
G37*
%TD.AperFunction*%
%TD*%
M02*
