%TF.GenerationSoftware,KiCad,Pcbnew,9.0.7*%
%TF.CreationDate,2026-02-04T15:49:07-07:00*%
%TF.ProjectId,Uno_Shield_DSP_Class_v1,556e6f5f-5368-4696-956c-645f4453505f,rev?*%
%TF.SameCoordinates,Original*%
%TF.FileFunction,Copper,L1,Top*%
%TF.FilePolarity,Positive*%
%FSLAX46Y46*%
G04 Gerber Fmt 4.6, Leading zero omitted, Abs format (unit mm)*
G04 Created by KiCad (PCBNEW 9.0.7) date 2026-02-04 15:49:07*
%MOMM*%
%LPD*%
G01*
G04 APERTURE LIST*
G04 Aperture macros list*
%AMRoundRect*
0 Rectangle with rounded corners*
0 $1 Rounding radius*
0 $2 $3 $4 $5 $6 $7 $8 $9 X,Y pos of 4 corners*
0 Add a 4 corners polygon primitive as box body*
4,1,4,$2,$3,$4,$5,$6,$7,$8,$9,$2,$3,0*
0 Add four circle primitives for the rounded corners*
1,1,$1+$1,$2,$3*
1,1,$1+$1,$4,$5*
1,1,$1+$1,$6,$7*
1,1,$1+$1,$8,$9*
0 Add four rect primitives between the rounded corners*
20,1,$1+$1,$2,$3,$4,$5,0*
20,1,$1+$1,$4,$5,$6,$7,0*
20,1,$1+$1,$6,$7,$8,$9,0*
20,1,$1+$1,$8,$9,$2,$3,0*%
G04 Aperture macros list end*
%TA.AperFunction,ComponentPad*%
%ADD10R,1.700000X1.700000*%
%TD*%
%TA.AperFunction,ComponentPad*%
%ADD11O,1.700000X1.700000*%
%TD*%
%TA.AperFunction,ComponentPad*%
%ADD12C,1.600000*%
%TD*%
%TA.AperFunction,ComponentPad*%
%ADD13C,2.000000*%
%TD*%
%TA.AperFunction,ComponentPad*%
%ADD14C,1.700000*%
%TD*%
%TA.AperFunction,ComponentPad*%
%ADD15O,2.200000X1.200000*%
%TD*%
%TA.AperFunction,ComponentPad*%
%ADD16O,2.300000X1.600000*%
%TD*%
%TA.AperFunction,ComponentPad*%
%ADD17O,1.200000X2.200000*%
%TD*%
%TA.AperFunction,ComponentPad*%
%ADD18O,2.500000X1.600000*%
%TD*%
%TA.AperFunction,ComponentPad*%
%ADD19RoundRect,0.250000X-0.550000X0.550000X-0.550000X-0.550000X0.550000X-0.550000X0.550000X0.550000X0*%
%TD*%
%TA.AperFunction,ComponentPad*%
%ADD20C,1.440000*%
%TD*%
%TA.AperFunction,ComponentPad*%
%ADD21RoundRect,0.250000X-0.950000X-0.550000X0.950000X-0.550000X0.950000X0.550000X-0.950000X0.550000X0*%
%TD*%
%TA.AperFunction,ComponentPad*%
%ADD22O,2.400000X1.600000*%
%TD*%
%TA.AperFunction,Conductor*%
%ADD23C,0.508000*%
%TD*%
%TA.AperFunction,Conductor*%
%ADD24C,0.381000*%
%TD*%
%TA.AperFunction,Conductor*%
%ADD25C,0.304800*%
%TD*%
G04 APERTURE END LIST*
D10*
%TO.P,J1,1,Pin_1*%
%TO.N,unconnected-(J1-Pin_1-Pad1)*%
X127940000Y-97460000D03*
D11*
%TO.P,J1,2,Pin_2*%
%TO.N,/IOREF*%
X130480000Y-97460000D03*
%TO.P,J1,3,Pin_3*%
%TO.N,/~{RESET}*%
X133020000Y-97460000D03*
%TO.P,J1,4,Pin_4*%
%TO.N,+3V3*%
X135560000Y-97460000D03*
%TO.P,J1,5,Pin_5*%
%TO.N,+5V*%
X138100000Y-97460000D03*
%TO.P,J1,6,Pin_6*%
%TO.N,GND*%
X140640000Y-97460000D03*
%TO.P,J1,7,Pin_7*%
X143180000Y-97460000D03*
%TO.P,J1,8,Pin_8*%
%TO.N,VCC*%
X145720000Y-97460000D03*
%TD*%
D10*
%TO.P,J3,1,Pin_1*%
%TO.N,/A0*%
X150800000Y-97460000D03*
D11*
%TO.P,J3,2,Pin_2*%
%TO.N,/A1*%
X153340000Y-97460000D03*
%TO.P,J3,3,Pin_3*%
%TO.N,/IN_RIGHT*%
X155880000Y-97460000D03*
%TO.P,J3,4,Pin_4*%
%TO.N,/IN_LEFT*%
X158420000Y-97460000D03*
%TO.P,J3,5,Pin_5*%
%TO.N,/SDA{slash}A4*%
X160960000Y-97460000D03*
%TO.P,J3,6,Pin_6*%
%TO.N,/SCL{slash}A5*%
X163500000Y-97460000D03*
%TD*%
D10*
%TO.P,J2,1,Pin_1*%
%TO.N,/SCL*%
X118796000Y-49200000D03*
D11*
%TO.P,J2,2,Pin_2*%
%TO.N,/SDA*%
X121336000Y-49200000D03*
%TO.P,J2,3,Pin_3*%
%TO.N,/AREF*%
X123876000Y-49200000D03*
%TO.P,J2,4,Pin_4*%
%TO.N,GND*%
X126416000Y-49200000D03*
%TO.P,J2,5,Pin_5*%
%TO.N,/D9*%
X128956000Y-49200000D03*
%TO.P,J2,6,Pin_6*%
%TO.N,/D8*%
X131496000Y-49200000D03*
%TO.P,J2,7,Pin_7*%
%TO.N,/D7*%
X134036000Y-49200000D03*
%TO.P,J2,8,Pin_8*%
%TO.N,/D6*%
X136576000Y-49200000D03*
%TO.P,J2,9,Pin_9*%
%TO.N,/D5*%
X139116000Y-49200000D03*
%TO.P,J2,10,Pin_10*%
%TO.N,/D4*%
X141656000Y-49200000D03*
%TD*%
D10*
%TO.P,J4,1,Pin_1*%
%TO.N,/D3*%
X145720000Y-49200000D03*
D11*
%TO.P,J4,2,Pin_2*%
%TO.N,/D2*%
X148260000Y-49200000D03*
%TO.P,J4,3,Pin_3*%
%TO.N,/D1*%
X150800000Y-49200000D03*
%TO.P,J4,4,Pin_4*%
%TO.N,/D0*%
X153340000Y-49200000D03*
%TO.P,J4,5,Pin_5*%
%TO.N,/BT2*%
X155880000Y-49200000D03*
%TO.P,J4,6,Pin_6*%
%TO.N,/BT1*%
X158420000Y-49200000D03*
%TO.P,J4,7,Pin_7*%
%TO.N,/TX{slash}1*%
X160960000Y-49200000D03*
%TO.P,J4,8,Pin_8*%
%TO.N,/RX{slash}0*%
X163500000Y-49200000D03*
%TD*%
D12*
%TO.P,R9,1*%
%TO.N,Net-(R10-Pad1)*%
X146066703Y-58335164D03*
%TO.P,R9,2*%
%TO.N,Net-(R7-Pad1)*%
X148606703Y-58335164D03*
%TD*%
%TO.P,R13,1*%
%TO.N,Net-(R13-Pad1)*%
X138625738Y-58356971D03*
%TO.P,R13,2*%
%TO.N,Net-(R11-Pad1)*%
X138625738Y-60896971D03*
%TD*%
%TO.P,R14,1*%
%TO.N,Net-(R13-Pad1)*%
X137925567Y-54596666D03*
%TO.P,R14,2*%
%TO.N,/D5*%
X137925567Y-52056666D03*
%TD*%
%TO.P,R18,1*%
%TO.N,Net-(R17-Pad1)*%
X130457533Y-54596666D03*
%TO.P,R18,2*%
%TO.N,/D7*%
X130457533Y-52056666D03*
%TD*%
%TO.P,R4,1*%
%TO.N,Net-(R3-Pad2)*%
X156593772Y-54631147D03*
%TO.P,R4,2*%
%TO.N,/D0*%
X156593772Y-52091147D03*
%TD*%
%TO.P,R15,1*%
%TO.N,Net-(R15-Pad1)*%
X134928937Y-58332161D03*
%TO.P,R15,2*%
%TO.N,Net-(R13-Pad1)*%
X134928937Y-60872161D03*
%TD*%
%TO.P,R19,1*%
%TO.N,Net-(R19-Pad1)*%
X127460903Y-58332161D03*
%TO.P,R19,2*%
%TO.N,Net-(R17-Pad1)*%
X127460903Y-60872161D03*
%TD*%
%TO.P,C2,1*%
%TO.N,Net-(U1A--)*%
X133000000Y-78000000D03*
%TO.P,C2,2*%
%TO.N,Net-(C2-Pad2)*%
X133000000Y-75500000D03*
%TD*%
%TO.P,R7,1*%
%TO.N,Net-(R7-Pad1)*%
X151504981Y-58409597D03*
%TO.P,R7,2*%
%TO.N,Net-(R5-Pad1)*%
X154044981Y-58409597D03*
%TD*%
%TO.P,R21,1*%
%TO.N,Net-(R21-Pad1)*%
X121990805Y-58336996D03*
%TO.P,R21,2*%
%TO.N,Net-(R19-Pad1)*%
X124530805Y-58336996D03*
%TD*%
D13*
%TO.P,SW2,1,1*%
%TO.N,+5V*%
X165785091Y-61970146D03*
X165785091Y-68470146D03*
%TO.P,SW2,2,2*%
%TO.N,/BT2*%
X161285091Y-61970146D03*
X161285091Y-68470146D03*
%TD*%
D12*
%TO.P,R20,1*%
%TO.N,Net-(R19-Pad1)*%
X126711111Y-54621477D03*
%TO.P,R20,2*%
%TO.N,/D8*%
X126711111Y-52081477D03*
%TD*%
%TO.P,R6,1*%
%TO.N,Net-(R5-Pad1)*%
X152847350Y-54606336D03*
%TO.P,R6,2*%
%TO.N,/D1*%
X152847350Y-52066336D03*
%TD*%
D10*
%TO.P,J7,1,Pin_1*%
%TO.N,/AUDIO_OUT*%
X114460000Y-98000000D03*
D14*
%TO.P,J7,2,Pin_2*%
X117000000Y-98000000D03*
%TO.P,J7,3,Pin_3*%
%TO.N,GND*%
X119540000Y-98000000D03*
%TD*%
D12*
%TO.P,R10,1*%
%TO.N,Net-(R10-Pad1)*%
X145362075Y-54642503D03*
%TO.P,R10,2*%
%TO.N,/D3*%
X145362075Y-52102503D03*
%TD*%
D10*
%TO.P,J5,1,Pin_1*%
%TO.N,unconnected-(J5-Pin_1-Pad1)*%
X148457417Y-63237225D03*
D14*
%TO.P,J5,2,Pin_2*%
%TO.N,unconnected-(J5-Pin_2-Pad2)*%
X148457417Y-65777225D03*
%TO.P,J5,3,Pin_3*%
%TO.N,unconnected-(J5-Pin_3-Pad3)*%
X148457417Y-68317225D03*
%TO.P,J5,4,Pin_4*%
%TO.N,unconnected-(J5-Pin_4-Pad4)*%
X148457417Y-70857225D03*
%TO.P,J5,5,Pin_5*%
%TO.N,/SDA*%
X148457417Y-73397225D03*
%TO.P,J5,6,Pin_6*%
%TO.N,/SCL*%
X148457417Y-75937225D03*
%TO.P,J5,7,Pin_7*%
%TO.N,GND*%
X148457417Y-78477225D03*
%TO.P,J5,8,Pin_8*%
%TO.N,+5V*%
X148457417Y-81017225D03*
%TD*%
D12*
%TO.P,R26,1*%
%TO.N,Net-(R26-Pad1)*%
X109509523Y-58523076D03*
%TO.P,R26,2*%
%TO.N,GND*%
X106969523Y-58523076D03*
%TD*%
D15*
%TO.P,J11,R*%
%TO.N,/AUDIO_OUT*%
X109489660Y-88639587D03*
D16*
%TO.P,J11,RN*%
X109489660Y-91139587D03*
D17*
%TO.P,J11,S*%
%TO.N,GND*%
X104489660Y-93639587D03*
D15*
%TO.P,J11,T*%
%TO.N,/AUDIO_OUT*%
X109489660Y-98639587D03*
D18*
%TO.P,J11,TN*%
X109489660Y-96139587D03*
%TD*%
D12*
%TO.P,R5,1*%
%TO.N,Net-(R5-Pad1)*%
X156971025Y-58409597D03*
%TO.P,R5,2*%
%TO.N,Net-(R3-Pad2)*%
X159511025Y-58409597D03*
%TD*%
D19*
%TO.P,C1,1*%
%TO.N,+5V*%
X164216336Y-76500000D03*
D12*
%TO.P,C1,2*%
%TO.N,GND*%
X164216336Y-79000000D03*
%TD*%
%TO.P,R24,1*%
%TO.N,Net-(C2-Pad2)*%
X129532183Y-75882242D03*
%TO.P,R24,2*%
%TO.N,Net-(U1A--)*%
X129532183Y-78422242D03*
%TD*%
%TO.P,R12,1*%
%TO.N,Net-(R11-Pad1)*%
X141671990Y-54646288D03*
%TO.P,R12,2*%
%TO.N,/D4*%
X141671990Y-52106288D03*
%TD*%
D13*
%TO.P,SW1,1,1*%
%TO.N,+5V*%
X158343155Y-76967040D03*
X151843155Y-76967040D03*
%TO.P,SW1,2,2*%
%TO.N,/BT1*%
X158343155Y-72467040D03*
X151843155Y-72467040D03*
%TD*%
D12*
%TO.P,R11,1*%
%TO.N,Net-(R11-Pad1)*%
X142322539Y-58356971D03*
%TO.P,R11,2*%
%TO.N,Net-(R10-Pad1)*%
X142322539Y-60896971D03*
%TD*%
%TO.P,R22,1*%
%TO.N,Net-(R21-Pad1)*%
X122989499Y-54596666D03*
%TO.P,R22,2*%
%TO.N,/D9*%
X122989499Y-52056666D03*
%TD*%
D10*
%TO.P,J12,1,Pin_1*%
%TO.N,GND*%
X153000000Y-80500000D03*
D14*
%TO.P,J12,2,Pin_2*%
%TO.N,/IN_RIGHT*%
X155540000Y-80500000D03*
%TO.P,J12,3,Pin_3*%
%TO.N,/IN_LEFT*%
X158080000Y-80500000D03*
%TD*%
D12*
%TO.P,R1,1*%
%TO.N,/BT1*%
X164070207Y-52876007D03*
%TO.P,R1,2*%
%TO.N,GND*%
X164070207Y-55416007D03*
%TD*%
%TO.P,R27,1*%
%TO.N,/AUDIO_OUT*%
X129572646Y-83136306D03*
%TO.P,R27,2*%
%TO.N,Net-(C2-Pad2)*%
X129572646Y-80596306D03*
%TD*%
%TO.P,R17,1*%
%TO.N,Net-(R17-Pad1)*%
X131182515Y-58332161D03*
%TO.P,R17,2*%
%TO.N,Net-(R15-Pad1)*%
X131182515Y-60872161D03*
%TD*%
%TO.P,R25,1*%
%TO.N,+5V*%
X113231135Y-58523076D03*
%TO.P,R25,2*%
%TO.N,Net-(R25-Pad2)*%
X115771135Y-58523076D03*
%TD*%
%TO.P,R16,1*%
%TO.N,Net-(R15-Pad1)*%
X134228766Y-54596666D03*
%TO.P,R16,2*%
%TO.N,/D6*%
X134228766Y-52056666D03*
%TD*%
D20*
%TO.P,RV1,1,1*%
%TO.N,+5V*%
X134321116Y-92777815D03*
%TO.P,RV1,2,2*%
%TO.N,/A0*%
X136861116Y-90237815D03*
%TO.P,RV1,3,3*%
%TO.N,GND*%
X134321116Y-87697815D03*
%TD*%
D12*
%TO.P,R2,1*%
%TO.N,/BT2*%
X160348595Y-52868327D03*
%TO.P,R2,2*%
%TO.N,GND*%
X160348595Y-55408327D03*
%TD*%
D21*
%TO.P,U1,1*%
%TO.N,Net-(C2-Pad2)*%
X136097959Y-75293197D03*
D22*
%TO.P,U1,2,-*%
%TO.N,Net-(U1A--)*%
X136097959Y-77833197D03*
%TO.P,U1,3,+*%
%TO.N,Net-(J9-Pin_2)*%
X136097959Y-80373197D03*
%TO.P,U1,4,V-*%
%TO.N,GND*%
X136097959Y-82913197D03*
%TO.P,U1,5,+*%
X143717959Y-82913197D03*
%TO.P,U1,6,-*%
%TO.N,Net-(U1B--)*%
X143717959Y-80373197D03*
%TO.P,U1,7*%
X143717959Y-77833197D03*
%TO.P,U1,8,V+*%
%TO.N,+5V*%
X143717959Y-75293197D03*
%TD*%
D10*
%TO.P,J9,1,Pin_1*%
%TO.N,GND*%
X104000000Y-58000000D03*
D14*
%TO.P,J9,2,Pin_2*%
%TO.N,Net-(J9-Pin_2)*%
X104000000Y-55460000D03*
%TO.P,J9,3,Pin_3*%
%TO.N,Net-(J9-Pin_3)*%
X104000000Y-52920000D03*
%TD*%
D12*
%TO.P,R3,1*%
%TO.N,GND*%
X164181794Y-58372380D03*
%TO.P,R3,2*%
%TO.N,Net-(R3-Pad2)*%
X161641794Y-58372380D03*
%TD*%
D15*
%TO.P,J10,R*%
%TO.N,/IN_RIGHT*%
X159078993Y-93529403D03*
D16*
%TO.P,J10,RN*%
X159078993Y-91029403D03*
D17*
%TO.P,J10,S*%
%TO.N,GND*%
X164078993Y-88529403D03*
D15*
%TO.P,J10,T*%
%TO.N,/IN_LEFT*%
X159078993Y-83529403D03*
D18*
%TO.P,J10,TN*%
X159078993Y-86029403D03*
%TD*%
D20*
%TO.P,RV3,1,1*%
%TO.N,Net-(R25-Pad2)*%
X110835347Y-49116703D03*
%TO.P,RV3,2,2*%
%TO.N,Net-(J9-Pin_3)*%
X108295347Y-51656703D03*
%TO.P,RV3,3,3*%
%TO.N,Net-(R26-Pad1)*%
X110835347Y-54196703D03*
%TD*%
%TO.P,RV2,1,1*%
%TO.N,+5V*%
X141920000Y-89500000D03*
%TO.P,RV2,2,2*%
%TO.N,/A1*%
X144460000Y-92040000D03*
%TO.P,RV2,3,3*%
%TO.N,GND*%
X147000000Y-89500000D03*
%TD*%
D12*
%TO.P,R8,1*%
%TO.N,Net-(R7-Pad1)*%
X149100927Y-54631147D03*
%TO.P,R8,2*%
%TO.N,/D2*%
X149100927Y-52091147D03*
%TD*%
D10*
%TO.P,J6,1,Pin_1*%
%TO.N,GND*%
X109476959Y-62174908D03*
D14*
%TO.P,J6,2,Pin_2*%
%TO.N,+5V*%
X112016959Y-62174908D03*
%TO.P,J6,3,Pin_3*%
%TO.N,/SCL*%
X114556959Y-62174908D03*
%TO.P,J6,4,Pin_4*%
%TO.N,/SDA*%
X117096959Y-62174908D03*
%TD*%
D12*
%TO.P,R23,1*%
%TO.N,Net-(U1A--)*%
X119232234Y-54601501D03*
%TO.P,R23,2*%
%TO.N,Net-(R21-Pad1)*%
X119232234Y-52061501D03*
%TD*%
D23*
%TO.N,+5V*%
X143717959Y-75293197D02*
X145372959Y-76948197D01*
X150750000Y-78060195D02*
X151843155Y-76967040D01*
X158343155Y-76967040D02*
X158967040Y-76967040D01*
X134321116Y-91116114D02*
X136437230Y-89000000D01*
X134321116Y-92777815D02*
X134321116Y-91116114D01*
X141424762Y-73000000D02*
X143717959Y-75293197D01*
X113231135Y-60960732D02*
X113321959Y-60869908D01*
X165785091Y-68470146D02*
X165785091Y-61970146D01*
X136437230Y-89000000D02*
X139500000Y-89000000D01*
X139500000Y-89000000D02*
X140000000Y-89500000D01*
X145372959Y-77932767D02*
X148457417Y-81017225D01*
X113231135Y-58523076D02*
X113231135Y-60960732D01*
X148457417Y-81542583D02*
X141920000Y-88080000D01*
X151843155Y-76967040D02*
X158343155Y-76967040D01*
X150750000Y-78724642D02*
X148457417Y-81017225D01*
X141920000Y-88080000D02*
X141920000Y-89500000D01*
X134321116Y-93681116D02*
X134321116Y-92777815D01*
X112016959Y-62174908D02*
X122842051Y-73000000D01*
X150750000Y-78724642D02*
X150750000Y-78060195D01*
X165785091Y-69285091D02*
X164216336Y-70853846D01*
X140000000Y-89500000D02*
X141920000Y-89500000D01*
X165785091Y-68470146D02*
X165785091Y-69285091D01*
X113231135Y-60960732D02*
X112016959Y-62174908D01*
X122842051Y-73000000D02*
X141424762Y-73000000D01*
X138100000Y-97460000D02*
X134321116Y-93681116D01*
X158967040Y-76967040D02*
X159434080Y-76500000D01*
X164216336Y-70853846D02*
X164216336Y-76500000D01*
X159434080Y-76500000D02*
X164216336Y-76500000D01*
X145372959Y-76948197D02*
X145372959Y-77932767D01*
X148457417Y-81017225D02*
X148457417Y-81542583D01*
D24*
%TO.N,/A0*%
X148308101Y-97460000D02*
X150800000Y-97460000D01*
X136861116Y-90237815D02*
X141085916Y-90237815D01*
X141085916Y-90237815D02*
X148308101Y-97460000D01*
%TO.N,/A1*%
X144460000Y-92040000D02*
X147920000Y-92040000D01*
X147920000Y-92040000D02*
X153340000Y-97460000D01*
%TO.N,/SCL*%
X118738698Y-53410001D02*
X119910001Y-53410001D01*
X146520192Y-74000000D02*
X148457417Y-75937225D01*
X119910001Y-53410001D02*
X121000000Y-54500000D01*
X124382051Y-72000000D02*
X142000000Y-72000000D01*
X114556959Y-62174908D02*
X124382051Y-72000000D01*
X120423382Y-55076618D02*
X120423382Y-60923383D01*
X118040734Y-52712037D02*
X118738698Y-53410001D01*
X115808484Y-60923383D02*
X114556959Y-62174908D01*
X118040734Y-49955266D02*
X118040734Y-52712037D01*
X144000000Y-74000000D02*
X146520192Y-74000000D01*
X118796000Y-49200000D02*
X118040734Y-49955266D01*
X142000000Y-72000000D02*
X144000000Y-74000000D01*
X120423382Y-60923383D02*
X115808484Y-60923383D01*
X121000000Y-54500000D02*
X120423382Y-55076618D01*
%TO.N,/SDA*%
X124180999Y-55625766D02*
X124180999Y-53946130D01*
X146478192Y-71418000D02*
X126340051Y-71418000D01*
X148457417Y-73397225D02*
X146478192Y-71418000D01*
X121336000Y-52088203D02*
X121336000Y-49200000D01*
X122495963Y-53248166D02*
X121336000Y-52088203D01*
X117096959Y-62174908D02*
X119994929Y-62174908D01*
X123339305Y-58830532D02*
X123339305Y-56467460D01*
X123483035Y-53248166D02*
X122495963Y-53248166D01*
X123339305Y-56467460D02*
X124180999Y-55625766D01*
X119994929Y-62174908D02*
X123339305Y-58830532D01*
X117096959Y-62174908D02*
X117544635Y-61727232D01*
X126340051Y-71418000D02*
X117096959Y-62174908D01*
X124180999Y-53946130D02*
X123483035Y-53248166D01*
%TO.N,/BT1*%
X165500000Y-54000000D02*
X165500000Y-60000000D01*
D25*
X151843155Y-72467040D02*
X158343155Y-72467040D01*
D24*
X164000000Y-51000000D02*
X160220000Y-51000000D01*
X165500000Y-60000000D02*
X163500000Y-62000000D01*
X163500000Y-62000000D02*
X163500000Y-69000000D01*
X163500000Y-69000000D02*
X162000000Y-70500000D01*
D25*
X158343155Y-72467040D02*
X160000000Y-70810195D01*
D24*
X164070207Y-51070207D02*
X164000000Y-51000000D01*
D25*
X160000000Y-70810195D02*
X160000000Y-70500000D01*
D24*
X164070207Y-52876007D02*
X164070207Y-51070207D01*
X162000000Y-70500000D02*
X160000000Y-70500000D01*
X164376007Y-52876007D02*
X165500000Y-54000000D01*
X164070207Y-52876007D02*
X164376007Y-52876007D01*
X160220000Y-51000000D02*
X158420000Y-49200000D01*
%TO.N,/BT2*%
X157680000Y-51000000D02*
X155880000Y-49200000D01*
X161285091Y-68470146D02*
X161285091Y-61970146D01*
X162833294Y-55353026D02*
X160348595Y-52868327D01*
X159000000Y-51519732D02*
X159000000Y-51000000D01*
X161285091Y-61970146D02*
X162833294Y-60421943D01*
X162833294Y-60421943D02*
X162833294Y-55353026D01*
X159000000Y-51000000D02*
X157680000Y-51000000D01*
X160348595Y-52868327D02*
X159000000Y-51519732D01*
%TO.N,Net-(C2-Pad2)*%
X137689459Y-78326732D02*
X137689459Y-76884697D01*
X137689459Y-76884697D02*
X136097959Y-75293197D01*
X129532183Y-75882242D02*
X132617758Y-75882242D01*
X129572646Y-80596306D02*
X133632815Y-80596306D01*
X135204424Y-79024697D02*
X136991494Y-79024697D01*
X135891156Y-75500000D02*
X136097959Y-75293197D01*
X132617758Y-75882242D02*
X133000000Y-75500000D01*
X133000000Y-75500000D02*
X135891156Y-75500000D01*
X133632815Y-80596306D02*
X135204424Y-79024697D01*
X136991494Y-79024697D02*
X137689459Y-78326732D01*
%TO.N,Net-(U1A--)*%
X112737599Y-57331576D02*
X110775459Y-59293716D01*
X116264671Y-59714576D02*
X115237741Y-59714576D01*
X129954425Y-78000000D02*
X129532183Y-78422242D01*
X133166803Y-77833197D02*
X133000000Y-78000000D01*
X126508546Y-78422242D02*
X129532183Y-78422242D01*
X110775459Y-59293716D02*
X110775459Y-62689155D01*
X136097959Y-77833197D02*
X133166803Y-77833197D01*
X114422635Y-58029540D02*
X113724671Y-57331576D01*
X115237741Y-59714576D02*
X114422635Y-58899470D01*
X110775459Y-62689155D02*
X126508546Y-78422242D01*
X119232234Y-54601501D02*
X119232234Y-56747013D01*
X113724671Y-57331576D02*
X112737599Y-57331576D01*
X133000000Y-78000000D02*
X129954425Y-78000000D01*
X114422635Y-58899470D02*
X114422635Y-58029540D01*
X119232234Y-56747013D02*
X116264671Y-59714576D01*
%TO.N,/D7*%
X130457533Y-52056666D02*
X133314199Y-49200000D01*
X133314199Y-49200000D02*
X134036000Y-49200000D01*
%TO.N,/D8*%
X126711111Y-52081477D02*
X128614523Y-52081477D01*
X128614523Y-52081477D02*
X131496000Y-49200000D01*
%TO.N,/D9*%
X127266023Y-50889977D02*
X128956000Y-49200000D01*
X122989499Y-52056666D02*
X124156188Y-50889977D01*
X124156188Y-50889977D02*
X127266023Y-50889977D01*
%TO.N,/D6*%
X134228766Y-52056666D02*
X136576000Y-49709432D01*
X136576000Y-49709432D02*
X136576000Y-49200000D01*
%TO.N,/D4*%
X141671990Y-49215990D02*
X141656000Y-49200000D01*
X141671990Y-52106288D02*
X141671990Y-49215990D01*
%TO.N,/D5*%
X137925567Y-50390433D02*
X139116000Y-49200000D01*
X137925567Y-52056666D02*
X137925567Y-50390433D01*
%TO.N,/IN_RIGHT*%
X159078993Y-94261007D02*
X159078993Y-93529403D01*
X159078993Y-91029403D02*
X159078993Y-93529403D01*
X155540000Y-87490410D02*
X155540000Y-80500000D01*
X155880000Y-97460000D02*
X159078993Y-94261007D01*
X159078993Y-91029403D02*
X155540000Y-87490410D01*
%TO.N,/IN_LEFT*%
X159078993Y-86029403D02*
X159078993Y-83529403D01*
X159078993Y-86029403D02*
X159529403Y-86029403D01*
X159529403Y-86029403D02*
X160620493Y-87120493D01*
X159078993Y-81498993D02*
X158080000Y-80500000D01*
X160620493Y-95259507D02*
X158420000Y-97460000D01*
X159078993Y-83529403D02*
X159078993Y-81498993D01*
X160620493Y-87120493D02*
X160620493Y-95259507D01*
D23*
X158529403Y-83529403D02*
X159078993Y-83529403D01*
D24*
%TO.N,/D3*%
X145362075Y-52102503D02*
X145362075Y-49557925D01*
X145362075Y-49557925D02*
X145720000Y-49200000D01*
%TO.N,/D2*%
X149100927Y-52091147D02*
X149100927Y-50040927D01*
X149100927Y-50040927D02*
X148260000Y-49200000D01*
%TO.N,/D0*%
X156593772Y-52091147D02*
X156593772Y-51593772D01*
X155140000Y-51000000D02*
X153340000Y-49200000D01*
X156593772Y-51593772D02*
X156000000Y-51000000D01*
X156000000Y-51000000D02*
X155140000Y-51000000D01*
%TO.N,/D1*%
X152847350Y-50847350D02*
X151200000Y-49200000D01*
X151200000Y-49200000D02*
X150800000Y-49200000D01*
X152847350Y-52066336D02*
X152847350Y-50847350D01*
%TO.N,/AUDIO_OUT*%
X117000000Y-98000000D02*
X114460000Y-98000000D01*
X122130000Y-92870000D02*
X126500000Y-92870000D01*
X109489660Y-96139587D02*
X108698160Y-95348087D01*
X109489660Y-96139587D02*
X109489660Y-98639587D01*
X126500000Y-92870000D02*
X129572646Y-89797354D01*
X113820413Y-98639587D02*
X114460000Y-98000000D01*
X108698160Y-95348087D02*
X108698160Y-91931087D01*
X109489660Y-88639587D02*
X109489660Y-91139587D01*
X108698160Y-91931087D02*
X109489660Y-91139587D01*
X129572646Y-89797354D02*
X129572646Y-83136306D01*
X117000000Y-98000000D02*
X122130000Y-92870000D01*
X109489660Y-98639587D02*
X113820413Y-98639587D01*
%TO.N,Net-(J9-Pin_3)*%
X104000000Y-52920000D02*
X105263297Y-51656703D01*
X105263297Y-51656703D02*
X108295347Y-51656703D01*
%TO.N,Net-(J9-Pin_2)*%
X125461806Y-81944806D02*
X105241500Y-61724500D01*
X105241500Y-56701500D02*
X104000000Y-55460000D01*
X105241500Y-61724500D02*
X105241500Y-56701500D01*
X134526350Y-81944806D02*
X125461806Y-81944806D01*
X136097959Y-80373197D02*
X134526350Y-81944806D01*
%TO.N,Net-(R3-Pad2)*%
X161604577Y-58409597D02*
X161641794Y-58372380D01*
X156593772Y-54631147D02*
X159511025Y-57548400D01*
X159511025Y-58409597D02*
X161604577Y-58409597D01*
X159511025Y-57548400D02*
X159511025Y-58409597D01*
%TO.N,Net-(R5-Pad1)*%
X152847350Y-54606336D02*
X152847350Y-57211966D01*
X154044981Y-58409597D02*
X156971025Y-58409597D01*
X152847350Y-57211966D02*
X154044981Y-58409597D01*
%TO.N,Net-(R7-Pad1)*%
X149100927Y-54631147D02*
X149100927Y-57840940D01*
X149100927Y-57840940D02*
X148606703Y-58335164D01*
X151430548Y-58335164D02*
X151504981Y-58409597D01*
X148606703Y-58335164D02*
X151430548Y-58335164D01*
%TO.N,Net-(R10-Pad1)*%
X145362075Y-57857435D02*
X145362075Y-57630536D01*
X145362075Y-57630536D02*
X146066703Y-58335164D01*
X142322539Y-60896971D02*
X145362075Y-57857435D01*
X145362075Y-54642503D02*
X145362075Y-57630536D01*
%TO.N,Net-(R11-Pad1)*%
X141671990Y-54646288D02*
X141671990Y-57706422D01*
X141671990Y-57706422D02*
X142322539Y-58356971D01*
X139782539Y-60896971D02*
X142322539Y-58356971D01*
X138625738Y-60896971D02*
X139782539Y-60896971D01*
%TO.N,Net-(R13-Pad1)*%
X136110548Y-60872161D02*
X138625738Y-58356971D01*
X137925567Y-57656800D02*
X138625738Y-58356971D01*
X134928937Y-60872161D02*
X136110548Y-60872161D01*
X137925567Y-54596666D02*
X137925567Y-57656800D01*
%TO.N,Net-(R15-Pad1)*%
X132388937Y-60872161D02*
X134928937Y-58332161D01*
X134228766Y-54596666D02*
X134228766Y-57631990D01*
X134228766Y-57631990D02*
X134928937Y-58332161D01*
X131182515Y-60872161D02*
X132388937Y-60872161D01*
%TO.N,Net-(R17-Pad1)*%
X128642515Y-60872161D02*
X131182515Y-58332161D01*
X130457533Y-54596666D02*
X130457533Y-57607179D01*
X127460903Y-60872161D02*
X128642515Y-60872161D01*
X130457533Y-57607179D02*
X131182515Y-58332161D01*
%TO.N,Net-(R19-Pad1)*%
X126711111Y-54621477D02*
X126711111Y-57500000D01*
X124530805Y-58336996D02*
X125874115Y-58336996D01*
X126711111Y-57582369D02*
X127460903Y-58332161D01*
X125874115Y-58336996D02*
X126711111Y-57500000D01*
X126711111Y-57500000D02*
X126711111Y-57582369D01*
%TO.N,Net-(R21-Pad1)*%
X119232234Y-52061501D02*
X120454334Y-52061501D01*
X121990805Y-55595360D02*
X122989499Y-54596666D01*
X120454334Y-52061501D02*
X122989499Y-54596666D01*
X121990805Y-58336996D02*
X121990805Y-55595360D01*
%TO.N,Net-(R25-Pad2)*%
X114971136Y-57723077D02*
X114971136Y-53252492D01*
X115771135Y-58523076D02*
X114971136Y-57723077D01*
X114971136Y-53252492D02*
X110835347Y-49116703D01*
%TO.N,Net-(R26-Pad1)*%
X109509523Y-58523076D02*
X109509523Y-55522527D01*
X109509523Y-55522527D02*
X110835347Y-54196703D01*
%TO.N,Net-(U1B--)*%
X143717959Y-77833197D02*
X143717959Y-80373197D01*
%TD*%
M02*
