%TF.GenerationSoftware,KiCad,Pcbnew,9.0.7*%
%TF.CreationDate,2026-02-04T15:49:08-07:00*%
%TF.ProjectId,Uno_Shield_DSP_Class_v1,556e6f5f-5368-4696-956c-645f4453505f,rev?*%
%TF.SameCoordinates,Original*%
%TF.FileFunction,Legend,Top*%
%TF.FilePolarity,Positive*%
%FSLAX46Y46*%
G04 Gerber Fmt 4.6, Leading zero omitted, Abs format (unit mm)*
G04 Created by KiCad (PCBNEW 9.0.7) date 2026-02-04 15:49:08*
%MOMM*%
%LPD*%
G01*
G04 APERTURE LIST*
%ADD10C,0.150000*%
%ADD11C,0.120000*%
G04 APERTURE END LIST*
D10*
X147170036Y-56069983D02*
X146836703Y-55593792D01*
X146598608Y-56069983D02*
X146598608Y-55069983D01*
X146598608Y-55069983D02*
X146979560Y-55069983D01*
X146979560Y-55069983D02*
X147074798Y-55117602D01*
X147074798Y-55117602D02*
X147122417Y-55165221D01*
X147122417Y-55165221D02*
X147170036Y-55260459D01*
X147170036Y-55260459D02*
X147170036Y-55403316D01*
X147170036Y-55403316D02*
X147122417Y-55498554D01*
X147122417Y-55498554D02*
X147074798Y-55546173D01*
X147074798Y-55546173D02*
X146979560Y-55593792D01*
X146979560Y-55593792D02*
X146598608Y-55593792D01*
X147646227Y-56069983D02*
X147836703Y-56069983D01*
X147836703Y-56069983D02*
X147931941Y-56022364D01*
X147931941Y-56022364D02*
X147979560Y-55974744D01*
X147979560Y-55974744D02*
X148074798Y-55831887D01*
X148074798Y-55831887D02*
X148122417Y-55641411D01*
X148122417Y-55641411D02*
X148122417Y-55260459D01*
X148122417Y-55260459D02*
X148074798Y-55165221D01*
X148074798Y-55165221D02*
X148027179Y-55117602D01*
X148027179Y-55117602D02*
X147931941Y-55069983D01*
X147931941Y-55069983D02*
X147741465Y-55069983D01*
X147741465Y-55069983D02*
X147646227Y-55117602D01*
X147646227Y-55117602D02*
X147598608Y-55165221D01*
X147598608Y-55165221D02*
X147550989Y-55260459D01*
X147550989Y-55260459D02*
X147550989Y-55498554D01*
X147550989Y-55498554D02*
X147598608Y-55593792D01*
X147598608Y-55593792D02*
X147646227Y-55641411D01*
X147646227Y-55641411D02*
X147741465Y-55689030D01*
X147741465Y-55689030D02*
X147931941Y-55689030D01*
X147931941Y-55689030D02*
X148027179Y-55641411D01*
X148027179Y-55641411D02*
X148074798Y-55593792D01*
X148074798Y-55593792D02*
X148122417Y-55498554D01*
X141800557Y-60269828D02*
X141324366Y-60603161D01*
X141800557Y-60841256D02*
X140800557Y-60841256D01*
X140800557Y-60841256D02*
X140800557Y-60460304D01*
X140800557Y-60460304D02*
X140848176Y-60365066D01*
X140848176Y-60365066D02*
X140895795Y-60317447D01*
X140895795Y-60317447D02*
X140991033Y-60269828D01*
X140991033Y-60269828D02*
X141133890Y-60269828D01*
X141133890Y-60269828D02*
X141229128Y-60317447D01*
X141229128Y-60317447D02*
X141276747Y-60365066D01*
X141276747Y-60365066D02*
X141324366Y-60460304D01*
X141324366Y-60460304D02*
X141324366Y-60841256D01*
X141800557Y-59317447D02*
X141800557Y-59888875D01*
X141800557Y-59603161D02*
X140800557Y-59603161D01*
X140800557Y-59603161D02*
X140943414Y-59698399D01*
X140943414Y-59698399D02*
X141038652Y-59793637D01*
X141038652Y-59793637D02*
X141086271Y-59888875D01*
X140800557Y-58984113D02*
X140800557Y-58365066D01*
X140800557Y-58365066D02*
X141181509Y-58698399D01*
X141181509Y-58698399D02*
X141181509Y-58555542D01*
X141181509Y-58555542D02*
X141229128Y-58460304D01*
X141229128Y-58460304D02*
X141276747Y-58412685D01*
X141276747Y-58412685D02*
X141371985Y-58365066D01*
X141371985Y-58365066D02*
X141610080Y-58365066D01*
X141610080Y-58365066D02*
X141705318Y-58412685D01*
X141705318Y-58412685D02*
X141752938Y-58460304D01*
X141752938Y-58460304D02*
X141800557Y-58555542D01*
X141800557Y-58555542D02*
X141800557Y-58841256D01*
X141800557Y-58841256D02*
X141752938Y-58936494D01*
X141752938Y-58936494D02*
X141705318Y-58984113D01*
X135660386Y-53969523D02*
X135184195Y-54302856D01*
X135660386Y-54540951D02*
X134660386Y-54540951D01*
X134660386Y-54540951D02*
X134660386Y-54159999D01*
X134660386Y-54159999D02*
X134708005Y-54064761D01*
X134708005Y-54064761D02*
X134755624Y-54017142D01*
X134755624Y-54017142D02*
X134850862Y-53969523D01*
X134850862Y-53969523D02*
X134993719Y-53969523D01*
X134993719Y-53969523D02*
X135088957Y-54017142D01*
X135088957Y-54017142D02*
X135136576Y-54064761D01*
X135136576Y-54064761D02*
X135184195Y-54159999D01*
X135184195Y-54159999D02*
X135184195Y-54540951D01*
X135660386Y-53017142D02*
X135660386Y-53588570D01*
X135660386Y-53302856D02*
X134660386Y-53302856D01*
X134660386Y-53302856D02*
X134803243Y-53398094D01*
X134803243Y-53398094D02*
X134898481Y-53493332D01*
X134898481Y-53493332D02*
X134946100Y-53588570D01*
X134993719Y-52159999D02*
X135660386Y-52159999D01*
X134612767Y-52398094D02*
X135327052Y-52636189D01*
X135327052Y-52636189D02*
X135327052Y-52017142D01*
X128192352Y-53969523D02*
X127716161Y-54302856D01*
X128192352Y-54540951D02*
X127192352Y-54540951D01*
X127192352Y-54540951D02*
X127192352Y-54159999D01*
X127192352Y-54159999D02*
X127239971Y-54064761D01*
X127239971Y-54064761D02*
X127287590Y-54017142D01*
X127287590Y-54017142D02*
X127382828Y-53969523D01*
X127382828Y-53969523D02*
X127525685Y-53969523D01*
X127525685Y-53969523D02*
X127620923Y-54017142D01*
X127620923Y-54017142D02*
X127668542Y-54064761D01*
X127668542Y-54064761D02*
X127716161Y-54159999D01*
X127716161Y-54159999D02*
X127716161Y-54540951D01*
X128192352Y-53017142D02*
X128192352Y-53588570D01*
X128192352Y-53302856D02*
X127192352Y-53302856D01*
X127192352Y-53302856D02*
X127335209Y-53398094D01*
X127335209Y-53398094D02*
X127430447Y-53493332D01*
X127430447Y-53493332D02*
X127478066Y-53588570D01*
X127620923Y-52445713D02*
X127573304Y-52540951D01*
X127573304Y-52540951D02*
X127525685Y-52588570D01*
X127525685Y-52588570D02*
X127430447Y-52636189D01*
X127430447Y-52636189D02*
X127382828Y-52636189D01*
X127382828Y-52636189D02*
X127287590Y-52588570D01*
X127287590Y-52588570D02*
X127239971Y-52540951D01*
X127239971Y-52540951D02*
X127192352Y-52445713D01*
X127192352Y-52445713D02*
X127192352Y-52255237D01*
X127192352Y-52255237D02*
X127239971Y-52159999D01*
X127239971Y-52159999D02*
X127287590Y-52112380D01*
X127287590Y-52112380D02*
X127382828Y-52064761D01*
X127382828Y-52064761D02*
X127430447Y-52064761D01*
X127430447Y-52064761D02*
X127525685Y-52112380D01*
X127525685Y-52112380D02*
X127573304Y-52159999D01*
X127573304Y-52159999D02*
X127620923Y-52255237D01*
X127620923Y-52255237D02*
X127620923Y-52445713D01*
X127620923Y-52445713D02*
X127668542Y-52540951D01*
X127668542Y-52540951D02*
X127716161Y-52588570D01*
X127716161Y-52588570D02*
X127811399Y-52636189D01*
X127811399Y-52636189D02*
X128001875Y-52636189D01*
X128001875Y-52636189D02*
X128097113Y-52588570D01*
X128097113Y-52588570D02*
X128144733Y-52540951D01*
X128144733Y-52540951D02*
X128192352Y-52445713D01*
X128192352Y-52445713D02*
X128192352Y-52255237D01*
X128192352Y-52255237D02*
X128144733Y-52159999D01*
X128144733Y-52159999D02*
X128097113Y-52112380D01*
X128097113Y-52112380D02*
X128001875Y-52064761D01*
X128001875Y-52064761D02*
X127811399Y-52064761D01*
X127811399Y-52064761D02*
X127716161Y-52112380D01*
X127716161Y-52112380D02*
X127668542Y-52159999D01*
X127668542Y-52159999D02*
X127620923Y-52255237D01*
X154328591Y-53527813D02*
X153852400Y-53861146D01*
X154328591Y-54099241D02*
X153328591Y-54099241D01*
X153328591Y-54099241D02*
X153328591Y-53718289D01*
X153328591Y-53718289D02*
X153376210Y-53623051D01*
X153376210Y-53623051D02*
X153423829Y-53575432D01*
X153423829Y-53575432D02*
X153519067Y-53527813D01*
X153519067Y-53527813D02*
X153661924Y-53527813D01*
X153661924Y-53527813D02*
X153757162Y-53575432D01*
X153757162Y-53575432D02*
X153804781Y-53623051D01*
X153804781Y-53623051D02*
X153852400Y-53718289D01*
X153852400Y-53718289D02*
X153852400Y-54099241D01*
X153661924Y-52670670D02*
X154328591Y-52670670D01*
X153280972Y-52908765D02*
X153995257Y-53146860D01*
X153995257Y-53146860D02*
X153995257Y-52527813D01*
X138103756Y-60245018D02*
X137627565Y-60578351D01*
X138103756Y-60816446D02*
X137103756Y-60816446D01*
X137103756Y-60816446D02*
X137103756Y-60435494D01*
X137103756Y-60435494D02*
X137151375Y-60340256D01*
X137151375Y-60340256D02*
X137198994Y-60292637D01*
X137198994Y-60292637D02*
X137294232Y-60245018D01*
X137294232Y-60245018D02*
X137437089Y-60245018D01*
X137437089Y-60245018D02*
X137532327Y-60292637D01*
X137532327Y-60292637D02*
X137579946Y-60340256D01*
X137579946Y-60340256D02*
X137627565Y-60435494D01*
X137627565Y-60435494D02*
X137627565Y-60816446D01*
X138103756Y-59292637D02*
X138103756Y-59864065D01*
X138103756Y-59578351D02*
X137103756Y-59578351D01*
X137103756Y-59578351D02*
X137246613Y-59673589D01*
X137246613Y-59673589D02*
X137341851Y-59768827D01*
X137341851Y-59768827D02*
X137389470Y-59864065D01*
X137103756Y-58387875D02*
X137103756Y-58864065D01*
X137103756Y-58864065D02*
X137579946Y-58911684D01*
X137579946Y-58911684D02*
X137532327Y-58864065D01*
X137532327Y-58864065D02*
X137484708Y-58768827D01*
X137484708Y-58768827D02*
X137484708Y-58530732D01*
X137484708Y-58530732D02*
X137532327Y-58435494D01*
X137532327Y-58435494D02*
X137579946Y-58387875D01*
X137579946Y-58387875D02*
X137675184Y-58340256D01*
X137675184Y-58340256D02*
X137913279Y-58340256D01*
X137913279Y-58340256D02*
X138008517Y-58387875D01*
X138008517Y-58387875D02*
X138056137Y-58435494D01*
X138056137Y-58435494D02*
X138103756Y-58530732D01*
X138103756Y-58530732D02*
X138103756Y-58768827D01*
X138103756Y-58768827D02*
X138056137Y-58864065D01*
X138056137Y-58864065D02*
X138008517Y-58911684D01*
X130635722Y-60245018D02*
X130159531Y-60578351D01*
X130635722Y-60816446D02*
X129635722Y-60816446D01*
X129635722Y-60816446D02*
X129635722Y-60435494D01*
X129635722Y-60435494D02*
X129683341Y-60340256D01*
X129683341Y-60340256D02*
X129730960Y-60292637D01*
X129730960Y-60292637D02*
X129826198Y-60245018D01*
X129826198Y-60245018D02*
X129969055Y-60245018D01*
X129969055Y-60245018D02*
X130064293Y-60292637D01*
X130064293Y-60292637D02*
X130111912Y-60340256D01*
X130111912Y-60340256D02*
X130159531Y-60435494D01*
X130159531Y-60435494D02*
X130159531Y-60816446D01*
X130635722Y-59292637D02*
X130635722Y-59864065D01*
X130635722Y-59578351D02*
X129635722Y-59578351D01*
X129635722Y-59578351D02*
X129778579Y-59673589D01*
X129778579Y-59673589D02*
X129873817Y-59768827D01*
X129873817Y-59768827D02*
X129921436Y-59864065D01*
X130635722Y-58816446D02*
X130635722Y-58625970D01*
X130635722Y-58625970D02*
X130588103Y-58530732D01*
X130588103Y-58530732D02*
X130540483Y-58483113D01*
X130540483Y-58483113D02*
X130397626Y-58387875D01*
X130397626Y-58387875D02*
X130207150Y-58340256D01*
X130207150Y-58340256D02*
X129826198Y-58340256D01*
X129826198Y-58340256D02*
X129730960Y-58387875D01*
X129730960Y-58387875D02*
X129683341Y-58435494D01*
X129683341Y-58435494D02*
X129635722Y-58530732D01*
X129635722Y-58530732D02*
X129635722Y-58721208D01*
X129635722Y-58721208D02*
X129683341Y-58816446D01*
X129683341Y-58816446D02*
X129730960Y-58864065D01*
X129730960Y-58864065D02*
X129826198Y-58911684D01*
X129826198Y-58911684D02*
X130064293Y-58911684D01*
X130064293Y-58911684D02*
X130159531Y-58864065D01*
X130159531Y-58864065D02*
X130207150Y-58816446D01*
X130207150Y-58816446D02*
X130254769Y-58721208D01*
X130254769Y-58721208D02*
X130254769Y-58530732D01*
X130254769Y-58530732D02*
X130207150Y-58435494D01*
X130207150Y-58435494D02*
X130159531Y-58387875D01*
X130159531Y-58387875D02*
X130064293Y-58340256D01*
X132833333Y-73859580D02*
X132785714Y-73907200D01*
X132785714Y-73907200D02*
X132642857Y-73954819D01*
X132642857Y-73954819D02*
X132547619Y-73954819D01*
X132547619Y-73954819D02*
X132404762Y-73907200D01*
X132404762Y-73907200D02*
X132309524Y-73811961D01*
X132309524Y-73811961D02*
X132261905Y-73716723D01*
X132261905Y-73716723D02*
X132214286Y-73526247D01*
X132214286Y-73526247D02*
X132214286Y-73383390D01*
X132214286Y-73383390D02*
X132261905Y-73192914D01*
X132261905Y-73192914D02*
X132309524Y-73097676D01*
X132309524Y-73097676D02*
X132404762Y-73002438D01*
X132404762Y-73002438D02*
X132547619Y-72954819D01*
X132547619Y-72954819D02*
X132642857Y-72954819D01*
X132642857Y-72954819D02*
X132785714Y-73002438D01*
X132785714Y-73002438D02*
X132833333Y-73050057D01*
X133214286Y-73050057D02*
X133261905Y-73002438D01*
X133261905Y-73002438D02*
X133357143Y-72954819D01*
X133357143Y-72954819D02*
X133595238Y-72954819D01*
X133595238Y-72954819D02*
X133690476Y-73002438D01*
X133690476Y-73002438D02*
X133738095Y-73050057D01*
X133738095Y-73050057D02*
X133785714Y-73145295D01*
X133785714Y-73145295D02*
X133785714Y-73240533D01*
X133785714Y-73240533D02*
X133738095Y-73383390D01*
X133738095Y-73383390D02*
X133166667Y-73954819D01*
X133166667Y-73954819D02*
X133785714Y-73954819D01*
X152608314Y-56144416D02*
X152274981Y-55668225D01*
X152036886Y-56144416D02*
X152036886Y-55144416D01*
X152036886Y-55144416D02*
X152417838Y-55144416D01*
X152417838Y-55144416D02*
X152513076Y-55192035D01*
X152513076Y-55192035D02*
X152560695Y-55239654D01*
X152560695Y-55239654D02*
X152608314Y-55334892D01*
X152608314Y-55334892D02*
X152608314Y-55477749D01*
X152608314Y-55477749D02*
X152560695Y-55572987D01*
X152560695Y-55572987D02*
X152513076Y-55620606D01*
X152513076Y-55620606D02*
X152417838Y-55668225D01*
X152417838Y-55668225D02*
X152036886Y-55668225D01*
X152941648Y-55144416D02*
X153608314Y-55144416D01*
X153608314Y-55144416D02*
X153179743Y-56144416D01*
X122617947Y-56071815D02*
X122284614Y-55595624D01*
X122046519Y-56071815D02*
X122046519Y-55071815D01*
X122046519Y-55071815D02*
X122427471Y-55071815D01*
X122427471Y-55071815D02*
X122522709Y-55119434D01*
X122522709Y-55119434D02*
X122570328Y-55167053D01*
X122570328Y-55167053D02*
X122617947Y-55262291D01*
X122617947Y-55262291D02*
X122617947Y-55405148D01*
X122617947Y-55405148D02*
X122570328Y-55500386D01*
X122570328Y-55500386D02*
X122522709Y-55548005D01*
X122522709Y-55548005D02*
X122427471Y-55595624D01*
X122427471Y-55595624D02*
X122046519Y-55595624D01*
X122998900Y-55167053D02*
X123046519Y-55119434D01*
X123046519Y-55119434D02*
X123141757Y-55071815D01*
X123141757Y-55071815D02*
X123379852Y-55071815D01*
X123379852Y-55071815D02*
X123475090Y-55119434D01*
X123475090Y-55119434D02*
X123522709Y-55167053D01*
X123522709Y-55167053D02*
X123570328Y-55262291D01*
X123570328Y-55262291D02*
X123570328Y-55357529D01*
X123570328Y-55357529D02*
X123522709Y-55500386D01*
X123522709Y-55500386D02*
X122951281Y-56071815D01*
X122951281Y-56071815D02*
X123570328Y-56071815D01*
X124522709Y-56071815D02*
X123951281Y-56071815D01*
X124236995Y-56071815D02*
X124236995Y-55071815D01*
X124236995Y-55071815D02*
X124141757Y-55214672D01*
X124141757Y-55214672D02*
X124046519Y-55309910D01*
X124046519Y-55309910D02*
X123951281Y-55357529D01*
X154152291Y-153523478D02*
X154199910Y-153380621D01*
X154199910Y-153380621D02*
X154199910Y-153142526D01*
X154199910Y-153142526D02*
X154152291Y-153047288D01*
X154152291Y-153047288D02*
X154104671Y-152999669D01*
X154104671Y-152999669D02*
X154009433Y-152952050D01*
X154009433Y-152952050D02*
X153914195Y-152952050D01*
X153914195Y-152952050D02*
X153818957Y-152999669D01*
X153818957Y-152999669D02*
X153771338Y-153047288D01*
X153771338Y-153047288D02*
X153723719Y-153142526D01*
X153723719Y-153142526D02*
X153676100Y-153333002D01*
X153676100Y-153333002D02*
X153628481Y-153428240D01*
X153628481Y-153428240D02*
X153580862Y-153475859D01*
X153580862Y-153475859D02*
X153485624Y-153523478D01*
X153485624Y-153523478D02*
X153390386Y-153523478D01*
X153390386Y-153523478D02*
X153295148Y-153475859D01*
X153295148Y-153475859D02*
X153247529Y-153428240D01*
X153247529Y-153428240D02*
X153199910Y-153333002D01*
X153199910Y-153333002D02*
X153199910Y-153094907D01*
X153199910Y-153094907D02*
X153247529Y-152952050D01*
X153199910Y-152618716D02*
X154199910Y-152380621D01*
X154199910Y-152380621D02*
X153485624Y-152190145D01*
X153485624Y-152190145D02*
X154199910Y-151999669D01*
X154199910Y-151999669D02*
X153199910Y-151761574D01*
X153295148Y-151428240D02*
X153247529Y-151380621D01*
X153247529Y-151380621D02*
X153199910Y-151285383D01*
X153199910Y-151285383D02*
X153199910Y-151047288D01*
X153199910Y-151047288D02*
X153247529Y-150952050D01*
X153247529Y-150952050D02*
X153295148Y-150904431D01*
X153295148Y-150904431D02*
X153390386Y-150856812D01*
X153390386Y-150856812D02*
X153485624Y-150856812D01*
X153485624Y-150856812D02*
X153628481Y-150904431D01*
X153628481Y-150904431D02*
X154199910Y-151475859D01*
X154199910Y-151475859D02*
X154199910Y-150856812D01*
X124445930Y-53994334D02*
X123969739Y-54327667D01*
X124445930Y-54565762D02*
X123445930Y-54565762D01*
X123445930Y-54565762D02*
X123445930Y-54184810D01*
X123445930Y-54184810D02*
X123493549Y-54089572D01*
X123493549Y-54089572D02*
X123541168Y-54041953D01*
X123541168Y-54041953D02*
X123636406Y-53994334D01*
X123636406Y-53994334D02*
X123779263Y-53994334D01*
X123779263Y-53994334D02*
X123874501Y-54041953D01*
X123874501Y-54041953D02*
X123922120Y-54089572D01*
X123922120Y-54089572D02*
X123969739Y-54184810D01*
X123969739Y-54184810D02*
X123969739Y-54565762D01*
X123541168Y-53613381D02*
X123493549Y-53565762D01*
X123493549Y-53565762D02*
X123445930Y-53470524D01*
X123445930Y-53470524D02*
X123445930Y-53232429D01*
X123445930Y-53232429D02*
X123493549Y-53137191D01*
X123493549Y-53137191D02*
X123541168Y-53089572D01*
X123541168Y-53089572D02*
X123636406Y-53041953D01*
X123636406Y-53041953D02*
X123731644Y-53041953D01*
X123731644Y-53041953D02*
X123874501Y-53089572D01*
X123874501Y-53089572D02*
X124445930Y-53661000D01*
X124445930Y-53661000D02*
X124445930Y-53041953D01*
X123445930Y-52422905D02*
X123445930Y-52327667D01*
X123445930Y-52327667D02*
X123493549Y-52232429D01*
X123493549Y-52232429D02*
X123541168Y-52184810D01*
X123541168Y-52184810D02*
X123636406Y-52137191D01*
X123636406Y-52137191D02*
X123826882Y-52089572D01*
X123826882Y-52089572D02*
X124064977Y-52089572D01*
X124064977Y-52089572D02*
X124255453Y-52137191D01*
X124255453Y-52137191D02*
X124350691Y-52184810D01*
X124350691Y-52184810D02*
X124398311Y-52232429D01*
X124398311Y-52232429D02*
X124445930Y-52327667D01*
X124445930Y-52327667D02*
X124445930Y-52422905D01*
X124445930Y-52422905D02*
X124398311Y-52518143D01*
X124398311Y-52518143D02*
X124350691Y-52565762D01*
X124350691Y-52565762D02*
X124255453Y-52613381D01*
X124255453Y-52613381D02*
X124064977Y-52661000D01*
X124064977Y-52661000D02*
X123826882Y-52661000D01*
X123826882Y-52661000D02*
X123636406Y-52613381D01*
X123636406Y-52613381D02*
X123541168Y-52565762D01*
X123541168Y-52565762D02*
X123493549Y-52518143D01*
X123493549Y-52518143D02*
X123445930Y-52422905D01*
X150582169Y-53503002D02*
X150105978Y-53836335D01*
X150582169Y-54074430D02*
X149582169Y-54074430D01*
X149582169Y-54074430D02*
X149582169Y-53693478D01*
X149582169Y-53693478D02*
X149629788Y-53598240D01*
X149629788Y-53598240D02*
X149677407Y-53550621D01*
X149677407Y-53550621D02*
X149772645Y-53503002D01*
X149772645Y-53503002D02*
X149915502Y-53503002D01*
X149915502Y-53503002D02*
X150010740Y-53550621D01*
X150010740Y-53550621D02*
X150058359Y-53598240D01*
X150058359Y-53598240D02*
X150105978Y-53693478D01*
X150105978Y-53693478D02*
X150105978Y-54074430D01*
X149582169Y-52645859D02*
X149582169Y-52836335D01*
X149582169Y-52836335D02*
X149629788Y-52931573D01*
X149629788Y-52931573D02*
X149677407Y-52979192D01*
X149677407Y-52979192D02*
X149820264Y-53074430D01*
X149820264Y-53074430D02*
X150010740Y-53122049D01*
X150010740Y-53122049D02*
X150391692Y-53122049D01*
X150391692Y-53122049D02*
X150486930Y-53074430D01*
X150486930Y-53074430D02*
X150534550Y-53026811D01*
X150534550Y-53026811D02*
X150582169Y-52931573D01*
X150582169Y-52931573D02*
X150582169Y-52741097D01*
X150582169Y-52741097D02*
X150534550Y-52645859D01*
X150534550Y-52645859D02*
X150486930Y-52598240D01*
X150486930Y-52598240D02*
X150391692Y-52550621D01*
X150391692Y-52550621D02*
X150153597Y-52550621D01*
X150153597Y-52550621D02*
X150058359Y-52598240D01*
X150058359Y-52598240D02*
X150010740Y-52645859D01*
X150010740Y-52645859D02*
X149963121Y-52741097D01*
X149963121Y-52741097D02*
X149963121Y-52931573D01*
X149963121Y-52931573D02*
X150010740Y-53026811D01*
X150010740Y-53026811D02*
X150058359Y-53074430D01*
X150058359Y-53074430D02*
X150153597Y-53122049D01*
X111534819Y-98333333D02*
X112249104Y-98333333D01*
X112249104Y-98333333D02*
X112391961Y-98380952D01*
X112391961Y-98380952D02*
X112487200Y-98476190D01*
X112487200Y-98476190D02*
X112534819Y-98619047D01*
X112534819Y-98619047D02*
X112534819Y-98714285D01*
X111534819Y-97952380D02*
X111534819Y-97285714D01*
X111534819Y-97285714D02*
X112534819Y-97714285D01*
X143096894Y-54015360D02*
X142620703Y-54348693D01*
X143096894Y-54586788D02*
X142096894Y-54586788D01*
X142096894Y-54586788D02*
X142096894Y-54205836D01*
X142096894Y-54205836D02*
X142144513Y-54110598D01*
X142144513Y-54110598D02*
X142192132Y-54062979D01*
X142192132Y-54062979D02*
X142287370Y-54015360D01*
X142287370Y-54015360D02*
X142430227Y-54015360D01*
X142430227Y-54015360D02*
X142525465Y-54062979D01*
X142525465Y-54062979D02*
X142573084Y-54110598D01*
X142573084Y-54110598D02*
X142620703Y-54205836D01*
X142620703Y-54205836D02*
X142620703Y-54586788D01*
X143096894Y-53062979D02*
X143096894Y-53634407D01*
X143096894Y-53348693D02*
X142096894Y-53348693D01*
X142096894Y-53348693D02*
X142239751Y-53443931D01*
X142239751Y-53443931D02*
X142334989Y-53539169D01*
X142334989Y-53539169D02*
X142382608Y-53634407D01*
X142096894Y-52443931D02*
X142096894Y-52348693D01*
X142096894Y-52348693D02*
X142144513Y-52253455D01*
X142144513Y-52253455D02*
X142192132Y-52205836D01*
X142192132Y-52205836D02*
X142287370Y-52158217D01*
X142287370Y-52158217D02*
X142477846Y-52110598D01*
X142477846Y-52110598D02*
X142715941Y-52110598D01*
X142715941Y-52110598D02*
X142906417Y-52158217D01*
X142906417Y-52158217D02*
X143001655Y-52205836D01*
X143001655Y-52205836D02*
X143049275Y-52253455D01*
X143049275Y-52253455D02*
X143096894Y-52348693D01*
X143096894Y-52348693D02*
X143096894Y-52443931D01*
X143096894Y-52443931D02*
X143049275Y-52539169D01*
X143049275Y-52539169D02*
X143001655Y-52586788D01*
X143001655Y-52586788D02*
X142906417Y-52634407D01*
X142906417Y-52634407D02*
X142715941Y-52682026D01*
X142715941Y-52682026D02*
X142477846Y-52682026D01*
X142477846Y-52682026D02*
X142287370Y-52634407D01*
X142287370Y-52634407D02*
X142192132Y-52586788D01*
X142192132Y-52586788D02*
X142144513Y-52539169D01*
X142144513Y-52539169D02*
X142096894Y-52443931D01*
X148124083Y-59922044D02*
X148124083Y-60636329D01*
X148124083Y-60636329D02*
X148076464Y-60779186D01*
X148076464Y-60779186D02*
X147981226Y-60874425D01*
X147981226Y-60874425D02*
X147838369Y-60922044D01*
X147838369Y-60922044D02*
X147743131Y-60922044D01*
X149076464Y-59922044D02*
X148600274Y-59922044D01*
X148600274Y-59922044D02*
X148552655Y-60398234D01*
X148552655Y-60398234D02*
X148600274Y-60350615D01*
X148600274Y-60350615D02*
X148695512Y-60302996D01*
X148695512Y-60302996D02*
X148933607Y-60302996D01*
X148933607Y-60302996D02*
X149028845Y-60350615D01*
X149028845Y-60350615D02*
X149076464Y-60398234D01*
X149076464Y-60398234D02*
X149124083Y-60493472D01*
X149124083Y-60493472D02*
X149124083Y-60731567D01*
X149124083Y-60731567D02*
X149076464Y-60826805D01*
X149076464Y-60826805D02*
X149028845Y-60874425D01*
X149028845Y-60874425D02*
X148933607Y-60922044D01*
X148933607Y-60922044D02*
X148695512Y-60922044D01*
X148695512Y-60922044D02*
X148600274Y-60874425D01*
X148600274Y-60874425D02*
X148552655Y-60826805D01*
X107596665Y-61697895D02*
X107263332Y-61221704D01*
X107025237Y-61697895D02*
X107025237Y-60697895D01*
X107025237Y-60697895D02*
X107406189Y-60697895D01*
X107406189Y-60697895D02*
X107501427Y-60745514D01*
X107501427Y-60745514D02*
X107549046Y-60793133D01*
X107549046Y-60793133D02*
X107596665Y-60888371D01*
X107596665Y-60888371D02*
X107596665Y-61031228D01*
X107596665Y-61031228D02*
X107549046Y-61126466D01*
X107549046Y-61126466D02*
X107501427Y-61174085D01*
X107501427Y-61174085D02*
X107406189Y-61221704D01*
X107406189Y-61221704D02*
X107025237Y-61221704D01*
X107977618Y-60793133D02*
X108025237Y-60745514D01*
X108025237Y-60745514D02*
X108120475Y-60697895D01*
X108120475Y-60697895D02*
X108358570Y-60697895D01*
X108358570Y-60697895D02*
X108453808Y-60745514D01*
X108453808Y-60745514D02*
X108501427Y-60793133D01*
X108501427Y-60793133D02*
X108549046Y-60888371D01*
X108549046Y-60888371D02*
X108549046Y-60983609D01*
X108549046Y-60983609D02*
X108501427Y-61126466D01*
X108501427Y-61126466D02*
X107929999Y-61697895D01*
X107929999Y-61697895D02*
X108549046Y-61697895D01*
X109406189Y-60697895D02*
X109215713Y-60697895D01*
X109215713Y-60697895D02*
X109120475Y-60745514D01*
X109120475Y-60745514D02*
X109072856Y-60793133D01*
X109072856Y-60793133D02*
X108977618Y-60935990D01*
X108977618Y-60935990D02*
X108929999Y-61126466D01*
X108929999Y-61126466D02*
X108929999Y-61507418D01*
X108929999Y-61507418D02*
X108977618Y-61602656D01*
X108977618Y-61602656D02*
X109025237Y-61650276D01*
X109025237Y-61650276D02*
X109120475Y-61697895D01*
X109120475Y-61697895D02*
X109310951Y-61697895D01*
X109310951Y-61697895D02*
X109406189Y-61650276D01*
X109406189Y-61650276D02*
X109453808Y-61602656D01*
X109453808Y-61602656D02*
X109501427Y-61507418D01*
X109501427Y-61507418D02*
X109501427Y-61269323D01*
X109501427Y-61269323D02*
X109453808Y-61174085D01*
X109453808Y-61174085D02*
X109406189Y-61126466D01*
X109406189Y-61126466D02*
X109310951Y-61078847D01*
X109310951Y-61078847D02*
X109120475Y-61078847D01*
X109120475Y-61078847D02*
X109025237Y-61126466D01*
X109025237Y-61126466D02*
X108977618Y-61174085D01*
X108977618Y-61174085D02*
X108929999Y-61269323D01*
X112744479Y-94449110D02*
X113458764Y-94449110D01*
X113458764Y-94449110D02*
X113601621Y-94496729D01*
X113601621Y-94496729D02*
X113696860Y-94591967D01*
X113696860Y-94591967D02*
X113744479Y-94734824D01*
X113744479Y-94734824D02*
X113744479Y-94830062D01*
X113744479Y-93449110D02*
X113744479Y-94020538D01*
X113744479Y-93734824D02*
X112744479Y-93734824D01*
X112744479Y-93734824D02*
X112887336Y-93830062D01*
X112887336Y-93830062D02*
X112982574Y-93925300D01*
X112982574Y-93925300D02*
X113030193Y-94020538D01*
X113744479Y-92496729D02*
X113744479Y-93068157D01*
X113744479Y-92782443D02*
X112744479Y-92782443D01*
X112744479Y-92782443D02*
X112887336Y-92877681D01*
X112887336Y-92877681D02*
X112982574Y-92972919D01*
X112982574Y-92972919D02*
X113030193Y-93068157D01*
X158074358Y-56144416D02*
X157741025Y-55668225D01*
X157502930Y-56144416D02*
X157502930Y-55144416D01*
X157502930Y-55144416D02*
X157883882Y-55144416D01*
X157883882Y-55144416D02*
X157979120Y-55192035D01*
X157979120Y-55192035D02*
X158026739Y-55239654D01*
X158026739Y-55239654D02*
X158074358Y-55334892D01*
X158074358Y-55334892D02*
X158074358Y-55477749D01*
X158074358Y-55477749D02*
X158026739Y-55572987D01*
X158026739Y-55572987D02*
X157979120Y-55620606D01*
X157979120Y-55620606D02*
X157883882Y-55668225D01*
X157883882Y-55668225D02*
X157502930Y-55668225D01*
X158979120Y-55144416D02*
X158502930Y-55144416D01*
X158502930Y-55144416D02*
X158455311Y-55620606D01*
X158455311Y-55620606D02*
X158502930Y-55572987D01*
X158502930Y-55572987D02*
X158598168Y-55525368D01*
X158598168Y-55525368D02*
X158836263Y-55525368D01*
X158836263Y-55525368D02*
X158931501Y-55572987D01*
X158931501Y-55572987D02*
X158979120Y-55620606D01*
X158979120Y-55620606D02*
X159026739Y-55715844D01*
X159026739Y-55715844D02*
X159026739Y-55953939D01*
X159026739Y-55953939D02*
X158979120Y-56049177D01*
X158979120Y-56049177D02*
X158931501Y-56096797D01*
X158931501Y-56096797D02*
X158836263Y-56144416D01*
X158836263Y-56144416D02*
X158598168Y-56144416D01*
X158598168Y-56144416D02*
X158502930Y-56096797D01*
X158502930Y-56096797D02*
X158455311Y-56049177D01*
X169825916Y-77916666D02*
X169873536Y-77964285D01*
X169873536Y-77964285D02*
X169921155Y-78107142D01*
X169921155Y-78107142D02*
X169921155Y-78202380D01*
X169921155Y-78202380D02*
X169873536Y-78345237D01*
X169873536Y-78345237D02*
X169778297Y-78440475D01*
X169778297Y-78440475D02*
X169683059Y-78488094D01*
X169683059Y-78488094D02*
X169492583Y-78535713D01*
X169492583Y-78535713D02*
X169349726Y-78535713D01*
X169349726Y-78535713D02*
X169159250Y-78488094D01*
X169159250Y-78488094D02*
X169064012Y-78440475D01*
X169064012Y-78440475D02*
X168968774Y-78345237D01*
X168968774Y-78345237D02*
X168921155Y-78202380D01*
X168921155Y-78202380D02*
X168921155Y-78107142D01*
X168921155Y-78107142D02*
X168968774Y-77964285D01*
X168968774Y-77964285D02*
X169016393Y-77916666D01*
X169921155Y-76964285D02*
X169921155Y-77535713D01*
X169921155Y-77249999D02*
X168921155Y-77249999D01*
X168921155Y-77249999D02*
X169064012Y-77345237D01*
X169064012Y-77345237D02*
X169159250Y-77440475D01*
X169159250Y-77440475D02*
X169206869Y-77535713D01*
X127292495Y-78041424D02*
X126816304Y-78374757D01*
X127292495Y-78612852D02*
X126292495Y-78612852D01*
X126292495Y-78612852D02*
X126292495Y-78231900D01*
X126292495Y-78231900D02*
X126340114Y-78136662D01*
X126340114Y-78136662D02*
X126387733Y-78089043D01*
X126387733Y-78089043D02*
X126482971Y-78041424D01*
X126482971Y-78041424D02*
X126625828Y-78041424D01*
X126625828Y-78041424D02*
X126721066Y-78089043D01*
X126721066Y-78089043D02*
X126768685Y-78136662D01*
X126768685Y-78136662D02*
X126816304Y-78231900D01*
X126816304Y-78231900D02*
X126816304Y-78612852D01*
X126387733Y-77660471D02*
X126340114Y-77612852D01*
X126340114Y-77612852D02*
X126292495Y-77517614D01*
X126292495Y-77517614D02*
X126292495Y-77279519D01*
X126292495Y-77279519D02*
X126340114Y-77184281D01*
X126340114Y-77184281D02*
X126387733Y-77136662D01*
X126387733Y-77136662D02*
X126482971Y-77089043D01*
X126482971Y-77089043D02*
X126578209Y-77089043D01*
X126578209Y-77089043D02*
X126721066Y-77136662D01*
X126721066Y-77136662D02*
X127292495Y-77708090D01*
X127292495Y-77708090D02*
X127292495Y-77089043D01*
X126625828Y-76231900D02*
X127292495Y-76231900D01*
X126244876Y-76469995D02*
X126959161Y-76708090D01*
X126959161Y-76708090D02*
X126959161Y-76089043D01*
X139406809Y-54019145D02*
X138930618Y-54352478D01*
X139406809Y-54590573D02*
X138406809Y-54590573D01*
X138406809Y-54590573D02*
X138406809Y-54209621D01*
X138406809Y-54209621D02*
X138454428Y-54114383D01*
X138454428Y-54114383D02*
X138502047Y-54066764D01*
X138502047Y-54066764D02*
X138597285Y-54019145D01*
X138597285Y-54019145D02*
X138740142Y-54019145D01*
X138740142Y-54019145D02*
X138835380Y-54066764D01*
X138835380Y-54066764D02*
X138882999Y-54114383D01*
X138882999Y-54114383D02*
X138930618Y-54209621D01*
X138930618Y-54209621D02*
X138930618Y-54590573D01*
X139406809Y-53066764D02*
X139406809Y-53638192D01*
X139406809Y-53352478D02*
X138406809Y-53352478D01*
X138406809Y-53352478D02*
X138549666Y-53447716D01*
X138549666Y-53447716D02*
X138644904Y-53542954D01*
X138644904Y-53542954D02*
X138692523Y-53638192D01*
X138502047Y-52685811D02*
X138454428Y-52638192D01*
X138454428Y-52638192D02*
X138406809Y-52542954D01*
X138406809Y-52542954D02*
X138406809Y-52304859D01*
X138406809Y-52304859D02*
X138454428Y-52209621D01*
X138454428Y-52209621D02*
X138502047Y-52162002D01*
X138502047Y-52162002D02*
X138597285Y-52114383D01*
X138597285Y-52114383D02*
X138692523Y-52114383D01*
X138692523Y-52114383D02*
X138835380Y-52162002D01*
X138835380Y-52162002D02*
X139406809Y-52733430D01*
X139406809Y-52733430D02*
X139406809Y-52114383D01*
X153759822Y-79374240D02*
X153902679Y-79421859D01*
X153902679Y-79421859D02*
X154140774Y-79421859D01*
X154140774Y-79421859D02*
X154236012Y-79374240D01*
X154236012Y-79374240D02*
X154283631Y-79326620D01*
X154283631Y-79326620D02*
X154331250Y-79231382D01*
X154331250Y-79231382D02*
X154331250Y-79136144D01*
X154331250Y-79136144D02*
X154283631Y-79040906D01*
X154283631Y-79040906D02*
X154236012Y-78993287D01*
X154236012Y-78993287D02*
X154140774Y-78945668D01*
X154140774Y-78945668D02*
X153950298Y-78898049D01*
X153950298Y-78898049D02*
X153855060Y-78850430D01*
X153855060Y-78850430D02*
X153807441Y-78802811D01*
X153807441Y-78802811D02*
X153759822Y-78707573D01*
X153759822Y-78707573D02*
X153759822Y-78612335D01*
X153759822Y-78612335D02*
X153807441Y-78517097D01*
X153807441Y-78517097D02*
X153855060Y-78469478D01*
X153855060Y-78469478D02*
X153950298Y-78421859D01*
X153950298Y-78421859D02*
X154188393Y-78421859D01*
X154188393Y-78421859D02*
X154331250Y-78469478D01*
X154664584Y-78421859D02*
X154902679Y-79421859D01*
X154902679Y-79421859D02*
X155093155Y-78707573D01*
X155093155Y-78707573D02*
X155283631Y-79421859D01*
X155283631Y-79421859D02*
X155521727Y-78421859D01*
X156426488Y-79421859D02*
X155855060Y-79421859D01*
X156140774Y-79421859D02*
X156140774Y-78421859D01*
X156140774Y-78421859D02*
X156045536Y-78564716D01*
X156045536Y-78564716D02*
X155950298Y-78659954D01*
X155950298Y-78659954D02*
X155855060Y-78707573D01*
X145497358Y-60269828D02*
X145021167Y-60603161D01*
X145497358Y-60841256D02*
X144497358Y-60841256D01*
X144497358Y-60841256D02*
X144497358Y-60460304D01*
X144497358Y-60460304D02*
X144544977Y-60365066D01*
X144544977Y-60365066D02*
X144592596Y-60317447D01*
X144592596Y-60317447D02*
X144687834Y-60269828D01*
X144687834Y-60269828D02*
X144830691Y-60269828D01*
X144830691Y-60269828D02*
X144925929Y-60317447D01*
X144925929Y-60317447D02*
X144973548Y-60365066D01*
X144973548Y-60365066D02*
X145021167Y-60460304D01*
X145021167Y-60460304D02*
X145021167Y-60841256D01*
X145497358Y-59317447D02*
X145497358Y-59888875D01*
X145497358Y-59603161D02*
X144497358Y-59603161D01*
X144497358Y-59603161D02*
X144640215Y-59698399D01*
X144640215Y-59698399D02*
X144735453Y-59793637D01*
X144735453Y-59793637D02*
X144783072Y-59888875D01*
X145497358Y-58365066D02*
X145497358Y-58936494D01*
X145497358Y-58650780D02*
X144497358Y-58650780D01*
X144497358Y-58650780D02*
X144640215Y-58746018D01*
X144640215Y-58746018D02*
X144735453Y-58841256D01*
X144735453Y-58841256D02*
X144783072Y-58936494D01*
X120724318Y-53969523D02*
X120248127Y-54302856D01*
X120724318Y-54540951D02*
X119724318Y-54540951D01*
X119724318Y-54540951D02*
X119724318Y-54159999D01*
X119724318Y-54159999D02*
X119771937Y-54064761D01*
X119771937Y-54064761D02*
X119819556Y-54017142D01*
X119819556Y-54017142D02*
X119914794Y-53969523D01*
X119914794Y-53969523D02*
X120057651Y-53969523D01*
X120057651Y-53969523D02*
X120152889Y-54017142D01*
X120152889Y-54017142D02*
X120200508Y-54064761D01*
X120200508Y-54064761D02*
X120248127Y-54159999D01*
X120248127Y-54159999D02*
X120248127Y-54540951D01*
X119819556Y-53588570D02*
X119771937Y-53540951D01*
X119771937Y-53540951D02*
X119724318Y-53445713D01*
X119724318Y-53445713D02*
X119724318Y-53207618D01*
X119724318Y-53207618D02*
X119771937Y-53112380D01*
X119771937Y-53112380D02*
X119819556Y-53064761D01*
X119819556Y-53064761D02*
X119914794Y-53017142D01*
X119914794Y-53017142D02*
X120010032Y-53017142D01*
X120010032Y-53017142D02*
X120152889Y-53064761D01*
X120152889Y-53064761D02*
X120724318Y-53636189D01*
X120724318Y-53636189D02*
X120724318Y-53017142D01*
X119819556Y-52636189D02*
X119771937Y-52588570D01*
X119771937Y-52588570D02*
X119724318Y-52493332D01*
X119724318Y-52493332D02*
X119724318Y-52255237D01*
X119724318Y-52255237D02*
X119771937Y-52159999D01*
X119771937Y-52159999D02*
X119819556Y-52112380D01*
X119819556Y-52112380D02*
X119914794Y-52064761D01*
X119914794Y-52064761D02*
X120010032Y-52064761D01*
X120010032Y-52064761D02*
X120152889Y-52112380D01*
X120152889Y-52112380D02*
X120724318Y-52683808D01*
X120724318Y-52683808D02*
X120724318Y-52064761D01*
X150074819Y-81309523D02*
X150789104Y-81309523D01*
X150789104Y-81309523D02*
X150931961Y-81357142D01*
X150931961Y-81357142D02*
X151027200Y-81452380D01*
X151027200Y-81452380D02*
X151074819Y-81595237D01*
X151074819Y-81595237D02*
X151074819Y-81690475D01*
X151074819Y-80309523D02*
X151074819Y-80880951D01*
X151074819Y-80595237D02*
X150074819Y-80595237D01*
X150074819Y-80595237D02*
X150217676Y-80690475D01*
X150217676Y-80690475D02*
X150312914Y-80785713D01*
X150312914Y-80785713D02*
X150360533Y-80880951D01*
X150170057Y-79928570D02*
X150122438Y-79880951D01*
X150122438Y-79880951D02*
X150074819Y-79785713D01*
X150074819Y-79785713D02*
X150074819Y-79547618D01*
X150074819Y-79547618D02*
X150122438Y-79452380D01*
X150122438Y-79452380D02*
X150170057Y-79404761D01*
X150170057Y-79404761D02*
X150265295Y-79357142D01*
X150265295Y-79357142D02*
X150360533Y-79357142D01*
X150360533Y-79357142D02*
X150503390Y-79404761D01*
X150503390Y-79404761D02*
X151074819Y-79976189D01*
X151074819Y-79976189D02*
X151074819Y-79357142D01*
X167245026Y-54312673D02*
X166768835Y-54646006D01*
X167245026Y-54884101D02*
X166245026Y-54884101D01*
X166245026Y-54884101D02*
X166245026Y-54503149D01*
X166245026Y-54503149D02*
X166292645Y-54407911D01*
X166292645Y-54407911D02*
X166340264Y-54360292D01*
X166340264Y-54360292D02*
X166435502Y-54312673D01*
X166435502Y-54312673D02*
X166578359Y-54312673D01*
X166578359Y-54312673D02*
X166673597Y-54360292D01*
X166673597Y-54360292D02*
X166721216Y-54407911D01*
X166721216Y-54407911D02*
X166768835Y-54503149D01*
X166768835Y-54503149D02*
X166768835Y-54884101D01*
X167245026Y-53360292D02*
X167245026Y-53931720D01*
X167245026Y-53646006D02*
X166245026Y-53646006D01*
X166245026Y-53646006D02*
X166387883Y-53741244D01*
X166387883Y-53741244D02*
X166483121Y-53836482D01*
X166483121Y-53836482D02*
X166530740Y-53931720D01*
X127307465Y-82509163D02*
X126831274Y-82842496D01*
X127307465Y-83080591D02*
X126307465Y-83080591D01*
X126307465Y-83080591D02*
X126307465Y-82699639D01*
X126307465Y-82699639D02*
X126355084Y-82604401D01*
X126355084Y-82604401D02*
X126402703Y-82556782D01*
X126402703Y-82556782D02*
X126497941Y-82509163D01*
X126497941Y-82509163D02*
X126640798Y-82509163D01*
X126640798Y-82509163D02*
X126736036Y-82556782D01*
X126736036Y-82556782D02*
X126783655Y-82604401D01*
X126783655Y-82604401D02*
X126831274Y-82699639D01*
X126831274Y-82699639D02*
X126831274Y-83080591D01*
X126402703Y-82128210D02*
X126355084Y-82080591D01*
X126355084Y-82080591D02*
X126307465Y-81985353D01*
X126307465Y-81985353D02*
X126307465Y-81747258D01*
X126307465Y-81747258D02*
X126355084Y-81652020D01*
X126355084Y-81652020D02*
X126402703Y-81604401D01*
X126402703Y-81604401D02*
X126497941Y-81556782D01*
X126497941Y-81556782D02*
X126593179Y-81556782D01*
X126593179Y-81556782D02*
X126736036Y-81604401D01*
X126736036Y-81604401D02*
X127307465Y-82175829D01*
X127307465Y-82175829D02*
X127307465Y-81556782D01*
X126307465Y-81223448D02*
X126307465Y-80556782D01*
X126307465Y-80556782D02*
X127307465Y-80985353D01*
X134357334Y-60245018D02*
X133881143Y-60578351D01*
X134357334Y-60816446D02*
X133357334Y-60816446D01*
X133357334Y-60816446D02*
X133357334Y-60435494D01*
X133357334Y-60435494D02*
X133404953Y-60340256D01*
X133404953Y-60340256D02*
X133452572Y-60292637D01*
X133452572Y-60292637D02*
X133547810Y-60245018D01*
X133547810Y-60245018D02*
X133690667Y-60245018D01*
X133690667Y-60245018D02*
X133785905Y-60292637D01*
X133785905Y-60292637D02*
X133833524Y-60340256D01*
X133833524Y-60340256D02*
X133881143Y-60435494D01*
X133881143Y-60435494D02*
X133881143Y-60816446D01*
X134357334Y-59292637D02*
X134357334Y-59864065D01*
X134357334Y-59578351D02*
X133357334Y-59578351D01*
X133357334Y-59578351D02*
X133500191Y-59673589D01*
X133500191Y-59673589D02*
X133595429Y-59768827D01*
X133595429Y-59768827D02*
X133643048Y-59864065D01*
X133357334Y-58959303D02*
X133357334Y-58292637D01*
X133357334Y-58292637D02*
X134357334Y-58721208D01*
X117458277Y-59977895D02*
X117124944Y-59501704D01*
X116886849Y-59977895D02*
X116886849Y-58977895D01*
X116886849Y-58977895D02*
X117267801Y-58977895D01*
X117267801Y-58977895D02*
X117363039Y-59025514D01*
X117363039Y-59025514D02*
X117410658Y-59073133D01*
X117410658Y-59073133D02*
X117458277Y-59168371D01*
X117458277Y-59168371D02*
X117458277Y-59311228D01*
X117458277Y-59311228D02*
X117410658Y-59406466D01*
X117410658Y-59406466D02*
X117363039Y-59454085D01*
X117363039Y-59454085D02*
X117267801Y-59501704D01*
X117267801Y-59501704D02*
X116886849Y-59501704D01*
X117839230Y-59073133D02*
X117886849Y-59025514D01*
X117886849Y-59025514D02*
X117982087Y-58977895D01*
X117982087Y-58977895D02*
X118220182Y-58977895D01*
X118220182Y-58977895D02*
X118315420Y-59025514D01*
X118315420Y-59025514D02*
X118363039Y-59073133D01*
X118363039Y-59073133D02*
X118410658Y-59168371D01*
X118410658Y-59168371D02*
X118410658Y-59263609D01*
X118410658Y-59263609D02*
X118363039Y-59406466D01*
X118363039Y-59406466D02*
X117791611Y-59977895D01*
X117791611Y-59977895D02*
X118410658Y-59977895D01*
X119315420Y-58977895D02*
X118839230Y-58977895D01*
X118839230Y-58977895D02*
X118791611Y-59454085D01*
X118791611Y-59454085D02*
X118839230Y-59406466D01*
X118839230Y-59406466D02*
X118934468Y-59358847D01*
X118934468Y-59358847D02*
X119172563Y-59358847D01*
X119172563Y-59358847D02*
X119267801Y-59406466D01*
X119267801Y-59406466D02*
X119315420Y-59454085D01*
X119315420Y-59454085D02*
X119363039Y-59549323D01*
X119363039Y-59549323D02*
X119363039Y-59787418D01*
X119363039Y-59787418D02*
X119315420Y-59882656D01*
X119315420Y-59882656D02*
X119267801Y-59930276D01*
X119267801Y-59930276D02*
X119172563Y-59977895D01*
X119172563Y-59977895D02*
X118934468Y-59977895D01*
X118934468Y-59977895D02*
X118839230Y-59930276D01*
X118839230Y-59930276D02*
X118791611Y-59882656D01*
X131963585Y-53969523D02*
X131487394Y-54302856D01*
X131963585Y-54540951D02*
X130963585Y-54540951D01*
X130963585Y-54540951D02*
X130963585Y-54159999D01*
X130963585Y-54159999D02*
X131011204Y-54064761D01*
X131011204Y-54064761D02*
X131058823Y-54017142D01*
X131058823Y-54017142D02*
X131154061Y-53969523D01*
X131154061Y-53969523D02*
X131296918Y-53969523D01*
X131296918Y-53969523D02*
X131392156Y-54017142D01*
X131392156Y-54017142D02*
X131439775Y-54064761D01*
X131439775Y-54064761D02*
X131487394Y-54159999D01*
X131487394Y-54159999D02*
X131487394Y-54540951D01*
X131963585Y-53017142D02*
X131963585Y-53588570D01*
X131963585Y-53302856D02*
X130963585Y-53302856D01*
X130963585Y-53302856D02*
X131106442Y-53398094D01*
X131106442Y-53398094D02*
X131201680Y-53493332D01*
X131201680Y-53493332D02*
X131249299Y-53588570D01*
X130963585Y-52159999D02*
X130963585Y-52350475D01*
X130963585Y-52350475D02*
X131011204Y-52445713D01*
X131011204Y-52445713D02*
X131058823Y-52493332D01*
X131058823Y-52493332D02*
X131201680Y-52588570D01*
X131201680Y-52588570D02*
X131392156Y-52636189D01*
X131392156Y-52636189D02*
X131773108Y-52636189D01*
X131773108Y-52636189D02*
X131868346Y-52588570D01*
X131868346Y-52588570D02*
X131915966Y-52540951D01*
X131915966Y-52540951D02*
X131963585Y-52445713D01*
X131963585Y-52445713D02*
X131963585Y-52255237D01*
X131963585Y-52255237D02*
X131915966Y-52159999D01*
X131915966Y-52159999D02*
X131868346Y-52112380D01*
X131868346Y-52112380D02*
X131773108Y-52064761D01*
X131773108Y-52064761D02*
X131535013Y-52064761D01*
X131535013Y-52064761D02*
X131439775Y-52112380D01*
X131439775Y-52112380D02*
X131392156Y-52159999D01*
X131392156Y-52159999D02*
X131344537Y-52255237D01*
X131344537Y-52255237D02*
X131344537Y-52445713D01*
X131344537Y-52445713D02*
X131392156Y-52540951D01*
X131392156Y-52540951D02*
X131439775Y-52588570D01*
X131439775Y-52588570D02*
X131535013Y-52636189D01*
X133710877Y-84677634D02*
X133377544Y-84201443D01*
X133139449Y-84677634D02*
X133139449Y-83677634D01*
X133139449Y-83677634D02*
X133520401Y-83677634D01*
X133520401Y-83677634D02*
X133615639Y-83725253D01*
X133615639Y-83725253D02*
X133663258Y-83772872D01*
X133663258Y-83772872D02*
X133710877Y-83868110D01*
X133710877Y-83868110D02*
X133710877Y-84010967D01*
X133710877Y-84010967D02*
X133663258Y-84106205D01*
X133663258Y-84106205D02*
X133615639Y-84153824D01*
X133615639Y-84153824D02*
X133520401Y-84201443D01*
X133520401Y-84201443D02*
X133139449Y-84201443D01*
X133996592Y-83677634D02*
X134329925Y-84677634D01*
X134329925Y-84677634D02*
X134663258Y-83677634D01*
X135520401Y-84677634D02*
X134948973Y-84677634D01*
X135234687Y-84677634D02*
X135234687Y-83677634D01*
X135234687Y-83677634D02*
X135139449Y-83820491D01*
X135139449Y-83820491D02*
X135044211Y-83915729D01*
X135044211Y-83915729D02*
X134948973Y-83963348D01*
X163523414Y-54304993D02*
X163047223Y-54638326D01*
X163523414Y-54876421D02*
X162523414Y-54876421D01*
X162523414Y-54876421D02*
X162523414Y-54495469D01*
X162523414Y-54495469D02*
X162571033Y-54400231D01*
X162571033Y-54400231D02*
X162618652Y-54352612D01*
X162618652Y-54352612D02*
X162713890Y-54304993D01*
X162713890Y-54304993D02*
X162856747Y-54304993D01*
X162856747Y-54304993D02*
X162951985Y-54352612D01*
X162951985Y-54352612D02*
X162999604Y-54400231D01*
X162999604Y-54400231D02*
X163047223Y-54495469D01*
X163047223Y-54495469D02*
X163047223Y-54876421D01*
X162618652Y-53924040D02*
X162571033Y-53876421D01*
X162571033Y-53876421D02*
X162523414Y-53781183D01*
X162523414Y-53781183D02*
X162523414Y-53543088D01*
X162523414Y-53543088D02*
X162571033Y-53447850D01*
X162571033Y-53447850D02*
X162618652Y-53400231D01*
X162618652Y-53400231D02*
X162713890Y-53352612D01*
X162713890Y-53352612D02*
X162809128Y-53352612D01*
X162809128Y-53352612D02*
X162951985Y-53400231D01*
X162951985Y-53400231D02*
X163523414Y-53971659D01*
X163523414Y-53971659D02*
X163523414Y-53352612D01*
X139146054Y-72418016D02*
X139146054Y-73227539D01*
X139146054Y-73227539D02*
X139193673Y-73322777D01*
X139193673Y-73322777D02*
X139241292Y-73370397D01*
X139241292Y-73370397D02*
X139336530Y-73418016D01*
X139336530Y-73418016D02*
X139527006Y-73418016D01*
X139527006Y-73418016D02*
X139622244Y-73370397D01*
X139622244Y-73370397D02*
X139669863Y-73322777D01*
X139669863Y-73322777D02*
X139717482Y-73227539D01*
X139717482Y-73227539D02*
X139717482Y-72418016D01*
X140717482Y-73418016D02*
X140146054Y-73418016D01*
X140431768Y-73418016D02*
X140431768Y-72418016D01*
X140431768Y-72418016D02*
X140336530Y-72560873D01*
X140336530Y-72560873D02*
X140241292Y-72656111D01*
X140241292Y-72656111D02*
X140146054Y-72703730D01*
X103666666Y-49914819D02*
X103666666Y-50629104D01*
X103666666Y-50629104D02*
X103619047Y-50771961D01*
X103619047Y-50771961D02*
X103523809Y-50867200D01*
X103523809Y-50867200D02*
X103380952Y-50914819D01*
X103380952Y-50914819D02*
X103285714Y-50914819D01*
X104190476Y-50914819D02*
X104380952Y-50914819D01*
X104380952Y-50914819D02*
X104476190Y-50867200D01*
X104476190Y-50867200D02*
X104523809Y-50819580D01*
X104523809Y-50819580D02*
X104619047Y-50676723D01*
X104619047Y-50676723D02*
X104666666Y-50486247D01*
X104666666Y-50486247D02*
X104666666Y-50105295D01*
X104666666Y-50105295D02*
X104619047Y-50010057D01*
X104619047Y-50010057D02*
X104571428Y-49962438D01*
X104571428Y-49962438D02*
X104476190Y-49914819D01*
X104476190Y-49914819D02*
X104285714Y-49914819D01*
X104285714Y-49914819D02*
X104190476Y-49962438D01*
X104190476Y-49962438D02*
X104142857Y-50010057D01*
X104142857Y-50010057D02*
X104095238Y-50105295D01*
X104095238Y-50105295D02*
X104095238Y-50343390D01*
X104095238Y-50343390D02*
X104142857Y-50438628D01*
X104142857Y-50438628D02*
X104190476Y-50486247D01*
X104190476Y-50486247D02*
X104285714Y-50533866D01*
X104285714Y-50533866D02*
X104476190Y-50533866D01*
X104476190Y-50533866D02*
X104571428Y-50486247D01*
X104571428Y-50486247D02*
X104619047Y-50438628D01*
X104619047Y-50438628D02*
X104666666Y-50343390D01*
X162745127Y-61547199D02*
X162411794Y-61071008D01*
X162173699Y-61547199D02*
X162173699Y-60547199D01*
X162173699Y-60547199D02*
X162554651Y-60547199D01*
X162554651Y-60547199D02*
X162649889Y-60594818D01*
X162649889Y-60594818D02*
X162697508Y-60642437D01*
X162697508Y-60642437D02*
X162745127Y-60737675D01*
X162745127Y-60737675D02*
X162745127Y-60880532D01*
X162745127Y-60880532D02*
X162697508Y-60975770D01*
X162697508Y-60975770D02*
X162649889Y-61023389D01*
X162649889Y-61023389D02*
X162554651Y-61071008D01*
X162554651Y-61071008D02*
X162173699Y-61071008D01*
X163078461Y-60547199D02*
X163697508Y-60547199D01*
X163697508Y-60547199D02*
X163364175Y-60928151D01*
X163364175Y-60928151D02*
X163507032Y-60928151D01*
X163507032Y-60928151D02*
X163602270Y-60975770D01*
X163602270Y-60975770D02*
X163649889Y-61023389D01*
X163649889Y-61023389D02*
X163697508Y-61118627D01*
X163697508Y-61118627D02*
X163697508Y-61356722D01*
X163697508Y-61356722D02*
X163649889Y-61451960D01*
X163649889Y-61451960D02*
X163602270Y-61499580D01*
X163602270Y-61499580D02*
X163507032Y-61547199D01*
X163507032Y-61547199D02*
X163221318Y-61547199D01*
X163221318Y-61547199D02*
X163126080Y-61499580D01*
X163126080Y-61499580D02*
X163078461Y-61451960D01*
X154733812Y-89338926D02*
X155448097Y-89338926D01*
X155448097Y-89338926D02*
X155590954Y-89386545D01*
X155590954Y-89386545D02*
X155686193Y-89481783D01*
X155686193Y-89481783D02*
X155733812Y-89624640D01*
X155733812Y-89624640D02*
X155733812Y-89719878D01*
X155733812Y-88338926D02*
X155733812Y-88910354D01*
X155733812Y-88624640D02*
X154733812Y-88624640D01*
X154733812Y-88624640D02*
X154876669Y-88719878D01*
X154876669Y-88719878D02*
X154971907Y-88815116D01*
X154971907Y-88815116D02*
X155019526Y-88910354D01*
X154733812Y-87719878D02*
X154733812Y-87624640D01*
X154733812Y-87624640D02*
X154781431Y-87529402D01*
X154781431Y-87529402D02*
X154829050Y-87481783D01*
X154829050Y-87481783D02*
X154924288Y-87434164D01*
X154924288Y-87434164D02*
X155114764Y-87386545D01*
X155114764Y-87386545D02*
X155352859Y-87386545D01*
X155352859Y-87386545D02*
X155543335Y-87434164D01*
X155543335Y-87434164D02*
X155638573Y-87481783D01*
X155638573Y-87481783D02*
X155686193Y-87529402D01*
X155686193Y-87529402D02*
X155733812Y-87624640D01*
X155733812Y-87624640D02*
X155733812Y-87719878D01*
X155733812Y-87719878D02*
X155686193Y-87815116D01*
X155686193Y-87815116D02*
X155638573Y-87862735D01*
X155638573Y-87862735D02*
X155543335Y-87910354D01*
X155543335Y-87910354D02*
X155352859Y-87957973D01*
X155352859Y-87957973D02*
X155114764Y-87957973D01*
X155114764Y-87957973D02*
X154924288Y-87910354D01*
X154924288Y-87910354D02*
X154829050Y-87862735D01*
X154829050Y-87862735D02*
X154781431Y-87815116D01*
X154781431Y-87815116D02*
X154733812Y-87719878D01*
X110255108Y-58126522D02*
X109921775Y-57650331D01*
X109683680Y-58126522D02*
X109683680Y-57126522D01*
X109683680Y-57126522D02*
X110064632Y-57126522D01*
X110064632Y-57126522D02*
X110159870Y-57174141D01*
X110159870Y-57174141D02*
X110207489Y-57221760D01*
X110207489Y-57221760D02*
X110255108Y-57316998D01*
X110255108Y-57316998D02*
X110255108Y-57459855D01*
X110255108Y-57459855D02*
X110207489Y-57555093D01*
X110207489Y-57555093D02*
X110159870Y-57602712D01*
X110159870Y-57602712D02*
X110064632Y-57650331D01*
X110064632Y-57650331D02*
X109683680Y-57650331D01*
X110540823Y-57126522D02*
X110874156Y-58126522D01*
X110874156Y-58126522D02*
X111207489Y-57126522D01*
X111445585Y-57126522D02*
X112064632Y-57126522D01*
X112064632Y-57126522D02*
X111731299Y-57507474D01*
X111731299Y-57507474D02*
X111874156Y-57507474D01*
X111874156Y-57507474D02*
X111969394Y-57555093D01*
X111969394Y-57555093D02*
X112017013Y-57602712D01*
X112017013Y-57602712D02*
X112064632Y-57697950D01*
X112064632Y-57697950D02*
X112064632Y-57936045D01*
X112064632Y-57936045D02*
X112017013Y-58031283D01*
X112017013Y-58031283D02*
X111969394Y-58078903D01*
X111969394Y-58078903D02*
X111874156Y-58126522D01*
X111874156Y-58126522D02*
X111588442Y-58126522D01*
X111588442Y-58126522D02*
X111493204Y-58078903D01*
X111493204Y-58078903D02*
X111445585Y-58031283D01*
X150929819Y-90080238D02*
X150453628Y-90413571D01*
X150929819Y-90651666D02*
X149929819Y-90651666D01*
X149929819Y-90651666D02*
X149929819Y-90270714D01*
X149929819Y-90270714D02*
X149977438Y-90175476D01*
X149977438Y-90175476D02*
X150025057Y-90127857D01*
X150025057Y-90127857D02*
X150120295Y-90080238D01*
X150120295Y-90080238D02*
X150263152Y-90080238D01*
X150263152Y-90080238D02*
X150358390Y-90127857D01*
X150358390Y-90127857D02*
X150406009Y-90175476D01*
X150406009Y-90175476D02*
X150453628Y-90270714D01*
X150453628Y-90270714D02*
X150453628Y-90651666D01*
X149929819Y-89794523D02*
X150929819Y-89461190D01*
X150929819Y-89461190D02*
X149929819Y-89127857D01*
X150025057Y-88842142D02*
X149977438Y-88794523D01*
X149977438Y-88794523D02*
X149929819Y-88699285D01*
X149929819Y-88699285D02*
X149929819Y-88461190D01*
X149929819Y-88461190D02*
X149977438Y-88365952D01*
X149977438Y-88365952D02*
X150025057Y-88318333D01*
X150025057Y-88318333D02*
X150120295Y-88270714D01*
X150120295Y-88270714D02*
X150215533Y-88270714D01*
X150215533Y-88270714D02*
X150358390Y-88318333D01*
X150358390Y-88318333D02*
X150929819Y-88889761D01*
X150929819Y-88889761D02*
X150929819Y-88270714D01*
X146835746Y-53527813D02*
X146359555Y-53861146D01*
X146835746Y-54099241D02*
X145835746Y-54099241D01*
X145835746Y-54099241D02*
X145835746Y-53718289D01*
X145835746Y-53718289D02*
X145883365Y-53623051D01*
X145883365Y-53623051D02*
X145930984Y-53575432D01*
X145930984Y-53575432D02*
X146026222Y-53527813D01*
X146026222Y-53527813D02*
X146169079Y-53527813D01*
X146169079Y-53527813D02*
X146264317Y-53575432D01*
X146264317Y-53575432D02*
X146311936Y-53623051D01*
X146311936Y-53623051D02*
X146359555Y-53718289D01*
X146359555Y-53718289D02*
X146359555Y-54099241D01*
X146264317Y-52956384D02*
X146216698Y-53051622D01*
X146216698Y-53051622D02*
X146169079Y-53099241D01*
X146169079Y-53099241D02*
X146073841Y-53146860D01*
X146073841Y-53146860D02*
X146026222Y-53146860D01*
X146026222Y-53146860D02*
X145930984Y-53099241D01*
X145930984Y-53099241D02*
X145883365Y-53051622D01*
X145883365Y-53051622D02*
X145835746Y-52956384D01*
X145835746Y-52956384D02*
X145835746Y-52765908D01*
X145835746Y-52765908D02*
X145883365Y-52670670D01*
X145883365Y-52670670D02*
X145930984Y-52623051D01*
X145930984Y-52623051D02*
X146026222Y-52575432D01*
X146026222Y-52575432D02*
X146073841Y-52575432D01*
X146073841Y-52575432D02*
X146169079Y-52623051D01*
X146169079Y-52623051D02*
X146216698Y-52670670D01*
X146216698Y-52670670D02*
X146264317Y-52765908D01*
X146264317Y-52765908D02*
X146264317Y-52956384D01*
X146264317Y-52956384D02*
X146311936Y-53051622D01*
X146311936Y-53051622D02*
X146359555Y-53099241D01*
X146359555Y-53099241D02*
X146454793Y-53146860D01*
X146454793Y-53146860D02*
X146645269Y-53146860D01*
X146645269Y-53146860D02*
X146740507Y-53099241D01*
X146740507Y-53099241D02*
X146788127Y-53051622D01*
X146788127Y-53051622D02*
X146835746Y-52956384D01*
X146835746Y-52956384D02*
X146835746Y-52765908D01*
X146835746Y-52765908D02*
X146788127Y-52670670D01*
X146788127Y-52670670D02*
X146740507Y-52623051D01*
X146740507Y-52623051D02*
X146645269Y-52575432D01*
X146645269Y-52575432D02*
X146454793Y-52575432D01*
X146454793Y-52575432D02*
X146359555Y-52623051D01*
X146359555Y-52623051D02*
X146311936Y-52670670D01*
X146311936Y-52670670D02*
X146264317Y-52765908D01*
X106551778Y-62508241D02*
X107266063Y-62508241D01*
X107266063Y-62508241D02*
X107408920Y-62555860D01*
X107408920Y-62555860D02*
X107504159Y-62651098D01*
X107504159Y-62651098D02*
X107551778Y-62793955D01*
X107551778Y-62793955D02*
X107551778Y-62889193D01*
X106551778Y-61603479D02*
X106551778Y-61793955D01*
X106551778Y-61793955D02*
X106599397Y-61889193D01*
X106599397Y-61889193D02*
X106647016Y-61936812D01*
X106647016Y-61936812D02*
X106789873Y-62032050D01*
X106789873Y-62032050D02*
X106980349Y-62079669D01*
X106980349Y-62079669D02*
X107361301Y-62079669D01*
X107361301Y-62079669D02*
X107456539Y-62032050D01*
X107456539Y-62032050D02*
X107504159Y-61984431D01*
X107504159Y-61984431D02*
X107551778Y-61889193D01*
X107551778Y-61889193D02*
X107551778Y-61698717D01*
X107551778Y-61698717D02*
X107504159Y-61603479D01*
X107504159Y-61603479D02*
X107456539Y-61555860D01*
X107456539Y-61555860D02*
X107361301Y-61508241D01*
X107361301Y-61508241D02*
X107123206Y-61508241D01*
X107123206Y-61508241D02*
X107027968Y-61555860D01*
X107027968Y-61555860D02*
X106980349Y-61603479D01*
X106980349Y-61603479D02*
X106932730Y-61698717D01*
X106932730Y-61698717D02*
X106932730Y-61889193D01*
X106932730Y-61889193D02*
X106980349Y-61984431D01*
X106980349Y-61984431D02*
X107027968Y-62032050D01*
X107027968Y-62032050D02*
X107123206Y-62079669D01*
X116967053Y-53974358D02*
X116490862Y-54307691D01*
X116967053Y-54545786D02*
X115967053Y-54545786D01*
X115967053Y-54545786D02*
X115967053Y-54164834D01*
X115967053Y-54164834D02*
X116014672Y-54069596D01*
X116014672Y-54069596D02*
X116062291Y-54021977D01*
X116062291Y-54021977D02*
X116157529Y-53974358D01*
X116157529Y-53974358D02*
X116300386Y-53974358D01*
X116300386Y-53974358D02*
X116395624Y-54021977D01*
X116395624Y-54021977D02*
X116443243Y-54069596D01*
X116443243Y-54069596D02*
X116490862Y-54164834D01*
X116490862Y-54164834D02*
X116490862Y-54545786D01*
X116062291Y-53593405D02*
X116014672Y-53545786D01*
X116014672Y-53545786D02*
X115967053Y-53450548D01*
X115967053Y-53450548D02*
X115967053Y-53212453D01*
X115967053Y-53212453D02*
X116014672Y-53117215D01*
X116014672Y-53117215D02*
X116062291Y-53069596D01*
X116062291Y-53069596D02*
X116157529Y-53021977D01*
X116157529Y-53021977D02*
X116252767Y-53021977D01*
X116252767Y-53021977D02*
X116395624Y-53069596D01*
X116395624Y-53069596D02*
X116967053Y-53641024D01*
X116967053Y-53641024D02*
X116967053Y-53021977D01*
X115967053Y-52688643D02*
X115967053Y-52069596D01*
X115967053Y-52069596D02*
X116348005Y-52402929D01*
X116348005Y-52402929D02*
X116348005Y-52260072D01*
X116348005Y-52260072D02*
X116395624Y-52164834D01*
X116395624Y-52164834D02*
X116443243Y-52117215D01*
X116443243Y-52117215D02*
X116538481Y-52069596D01*
X116538481Y-52069596D02*
X116776576Y-52069596D01*
X116776576Y-52069596D02*
X116871814Y-52117215D01*
X116871814Y-52117215D02*
X116919434Y-52164834D01*
X116919434Y-52164834D02*
X116967053Y-52260072D01*
X116967053Y-52260072D02*
X116967053Y-52545786D01*
X116967053Y-52545786D02*
X116919434Y-52641024D01*
X116919434Y-52641024D02*
X116871814Y-52688643D01*
D11*
%TO.C,J1*%
X126610000Y-96130000D02*
X127940000Y-96130000D01*
X126610000Y-97460000D02*
X126610000Y-96130000D01*
X129210000Y-96130000D02*
X147050000Y-96130000D01*
X129210000Y-98790000D02*
X129210000Y-96130000D01*
X129210000Y-98790000D02*
X147050000Y-98790000D01*
X147050000Y-98790000D02*
X147050000Y-96130000D01*
%TO.C,J3*%
X149470000Y-96130000D02*
X150800000Y-96130000D01*
X149470000Y-97460000D02*
X149470000Y-96130000D01*
X152070000Y-96130000D02*
X164830000Y-96130000D01*
X152070000Y-98790000D02*
X152070000Y-96130000D01*
X152070000Y-98790000D02*
X164830000Y-98790000D01*
X164830000Y-98790000D02*
X164830000Y-96130000D01*
%TO.C,J2*%
X117466000Y-47870000D02*
X118796000Y-47870000D01*
X117466000Y-49200000D02*
X117466000Y-47870000D01*
X120066000Y-47870000D02*
X142986000Y-47870000D01*
X120066000Y-50530000D02*
X120066000Y-47870000D01*
X120066000Y-50530000D02*
X142986000Y-50530000D01*
X142986000Y-50530000D02*
X142986000Y-47870000D01*
%TO.C,J4*%
X144390000Y-47870000D02*
X145720000Y-47870000D01*
X144390000Y-49200000D02*
X144390000Y-47870000D01*
X146990000Y-47870000D02*
X164830000Y-47870000D01*
X146990000Y-50530000D02*
X146990000Y-47870000D01*
X146990000Y-50530000D02*
X164830000Y-50530000D01*
X164830000Y-50530000D02*
X164830000Y-47870000D01*
%TO.C,R9*%
X147519975Y-59255164D02*
G75*
G02*
X147519975Y-57415164I-1453272J920000D01*
G01*
%TO.C,R13*%
X137705738Y-59810243D02*
G75*
G02*
X139545738Y-59810243I920000J1453272D01*
G01*
%TO.C,R14*%
X138845567Y-53143394D02*
G75*
G02*
X137005567Y-53143394I-920000J-1453272D01*
G01*
%TO.C,R18*%
X131377533Y-53143394D02*
G75*
G02*
X129537533Y-53143394I-920000J-1453272D01*
G01*
%TO.C,R4*%
X157513772Y-53177875D02*
G75*
G02*
X155673772Y-53177875I-920000J-1453272D01*
G01*
%TO.C,R15*%
X134008937Y-59785433D02*
G75*
G02*
X135848937Y-59785433I920000J1453272D01*
G01*
%TO.C,R19*%
X126540903Y-59785433D02*
G75*
G02*
X128380903Y-59785433I920000J1453272D01*
G01*
%TO.C,C2*%
X131630000Y-74130000D02*
X134370000Y-74130000D01*
X131630000Y-79370000D02*
X131630000Y-74130000D01*
X134370000Y-74130000D02*
X134370000Y-79370000D01*
X134370000Y-79370000D02*
X131630000Y-79370000D01*
%TO.C,R7*%
X152958253Y-59329597D02*
G75*
G02*
X152958253Y-57489597I-1453272J920000D01*
G01*
%TO.C,R21*%
X123444077Y-59256996D02*
G75*
G02*
X123444077Y-57416996I-1453272J920000D01*
G01*
%TO.C,SW2*%
X160285091Y-62970146D02*
X160285091Y-67470146D01*
X162785091Y-68720146D02*
X164285091Y-68720146D01*
X164285091Y-61720146D02*
X162785091Y-61720146D01*
X166785091Y-67470146D02*
X166785091Y-62970146D01*
%TO.C,R20*%
X127631111Y-53168205D02*
G75*
G02*
X125791111Y-53168205I-920000J-1453272D01*
G01*
%TO.C,R6*%
X153767350Y-53153064D02*
G75*
G02*
X151927350Y-53153064I-920000J-1453272D01*
G01*
%TO.C,J7*%
X113080000Y-99380000D02*
X113080000Y-98000000D01*
X114460000Y-99380000D02*
X113080000Y-99380000D01*
X115730000Y-96620000D02*
X120920000Y-96620000D01*
X115730000Y-99380000D02*
X115730000Y-96620000D01*
X115730000Y-99380000D02*
X120920000Y-99380000D01*
X120920000Y-99380000D02*
X120920000Y-96620000D01*
%TO.C,R10*%
X146282075Y-53189231D02*
G75*
G02*
X144442075Y-53189231I-920000J-1453272D01*
G01*
%TO.C,J5*%
X147127417Y-64507225D02*
X147127417Y-82347225D01*
X147127417Y-64507225D02*
X149787417Y-64507225D01*
X147127417Y-82347225D02*
X149787417Y-82347225D01*
X148457417Y-61907225D02*
X149787417Y-61907225D01*
X149787417Y-61907225D02*
X149787417Y-63237225D01*
X149787417Y-64507225D02*
X149787417Y-82347225D01*
%TO.C,R26*%
X108056251Y-57603076D02*
G75*
G02*
X108056251Y-59443076I1453272J-920000D01*
G01*
%TO.C,J11*%
X98189660Y-90639587D02*
X99989660Y-90639587D01*
X98189660Y-95639587D02*
X101189660Y-95639587D01*
X98189660Y-96639587D02*
X98189660Y-90639587D01*
X99989660Y-89139587D02*
X101189660Y-89139587D01*
X99989660Y-90639587D02*
X99989660Y-89139587D01*
X99989660Y-96639587D02*
X98189660Y-96639587D01*
X99989660Y-98139587D02*
X99989660Y-96639587D01*
X101189660Y-87639587D02*
X112189660Y-87639587D01*
X101189660Y-89139587D02*
X101189660Y-87639587D01*
X101189660Y-91639587D02*
X98189660Y-91639587D01*
X101189660Y-95639587D02*
X101189660Y-91639587D01*
X101189660Y-98139587D02*
X99989660Y-98139587D01*
X101189660Y-99639587D02*
X101189660Y-98139587D01*
X112189660Y-87639587D02*
X112189660Y-99639587D01*
X112189660Y-99639587D02*
X101189660Y-99639587D01*
%TO.C,R5*%
X158424297Y-59329597D02*
G75*
G02*
X158424297Y-57489597I-1453272J920000D01*
G01*
%TO.C,C1*%
X163176336Y-77990000D02*
X160143336Y-77990000D01*
X163176336Y-78030000D02*
X160146336Y-78030000D01*
X163176336Y-78070000D02*
X160148336Y-78070000D01*
X163176336Y-78110000D02*
X160152336Y-78110000D01*
X163176336Y-78150000D02*
X160155336Y-78150000D01*
X163176336Y-78190000D02*
X160160336Y-78190000D01*
X163176336Y-78230000D02*
X160164336Y-78230000D01*
X163176336Y-78270000D02*
X160169336Y-78270000D01*
X163176336Y-78310000D02*
X160174336Y-78310000D01*
X163176336Y-78350000D02*
X160180336Y-78350000D01*
X163176336Y-78390000D02*
X160186336Y-78390000D01*
X163176336Y-78430000D02*
X160193336Y-78430000D01*
X163176336Y-78470000D02*
X160199336Y-78470000D01*
X163176336Y-78510000D02*
X160207336Y-78510000D01*
X163176336Y-78550000D02*
X160214336Y-78550000D01*
X163176336Y-78590000D02*
X160223336Y-78590000D01*
X163176336Y-78630000D02*
X160231336Y-78630000D01*
X163176336Y-78670000D02*
X160240336Y-78670000D01*
X163176336Y-78710000D02*
X160249336Y-78710000D01*
X163176336Y-78750000D02*
X160259336Y-78750000D01*
X163176336Y-78790000D02*
X160269336Y-78790000D01*
X163176336Y-78830000D02*
X160280336Y-78830000D01*
X163176336Y-78870000D02*
X160291336Y-78870000D01*
X163176336Y-78910000D02*
X160303336Y-78910000D01*
X163176336Y-78950000D02*
X160315336Y-78950000D01*
X163176336Y-78990000D02*
X160327336Y-78990000D01*
X163176336Y-79030000D02*
X160340336Y-79030000D01*
X163176336Y-79070000D02*
X160353336Y-79070000D01*
X163176336Y-79110000D02*
X160367336Y-79110000D01*
X163176336Y-79150000D02*
X160381336Y-79150000D01*
X163176336Y-79190000D02*
X160396336Y-79190000D01*
X163176336Y-79230000D02*
X160411336Y-79230000D01*
X163176336Y-79270000D02*
X160427336Y-79270000D01*
X163176336Y-79310000D02*
X160443336Y-79310000D01*
X163176336Y-79350000D02*
X160459336Y-79350000D01*
X163176336Y-79390000D02*
X160476336Y-79390000D01*
X163176336Y-79430000D02*
X160494336Y-79430000D01*
X163176336Y-79470000D02*
X160512336Y-79470000D01*
X163176336Y-79510000D02*
X160531336Y-79510000D01*
X163176336Y-79550000D02*
X160550336Y-79550000D01*
X163176336Y-79590000D02*
X160570336Y-79590000D01*
X163176336Y-79630000D02*
X160590336Y-79630000D01*
X163176336Y-79670000D02*
X160611336Y-79670000D01*
X163176336Y-79710000D02*
X160632336Y-79710000D01*
X163176336Y-79750000D02*
X160654336Y-79750000D01*
X163176336Y-79790000D02*
X160677336Y-79790000D01*
X163176336Y-79830000D02*
X160700336Y-79830000D01*
X163176336Y-79870000D02*
X160723336Y-79870000D01*
X163176336Y-79910000D02*
X160748336Y-79910000D01*
X163176336Y-79950000D02*
X160773336Y-79950000D01*
X163176336Y-79990000D02*
X160798336Y-79990000D01*
X163176336Y-80030000D02*
X160824336Y-80030000D01*
X164749336Y-81830000D02*
X163683336Y-81830000D01*
X164984336Y-81790000D02*
X163448336Y-81790000D01*
X165163336Y-81750000D02*
X163269336Y-81750000D01*
X165313336Y-81710000D02*
X163119336Y-81710000D01*
X165444336Y-81670000D02*
X162988336Y-81670000D01*
X165562336Y-81630000D02*
X162870336Y-81630000D01*
X165669336Y-81590000D02*
X162763336Y-81590000D01*
X165768336Y-81550000D02*
X162664336Y-81550000D01*
X165860336Y-81510000D02*
X162572336Y-81510000D01*
X165947336Y-81470000D02*
X162485336Y-81470000D01*
X166029336Y-81430000D02*
X162403336Y-81430000D01*
X166106336Y-81390000D02*
X162326336Y-81390000D01*
X166180336Y-81350000D02*
X162252336Y-81350000D01*
X166250336Y-81310000D02*
X162182336Y-81310000D01*
X166317336Y-81270000D02*
X162115336Y-81270000D01*
X166381336Y-81230000D02*
X162051336Y-81230000D01*
X166443336Y-81190000D02*
X161989336Y-81190000D01*
X166503336Y-81150000D02*
X161929336Y-81150000D01*
X166531336Y-73340302D02*
X166531336Y-74140302D01*
X166560336Y-81110000D02*
X161872336Y-81110000D01*
X166616336Y-81070000D02*
X161816336Y-81070000D01*
X166669336Y-81030000D02*
X161763336Y-81030000D01*
X166721336Y-80990000D02*
X161711336Y-80990000D01*
X166771336Y-80950000D02*
X161661336Y-80950000D01*
X166820336Y-80910000D02*
X161612336Y-80910000D01*
X166867336Y-80870000D02*
X161565336Y-80870000D01*
X166912336Y-80830000D02*
X161520336Y-80830000D01*
X166931336Y-73740302D02*
X166131336Y-73740302D01*
X166957336Y-80790000D02*
X161475336Y-80790000D01*
X167000336Y-80750000D02*
X161432336Y-80750000D01*
X167042336Y-80710000D02*
X161390336Y-80710000D01*
X167083336Y-80670000D02*
X161349336Y-80670000D01*
X167122336Y-80630000D02*
X161310336Y-80630000D01*
X167161336Y-80590000D02*
X161271336Y-80590000D01*
X167198336Y-80550000D02*
X161234336Y-80550000D01*
X167235336Y-80510000D02*
X161197336Y-80510000D01*
X167271336Y-80470000D02*
X161161336Y-80470000D01*
X167305336Y-80430000D02*
X161127336Y-80430000D01*
X167339336Y-80390000D02*
X161093336Y-80390000D01*
X167372336Y-80350000D02*
X161060336Y-80350000D01*
X167404336Y-80310000D02*
X161028336Y-80310000D01*
X167435336Y-80270000D02*
X160997336Y-80270000D01*
X167466336Y-80230000D02*
X160966336Y-80230000D01*
X167496336Y-80190000D02*
X160936336Y-80190000D01*
X167525336Y-80150000D02*
X160907336Y-80150000D01*
X167553336Y-80110000D02*
X160879336Y-80110000D01*
X167581336Y-80070000D02*
X160851336Y-80070000D01*
X167608336Y-80030000D02*
X165256336Y-80030000D01*
X167634336Y-79990000D02*
X165256336Y-79990000D01*
X167659336Y-79950000D02*
X165256336Y-79950000D01*
X167684336Y-79910000D02*
X165256336Y-79910000D01*
X167709336Y-79870000D02*
X165256336Y-79870000D01*
X167732336Y-79830000D02*
X165256336Y-79830000D01*
X167755336Y-79790000D02*
X165256336Y-79790000D01*
X167778336Y-79750000D02*
X165256336Y-79750000D01*
X167800336Y-79710000D02*
X165256336Y-79710000D01*
X167821336Y-79670000D02*
X165256336Y-79670000D01*
X167842336Y-79630000D02*
X165256336Y-79630000D01*
X167862336Y-79590000D02*
X165256336Y-79590000D01*
X167882336Y-79550000D02*
X165256336Y-79550000D01*
X167901336Y-79510000D02*
X165256336Y-79510000D01*
X167920336Y-79470000D02*
X165256336Y-79470000D01*
X167938336Y-79430000D02*
X165256336Y-79430000D01*
X167956336Y-79390000D02*
X165256336Y-79390000D01*
X167973336Y-79350000D02*
X165256336Y-79350000D01*
X167989336Y-79310000D02*
X165256336Y-79310000D01*
X168005336Y-79270000D02*
X165256336Y-79270000D01*
X168021336Y-79230000D02*
X165256336Y-79230000D01*
X168036336Y-79190000D02*
X165256336Y-79190000D01*
X168051336Y-79150000D02*
X165256336Y-79150000D01*
X168065336Y-79110000D02*
X165256336Y-79110000D01*
X168079336Y-79070000D02*
X165256336Y-79070000D01*
X168092336Y-79030000D02*
X165256336Y-79030000D01*
X168105336Y-78990000D02*
X165256336Y-78990000D01*
X168117336Y-78950000D02*
X165256336Y-78950000D01*
X168129336Y-78910000D02*
X165256336Y-78910000D01*
X168141336Y-78870000D02*
X165256336Y-78870000D01*
X168152336Y-78830000D02*
X165256336Y-78830000D01*
X168163336Y-78790000D02*
X165256336Y-78790000D01*
X168173336Y-78750000D02*
X165256336Y-78750000D01*
X168183336Y-78710000D02*
X165256336Y-78710000D01*
X168192336Y-78670000D02*
X165256336Y-78670000D01*
X168201336Y-78630000D02*
X165256336Y-78630000D01*
X168209336Y-78590000D02*
X165256336Y-78590000D01*
X168218336Y-78550000D02*
X165256336Y-78550000D01*
X168225336Y-78510000D02*
X165256336Y-78510000D01*
X168233336Y-78470000D02*
X165256336Y-78470000D01*
X168239336Y-78430000D02*
X165256336Y-78430000D01*
X168246336Y-78390000D02*
X165256336Y-78390000D01*
X168252336Y-78350000D02*
X165256336Y-78350000D01*
X168258336Y-78310000D02*
X165256336Y-78310000D01*
X168263336Y-78270000D02*
X165256336Y-78270000D01*
X168268336Y-78230000D02*
X165256336Y-78230000D01*
X168272336Y-78190000D02*
X165256336Y-78190000D01*
X168277336Y-78150000D02*
X165256336Y-78150000D01*
X168280336Y-78110000D02*
X165256336Y-78110000D01*
X168284336Y-78070000D02*
X165256336Y-78070000D01*
X168286336Y-78030000D02*
X165256336Y-78030000D01*
X168289336Y-77990000D02*
X165256336Y-77990000D01*
X168291336Y-77950000D02*
X160141336Y-77950000D01*
X168293336Y-77910000D02*
X160139336Y-77910000D01*
X168294336Y-77870000D02*
X160138336Y-77870000D01*
X168295336Y-77830000D02*
X160137336Y-77830000D01*
X168296336Y-77750000D02*
X160136336Y-77750000D01*
X168296336Y-77790000D02*
X160136336Y-77790000D01*
X168336336Y-77750000D02*
G75*
G02*
X160096336Y-77750000I-4120000J0D01*
G01*
X160096336Y-77750000D02*
G75*
G02*
X168336336Y-77750000I4120000J0D01*
G01*
%TO.C,R24*%
X128612183Y-77335514D02*
G75*
G02*
X130452183Y-77335514I920000J1453272D01*
G01*
%TO.C,R12*%
X142591990Y-53193016D02*
G75*
G02*
X140751990Y-53193016I-920000J-1453272D01*
G01*
%TO.C,SW1*%
X151593155Y-73967040D02*
X151593155Y-75467040D01*
X152843155Y-77967040D02*
X157343155Y-77967040D01*
X157343155Y-71467040D02*
X152843155Y-71467040D01*
X158593155Y-75467040D02*
X158593155Y-73967040D01*
%TO.C,R11*%
X141402539Y-59810243D02*
G75*
G02*
X143242539Y-59810243I920000J1453272D01*
G01*
%TO.C,R22*%
X123909499Y-53143394D02*
G75*
G02*
X122069499Y-53143394I-920000J-1453272D01*
G01*
%TO.C,J12*%
X151620000Y-81880000D02*
X151620000Y-80500000D01*
X153000000Y-81880000D02*
X151620000Y-81880000D01*
X154270000Y-79120000D02*
X159460000Y-79120000D01*
X154270000Y-81880000D02*
X154270000Y-79120000D01*
X154270000Y-81880000D02*
X159460000Y-81880000D01*
X159460000Y-81880000D02*
X159460000Y-79120000D01*
%TO.C,R1*%
X163150207Y-54329279D02*
G75*
G02*
X164990207Y-54329279I920000J1453272D01*
G01*
%TO.C,R27*%
X130492646Y-81683034D02*
G75*
G02*
X128652646Y-81683034I-920000J-1453272D01*
G01*
%TO.C,R17*%
X130262515Y-59785433D02*
G75*
G02*
X132102515Y-59785433I920000J1453272D01*
G01*
%TO.C,R25*%
X114684407Y-59443076D02*
G75*
G02*
X114684407Y-57603076I-1453272J920000D01*
G01*
%TO.C,R16*%
X135148766Y-53143394D02*
G75*
G02*
X133308766Y-53143394I-920000J-1453272D01*
G01*
%TO.C,RV1*%
X129431116Y-85362815D02*
X139181116Y-85362815D01*
X129431116Y-95112815D02*
X129431116Y-85362815D01*
X139181116Y-85362815D02*
X139181116Y-95112815D01*
X139181116Y-95112815D02*
X129431116Y-95112815D01*
%TO.C,R2*%
X159428595Y-54321599D02*
G75*
G02*
X161268595Y-54321599I920000J1453272D01*
G01*
%TO.C,U1*%
X137657959Y-73963197D02*
X137657959Y-84243197D01*
X137657959Y-84243197D02*
X142157959Y-84243197D01*
X138907959Y-73963197D02*
X137657959Y-73963197D01*
X142157959Y-73963197D02*
X140907959Y-73963197D01*
X142157959Y-84243197D02*
X142157959Y-73963197D01*
X134657959Y-73903197D02*
X145157959Y-73903197D01*
X145157959Y-84303197D01*
X134657959Y-84303197D01*
X134657959Y-73903197D01*
X140907959Y-73963197D02*
G75*
G02*
X138907959Y-73963197I-1000000J0D01*
G01*
%TO.C,J9*%
X102620000Y-56730000D02*
X102620000Y-51540000D01*
X105380000Y-51540000D02*
X102620000Y-51540000D01*
X105380000Y-56730000D02*
X102620000Y-56730000D01*
X105380000Y-56730000D02*
X105380000Y-51540000D01*
X105380000Y-58000000D02*
X105380000Y-59380000D01*
X105380000Y-59380000D02*
X104000000Y-59380000D01*
%TO.C,R3*%
X162728522Y-57452380D02*
G75*
G02*
X162728522Y-59292380I1453272J-920000D01*
G01*
%TO.C,J10*%
X156378993Y-82529403D02*
X167378993Y-82529403D01*
X156378993Y-94529403D02*
X156378993Y-82529403D01*
X167378993Y-82529403D02*
X167378993Y-84029403D01*
X167378993Y-84029403D02*
X168578993Y-84029403D01*
X167378993Y-86529403D02*
X167378993Y-90529403D01*
X167378993Y-90529403D02*
X170378993Y-90529403D01*
X167378993Y-93029403D02*
X167378993Y-94529403D01*
X167378993Y-94529403D02*
X156378993Y-94529403D01*
X168578993Y-84029403D02*
X168578993Y-85529403D01*
X168578993Y-85529403D02*
X170378993Y-85529403D01*
X168578993Y-91529403D02*
X168578993Y-93029403D01*
X168578993Y-93029403D02*
X167378993Y-93029403D01*
X170378993Y-85529403D02*
X170378993Y-91529403D01*
X170378993Y-86529403D02*
X167378993Y-86529403D01*
X170378993Y-91529403D02*
X168578993Y-91529403D01*
%TO.C,RV3*%
X105975347Y-46781703D02*
X115725347Y-46781703D01*
X105975347Y-56531703D02*
X105975347Y-46781703D01*
X115725347Y-46781703D02*
X115725347Y-56531703D01*
X115725347Y-56531703D02*
X105975347Y-56531703D01*
%TO.C,RV2*%
X139585000Y-84610000D02*
X149335000Y-84610000D01*
X139585000Y-94360000D02*
X139585000Y-84610000D01*
X149335000Y-84610000D02*
X149335000Y-94360000D01*
X149335000Y-94360000D02*
X139585000Y-94360000D01*
%TO.C,R8*%
X150020927Y-53177875D02*
G75*
G02*
X148180927Y-53177875I-920000J-1453272D01*
G01*
%TO.C,J6*%
X108096959Y-63554908D02*
X108096959Y-62174908D01*
X109476959Y-63554908D02*
X108096959Y-63554908D01*
X110746959Y-60794908D02*
X118476959Y-60794908D01*
X110746959Y-63554908D02*
X110746959Y-60794908D01*
X110746959Y-63554908D02*
X118476959Y-63554908D01*
X118476959Y-63554908D02*
X118476959Y-60794908D01*
%TO.C,R23*%
X120152234Y-53148229D02*
G75*
G02*
X118312234Y-53148229I-920000J-1453272D01*
G01*
%TD*%
M02*
