M48
; DRILL file {KiCad 9.0.7} date 2026-02-04T15:49:30-0700
; FORMAT={-:-/ absolute / metric / decimal}
; #@! TF.CreationDate,2026-02-04T15:49:30-07:00
; #@! TF.GenerationSoftware,Kicad,Pcbnew,9.0.7
; #@! TF.FileFunction,Plated,1,2,PTH
FMAT,2
METRIC
; #@! TA.AperFunction,Plated,PTH,ComponentDrill
T1C0.400
; #@! TA.AperFunction,Plated,PTH,ComponentDrill
T2C0.800
; #@! TA.AperFunction,Plated,PTH,ComponentDrill
T3C1.000
; #@! TA.AperFunction,Plated,PTH,ComponentDrill
T4C1.100
%
G90
G05
T2
X106.97Y-58.523
X108.295Y-51.657
X109.51Y-58.523
X110.835Y-49.117
X110.835Y-54.197
X113.231Y-58.523
X115.771Y-58.523
X119.232Y-52.062
X119.232Y-54.602
X121.991Y-58.337
X122.989Y-52.057
X122.989Y-54.597
X124.531Y-58.337
X126.711Y-52.081
X126.711Y-54.621
X127.461Y-58.332
X127.461Y-60.872
X129.532Y-75.882
X129.532Y-78.422
X129.573Y-80.596
X129.573Y-83.136
X130.458Y-52.057
X130.458Y-54.597
X131.183Y-58.332
X131.183Y-60.872
X133.0Y-75.5
X133.0Y-78.0
X134.229Y-52.057
X134.229Y-54.597
X134.321Y-87.698
X134.321Y-92.778
X134.929Y-58.332
X134.929Y-60.872
X136.098Y-75.293
X136.098Y-77.833
X136.098Y-80.373
X136.098Y-82.913
X136.861Y-90.238
X137.926Y-52.057
X137.926Y-54.597
X138.626Y-58.357
X138.626Y-60.897
X141.672Y-52.106
X141.672Y-54.646
X141.92Y-89.5
X142.323Y-58.357
X142.323Y-60.897
X143.718Y-75.293
X143.718Y-77.833
X143.718Y-80.373
X143.718Y-82.913
X144.46Y-92.04
X145.362Y-52.103
X145.362Y-54.643
X146.067Y-58.335
X147.0Y-89.5
X148.607Y-58.335
X149.101Y-52.091
X149.101Y-54.631
X151.505Y-58.41
X152.847Y-52.066
X152.847Y-54.606
X154.045Y-58.41
X156.594Y-52.091
X156.594Y-54.631
X156.971Y-58.41
X159.511Y-58.41
X160.349Y-52.868
X160.349Y-55.408
X161.642Y-58.372
X164.07Y-52.876
X164.07Y-55.416
X164.182Y-58.372
X164.216Y-76.5
X164.216Y-79.0
T3
X104.0Y-52.92
X104.0Y-55.46
X104.0Y-58.0
X109.477Y-62.175
X112.017Y-62.175
X114.46Y-98.0
X114.557Y-62.175
X117.0Y-98.0
X117.097Y-62.175
X118.796Y-49.2
X119.54Y-98.0
X121.336Y-49.2
X123.876Y-49.2
X126.416Y-49.2
X127.94Y-97.46
X128.956Y-49.2
X130.48Y-97.46
X131.496Y-49.2
X133.02Y-97.46
X134.036Y-49.2
X135.56Y-97.46
X136.576Y-49.2
X138.1Y-97.46
X139.116Y-49.2
X140.64Y-97.46
X141.656Y-49.2
X143.18Y-97.46
X145.72Y-49.2
X145.72Y-97.46
X148.26Y-49.2
X148.457Y-63.237
X148.457Y-65.777
X148.457Y-68.317
X148.457Y-70.857
X148.457Y-73.397
X148.457Y-75.937
X148.457Y-78.477
X148.457Y-81.017
X150.8Y-49.2
X150.8Y-97.46
X153.0Y-80.5
X153.34Y-49.2
X153.34Y-97.46
X155.54Y-80.5
X155.88Y-49.2
X155.88Y-97.46
X158.08Y-80.5
X158.42Y-49.2
X158.42Y-97.46
X160.96Y-49.2
X160.96Y-97.46
X163.5Y-49.2
X163.5Y-97.46
T4
X151.843Y-72.467
X151.843Y-76.967
X158.343Y-72.467
X158.343Y-76.967
X161.285Y-61.97
X161.285Y-68.47
X165.785Y-61.97
X165.785Y-68.47
T1
G00X104.49Y-93.14
M15
G01X104.49Y-94.14
M16
G05
G00X109.99Y-88.64
M15
G01X108.99Y-88.64
M16
G05
G00X108.99Y-98.64
M15
G01X109.99Y-98.64
M16
G05
G00X159.579Y-83.529
M15
G01X158.579Y-83.529
M16
G05
G00X158.579Y-93.529
M15
G01X159.579Y-93.529
M16
G05
G00X164.079Y-89.029
M15
G01X164.079Y-88.029
M16
G05
T2
G00X109.84Y-91.14
M15
G01X109.14Y-91.14
M16
G05
G00X109.14Y-96.14
M15
G01X109.84Y-96.14
M16
G05
G00X159.429Y-86.029
M15
G01X158.729Y-86.029
M16
G05
G00X158.729Y-91.029
M15
G01X159.429Y-91.029
M16
G05
M30

